<?xml version="1.0" encoding="UTF-8"?>
<svg width="100px" height="129px" viewBox="0 0 100 129" version="1.1" xmlns="http://www.w3.org/2000/svg" xmlns:xlink="http://www.w3.org/1999/xlink">
    <title>babydogswap</title>
    <g id="Page-1" stroke="none" stroke-width="1" fill="none" fill-rule="evenodd">
        <g id="babydogswap" fill-rule="nonzero">
            <path d="M35.6561026,128.9844 C33.9445988,128.344788 32.3264498,127.564774 30.8172146,126.535156 C30.3193226,126.19195 29.6969576,126.363553 29.12127,126.347953 C26.6784873,126.285552 24.2357047,126.519556 21.8084811,126.19195 C17.6541947,125.64594 14.9780252,123.212297 13.4999083,119.42143 C12.473006,116.769383 11.6328132,114.023734 11.477222,111.137683 C11.4461037,110.513671 10.97933,110.388869 10.605911,110.139265 C3.3553586,105.334379 -0.347713209,98.6262601 0.0257057969,89.843304 C0.196856175,85.958835 1.39490882,82.3707712 3.52650898,79.1103132 C4.03996011,78.3302994 4.50673387,77.5034847 5.64255001,77.7062883 C6.82504353,77.9090919 6.79392528,78.9231099 6.9339574,79.7655249 C8.02309617,85.6624297 11.1504803,90.124109 16.2694325,93.1973636 C17.2029801,93.7589736 17.2185392,93.7433733 17.2807757,92.6357536 C17.4674852,88.9228877 18.7277743,85.6156289 21.0616431,82.7139773 C21.8862768,81.684359 21.5284169,79.7967254 20.4081599,79.2039149 C9.26782619,73.2290087 3.77545498,62.9328257 4.9579485,50.2498003 C5.30024925,46.6149357 5.92261426,43.0424722 7.10510778,39.5792106 C7.36961291,38.7991967 7.44740854,38.0347832 7.24513991,37.1923682 C4.91127112,27.676199 4.70900249,18.1600299 7.36961291,8.65946102 C7.82082754,7.02143191 8.4120743,5.41460335 9.26782619,3.94817728 C11.5083402,0.141709627 13.5310265,-0.544702573 17.4830443,0.360113509 C21.2639118,1.23372904 24.4224142,3.37096703 27.5497983,5.53940557 C29.1057109,6.63142498 30.5838278,7.81704605 31.984149,9.11186907 C32.3886863,9.48627572 32.7154279,9.54867683 33.2288791,9.31467267 C40.1215715,6.33501971 47.3098874,4.93099475 54.8249449,5.28980113 C60.5818212,5.57060612 66.0741924,6.97463108 71.3487359,9.22107101 C72.0488965,9.51747628 72.4689929,9.45507517 73.0446806,8.95586629 C76.576602,5.91381222 80.2952329,3.13696287 84.6206697,1.26492959 C86.3788509,0.500516005 88.1837094,-0.029893423 90.1286001,0.00130713158 C91.7000717,0.0169074089 93.0070382,0.625318223 94.0650588,1.8109393 C96.3522502,4.35378449 97.3480342,7.50504051 98.0637539,10.7342979 C99.9775263,19.517254 99.8530533,28.2846098 97.6592167,37.0051649 C97.4569481,37.7851787 97.4569481,38.5027915 97.7058941,39.2984056 C99.059538,43.5572813 99.9152898,47.925359 99.9930855,52.4182388 C100.117558,59.3759625 98.5772051,65.8344773 94.096177,71.3569754 C91.4355666,74.6486339 88.1992685,77.2538802 84.4495194,79.2039149 C83.4537353,79.7343243 82.9247251,81.684359 83.6715631,82.5579745 C87.3590758,86.8636511 88.012559,91.9337412 87.4368714,97.3158368 C87.3435166,98.2050526 87.5457853,98.673061 88.3237415,99.1878701 C90.8909972,100.8727 92.3379958,103.384345 92.9914791,106.348397 C94.22065,111.870896 92.8203287,116.972186 90.1286001,121.714671 C88.510451,124.569521 85.7564859,125.989146 82.4579513,126.223151 C80.0929643,126.394754 77.7124181,126.316752 75.331872,126.301152 C74.6317113,126.301152 74.0404646,126.441555 73.4647769,126.893963 C72.0644557,127.970382 70.4151884,128.469591 68.7036846,128.750396 C68.5636525,128.765996 68.4391795,128.797196 68.4080612,128.953199 C66.7743531,128.953199 65.1562041,128.953199 63.5224959,128.953199 C62.9623674,128.750396 62.3555615,128.812797 61.7798739,128.672394 C60.9085629,128.297988 60.0683701,127.87678 59.3993277,127.159167 C58.9947905,126.73796 58.5124576,126.581957 57.9367699,126.581957 C54.2803755,126.581957 50.6395402,126.581957 46.9831458,126.581957 C46.4541355,126.581957 45.9718026,126.691159 45.5828245,127.065566 C44.5092449,128.110784 43.2645148,128.797196 41.7552797,128.937599 C41.5530111,128.937599 41.3507424,128.937599 41.1484738,128.937599 C40.9773234,128.765996 40.7750548,128.859598 40.5727862,128.828397 C40.4171949,128.843997 40.2460445,128.797196 40.1215715,128.937599 C39.7170343,128.937599 39.312497,128.937599 38.9079598,128.937599 C38.5034225,128.765996 38.0988853,128.765996 37.694348,128.937599 C37.4298429,128.937599 37.1497786,128.937599 36.8852735,128.937599 C36.7452414,128.812797 36.6207684,128.812797 36.4807362,128.937599 C36.200672,128.9844 35.9206077,128.9844 35.6561026,128.9844 Z" id="Path" fill="#31201B"></path>
            <path d="M41.7552797,128.9844 C43.3111922,128.43839 44.7581909,127.689577 45.894007,126.457155 C46.0962756,126.238751 46.4074581,126.347953 46.6719633,126.347953 C50.4995081,126.347953 54.3270529,126.363553 58.1545977,126.363553 C58.7302853,126.363553 59.1815,126.472755 59.5704781,126.971964 C60.1617249,127.736378 61.048595,128.126384 61.9043469,128.547592 C61.9821425,128.859598 62.5889484,128.469591 62.4955936,129 C55.6029012,128.9844 48.6790904,128.9844 41.7552797,128.9844 Z" id="Path" fill="#FEFEFE"></path>
            <path d="M62.5111528,128.9844 C62.3866798,128.734795 61.9977016,128.843997 61.919906,128.531992 C62.4644754,128.656794 63.0712813,128.578793 63.538055,128.9844 C63.1957543,128.9844 62.8534535,128.9844 62.5111528,128.9844 Z" id="Path" fill="#EEEDED"></path>
            <path d="M37.694348,128.9844 C38.0988853,128.672394 38.5034225,128.672394 38.9079598,128.9844 C38.5034225,128.9844 38.0988853,128.9844 37.694348,128.9844 Z" id="Path" fill="#4B3C37"></path>
            <path d="M40.5416679,128.812797 C40.7594957,128.828397 41.0240008,128.641194 41.1484738,128.9844 C40.9462052,128.9844 40.7439366,128.9844 40.5416679,128.9844 C40.4794314,128.937599 40.4483132,128.906398 40.4794314,128.859598 C40.4949905,128.828397 40.5261088,128.812797 40.5416679,128.812797 Z" id="Path" fill="#AAA3A1"></path>
            <path d="M36.4651771,128.9844 C36.6052092,128.687994 36.7296822,128.734795 36.8697144,128.9844 C36.7452414,128.9844 36.6052092,128.9844 36.4651771,128.9844 Z" id="Path" fill="#978F8C"></path>
            <path d="M40.5416679,128.812797 C40.5416679,128.875198 40.5416679,128.921999 40.5261088,128.9844 C40.3860767,128.9844 40.2616037,128.9844 40.1215715,128.9844 C40.1993672,128.765996 40.3705175,128.765996 40.5416679,128.812797 Z" id="Path" fill="#8E8683"></path>
            <path d="M81.6955542,8.62826047 C80.2485555,10.3754915 78.5992883,11.9667198 77.4167947,13.9167545 C76.701075,15.0867753 76.8099889,15.6795858 77.8991276,16.5064005 C88.5415693,24.5561436 94.7496603,35.2423335 96.7412283,48.4089675 C97.1924429,51.3418197 96.9434969,54.3058724 96.9123787,57.2543248 C96.9123787,57.4727286 96.8501422,57.659932 96.6789918,57.8003345 C94.7807785,59.7035683 92.5558236,60.9983913 89.8485358,61.263596 C84.4184011,61.7940055 79.937373,59.6723677 75.954237,56.1779056 C72.2511652,52.933048 68.9370715,49.2825831 65.1250858,46.1625276 C62.7600988,44.2280932 60.3328752,42.3248594 57.2988458,41.5292453 C52.1487754,40.1564209 47.2943283,40.7960322 42.8133002,43.822486 C40.4171949,45.4449149 38.316713,47.4261501 36.1539946,49.3293839 C33.0888469,52.0438322 30.4593548,55.2730896 27.0985837,57.6443317 C24.9047471,59.1887592 22.5708783,60.5771838 19.8480314,60.9359902 C15.8648953,61.4507994 11.975114,61.3883982 8.76993418,58.4087453 C8.5365473,58.221542 8.33427868,58.0187384 8.19424655,57.7535336 C7.68079542,55.9595018 7.75859104,54.1342693 7.85194579,52.3090369 C8.17868742,45.3201126 9.96798683,38.7211954 13.2509623,32.5434855 C16.4717012,26.4593774 20.7193424,21.2488848 26.2117136,17.0836108 C28.3588729,15.4455816 28.3588729,15.071175 26.7874012,12.8559356 C25.4804347,11.0307032 23.7222535,9.61107794 22.4619644,7.73904466 C23.0065338,7.42703912 23.4421893,7.77024522 23.8934039,7.97304882 C25.7604989,8.83106407 27.3475297,10.1102868 28.872324,11.4675109 C29.6658394,12.1695234 30.490473,12.8247351 31.2839884,13.495547 C32.0463855,14.1507586 32.7932236,14.2443603 33.7112119,13.8387531 C36.2473494,12.7155331 38.8457233,11.7483159 41.5685702,11.077504 C46.0807165,9.95428404 50.6395402,9.40827433 55.2606004,9.75148043 C60.4729074,10.1258871 65.4829457,11.358309 70.2751563,13.4799467 C70.617457,13.6359495 70.9753169,13.7607517 71.3020585,13.9011542 C72.1578104,14.2911611 72.7801754,14.057157 73.4958952,13.4487462 C75.6430545,11.5767129 77.9924824,9.96988432 80.2952329,8.26945409 C80.8553614,7.86384688 81.3688126,7.94184827 81.6955542,8.62826047 Z" id="Path" fill="#FDA524"></path>
            <path d="M8.73881593,58.1747411 C9.56344957,58.7051506 10.3258467,59.3603622 11.2127168,59.7659694 C15.0247025,61.5600013 18.9144838,61.2791963 22.7420286,59.8283705 C26.756283,58.2995433 29.6347211,55.2262887 32.6376323,52.3402374 C35.7183391,49.3761847 38.7990459,46.4121321 42.2531717,43.8848871 C48.134521,39.5792106 56.583126,39.5168095 62.4333571,43.7912855 C65.9030421,46.3341307 68.9837489,49.2669828 72.0644557,52.2310355 C73.5114543,53.6194602 74.9740121,54.9766843 76.4676881,56.3183081 C79.7351044,59.2511603 83.5626492,60.9359902 87.9503225,61.1387938 C90.3308687,61.2479958 92.5869419,60.701986 94.5629508,59.23556 C95.2319931,58.7207508 95.8854764,58.1747411 96.6789918,57.831535 C96.6167553,58.8611533 96.3989275,59.8751714 96.0566268,60.8423885 C92.6180601,66.3024856 88.0281182,70.3897582 82.1467688,73.0886062 C76.1253873,75.8654556 69.7928234,77.3318816 63.2579908,78.0650947 C58.9481131,78.5487033 54.6226763,78.813908 50.2816803,78.6579052 C42.4398812,78.3927005 34.6758777,77.5502855 27.2074976,74.8982384 C22.1819001,73.1198068 17.5297217,70.7017638 13.717736,66.9732975 C11.6172541,64.9296612 9.6412452,62.6832213 8.66102031,59.79717 C8.50542905,59.3447619 8.4743108,58.8611533 8.39651518,58.4087453 C8.33427868,58.0967397 8.50542905,58.0343386 8.73881593,58.1747411 Z" id="Path" fill="#FDFEFD"></path>
            <path d="M8.73881593,58.1747411 C8.33427868,58.6271492 8.61434293,59.0795572 8.73881593,59.516365 C9.28338532,61.3571977 10.5592336,62.7456224 11.6794906,64.2276487 C15.1958529,68.8609311 19.9725044,71.7313821 25.2470478,73.8218192 C30.0392584,75.7250531 35.0026193,76.9730753 40.1215715,77.5658858 C42.7666228,77.8778913 45.4272332,78.0182938 48.0878437,78.2054972 C50.2816803,78.3458997 52.4910761,78.4083008 54.6849128,78.3302994 C61.8109921,78.0806949 68.874835,77.3942827 75.7208501,75.2258442 C80.1707599,73.806219 84.3717237,71.949786 88.1525912,69.1729366 C90.8132016,67.2385022 92.9136835,64.7892587 94.7963376,62.1216113 C95.1541975,61.6224024 95.5587348,61.1855946 96.0410677,60.7955877 C94.6251873,66.661292 91.1399432,71.0917707 86.2854961,74.4926312 C81.0731892,78.1274958 75.1918398,80.108731 69.0148671,81.2787518 C56.8943086,83.5719925 44.8204274,83.4939912 32.8087827,80.5923396 C26.9896698,79.1883146 21.5128578,76.9886755 16.8140019,73.1666076 C12.1151461,69.3445397 9.28338532,64.4304523 8.2253648,58.4555461 C8.17868742,58.221542 8.19424655,57.9875378 8.19424655,57.7535336 C8.38095605,57.8939361 8.55210643,58.0343386 8.73881593,58.1747411 Z" id="Path" fill="#DEDEDE"></path>
            <path d="M44.151385,110.872478 C44.1980624,114.444941 44.2447397,118.001805 44.1202667,121.574268 C43.6223747,121.823872 43.1244827,121.69907 42.6265907,121.574268 C41.7086023,121.371464 40.7906139,121.10626 39.8570664,120.903456 C37.9899714,120.513449 36.1539946,120.685052 34.3491361,121.277863 C33.9445988,121.418265 33.5400616,121.652269 33.0732878,121.511867 C32.9643739,121.449466 32.9176966,121.355864 32.9176966,121.231062 C33.5711798,120.419847 33.4155886,119.624233 32.9021374,118.813019 C30.3504409,114.663345 28.5922597,110.123664 26.7096056,105.661985 C24.9358653,101.43431 24.157909,96.9414302 24.1734682,92.3549487 C24.1734682,90.7949209 24.6246828,89.2660938 24.8425106,87.7216663 C24.8891879,87.3784602 25.0447792,87.0508544 25.4959938,87.0976552 C26.3206275,87.3472596 27.0985837,87.6904657 27.8454217,88.1116732 C27.6587122,90.4517148 28.4211094,92.5577523 29.5880438,94.4921866 C30.8794511,96.6138244 32.5442775,98.4546571 34.1468674,100.342291 C36.6518866,103.275143 39.685916,105.630785 42.28429,108.470035 C42.9844506,109.218848 43.7468477,109.905261 44.151385,110.872478 Z" id="Path" fill="#FDA524"></path>
            <path d="M77.3545582,88.0180716 C77.9613641,87.6748655 78.5526109,87.3160591 79.2372124,87.144456 C79.8595774,86.9572527 79.9218139,87.4720619 79.9840504,87.815268 C80.4197059,90.0461076 80.7464475,92.2457467 80.5908563,94.570188 C80.3419103,98.0958507 79.6261905,101.496711 78.4125788,104.78837 C76.6699567,109.499653 74.7717435,114.148536 72.1422513,118.454213 C71.6443593,119.265427 71.3331768,120.170243 70.7886074,120.934657 C69.5438774,121.043859 68.3302656,120.653852 67.0699765,120.685052 C65.4985048,120.716253 63.9737105,120.903456 62.4800345,121.387065 C62.1221746,121.496267 61.7798739,121.652269 61.3908957,121.558668 C61.0330359,121.371464 60.9396811,121.043859 60.9085629,120.685052 C60.675176,119.842637 60.9552402,118.984622 60.7374125,118.142207 C60.7374125,117.955004 60.7374125,117.783401 60.7374125,117.596197 C60.8930037,117.362193 60.7840899,117.065788 60.8930037,116.816183 C60.9707994,115.256156 60.9085629,113.696128 60.924122,112.1361 C60.924122,112.026898 60.924122,111.917696 60.9085629,111.808494 C60.924122,111.57449 60.9552402,111.340486 60.9707994,111.122082 C61.67096,109.172048 63.0712813,107.736822 64.5805164,106.410798 C68.3302656,103.150341 71.7532732,99.577877 74.6161522,95.5062047 C76.07871,93.4313678 76.950021,91.138127 77.1678487,88.6108821 C77.1522896,88.3612777 77.198967,88.1740743 77.3545582,88.0180716 Z" id="Path" fill="#FDA524"></path>
            <path d="M37.694348,90.9977245 C40.2460445,91.2941298 42.8133002,91.5905351 45.3649967,91.9025406 C46.0651574,91.9961423 45.5983836,92.3705489 45.4894697,92.6201534 C44.1202667,95.6778077 44.6648361,99.1722698 46.8742319,101.43431 C49.3481328,103.977155 53.3312689,104.476364 56.5208895,102.635531 C59.4926825,100.919501 60.8152081,97.269036 59.8349832,93.6653719 C59.679392,93.0881617 59.0725861,92.4017495 59.4148868,91.9961423 C59.7105102,91.6529362 60.5662621,91.808939 61.1575089,91.7309376 C63.1023995,91.4969334 65.0472902,91.247329 67.00774,91.0133248 C67.4278363,91.699737 66.8988261,92.1833456 66.6032027,92.6669542 C65.8252464,93.9305767 64.782785,95.0225961 64.035947,96.3174191 C62.6045075,98.8134635 61.3131001,101.387509 60.4417891,104.148758 C60.3173161,104.538765 60.2239614,104.928772 60.0061336,105.287579 C59.8972197,105.474782 59.803865,105.864789 59.8816606,105.94279 C58.1390386,105.693186 57.7500604,105.989591 57.7033831,107.908425 C57.6411466,110.654074 57.6722648,113.415323 57.6567057,116.160972 C57.6567057,116.504178 57.6255874,116.831784 57.6100283,117.17499 C56.5053304,118.095406 55.1361274,118.189008 53.8136018,118.376211 C51.853152,118.657016 49.9082613,118.360611 48.0411663,117.705399 C47.6988655,117.580597 47.3410057,117.440195 47.1854144,117.050188 C47.1542962,114.008134 47.138737,110.950479 47.0920596,107.908425 C47.0609414,106.098793 47.0453823,106.098793 45.2249646,105.724386 C44.6803952,105.084775 44.5559222,104.24236 44.275858,103.493547 C42.8755367,99.7806806 41.0551191,96.3174191 38.6278955,93.1661631 C38.1455626,92.542152 37.569875,91.9181409 37.694348,90.9977245 Z" id="Path" fill="#DEDEDE"></path>
            <path d="M37.694348,90.9977245 C38.6590138,93.2285642 40.432754,94.9289944 41.5685702,97.0506321 C43.0622462,99.8274815 44.4314492,102.651132 45.2249646,105.708786 C44.4158901,106.285996 44.151385,107.097211 44.151385,108.064428 C44.1358259,109.000445 44.3380945,109.936461 44.1669441,110.872478 C39.6703569,105.755587 34.2246631,101.543512 30.241527,95.9430124 C28.7945284,93.8993761 27.87654,91.6841367 27.5497983,89.2192929 C27.503121,88.8604865 27.1919385,88.3144768 27.8609809,88.1116732 C30.8794511,89.2504935 34.0068353,89.9837065 37.1186604,90.7949209 C37.320929,90.857322 37.5076385,90.9353234 37.694348,90.9977245 Z" id="Path" fill="#FDFEFD"></path>
            <path d="M59.8661015,105.94279 C59.8505423,105.724386 59.3682095,105.802388 59.679392,105.271978 C60.3795526,104.086357 60.6129395,102.682332 61.173068,101.403109 C62.4644754,98.4858576 63.8959149,95.6622074 65.9341603,93.1817634 C66.4320523,92.5577523 66.9610626,91.9025406 66.9921808,91.0289251 C68.6881255,90.5921173 70.3840701,90.1865101 72.0644557,89.7029015 C73.8381959,89.1880924 75.5963771,88.5952818 77.3545582,88.0180716 C77.4323539,90.7793207 76.4365699,93.2129639 74.9273347,95.4438036 C72.6245842,98.8134635 69.9172964,101.855518 66.8988261,104.601166 C64.7205485,106.582402 62.4800345,108.516836 60.9552402,111.090882 C60.3951117,109.827259 60.7685307,108.485635 60.6440577,107.190812 C60.5818212,106.613602 60.4884665,106.129994 59.8661015,105.94279 Z" id="Path" fill="#FDFEFD"></path>
            <path d="M70.8508439,120.825455 C70.6330161,120.01424 71.2087038,119.468231 71.5510045,118.89102 C75.0518077,112.994116 77.7746546,106.769605 79.4861584,100.139487 C80.5130607,96.1614163 80.7620067,92.0741437 79.7817818,88.0024713 C79.7039862,87.6748655 79.7351044,87.2068572 79.2216533,87.1288558 C79.4705993,86.972853 79.7195453,86.7856497 79.9840504,86.6452472 C82.6602199,85.2724228 82.1778871,84.9292167 83.4848536,87.8776691 C85.0407661,91.3877315 84.8540566,95.0693969 84.2005733,98.7822629 C83.2981441,103.852353 81.2443396,108.501236 79.1594168,113.150118 C77.6501816,116.504178 75.9386778,119.733435 73.6048091,122.588286 C73.0602397,122.557085 72.8112937,122.011076 72.3289608,121.855073 C71.8155097,121.558668 71.1775855,121.402665 70.8508439,120.825455 Z" id="Path" fill="#F08102"></path>
            <path d="M25.5115529,87.0976552 C25.2937252,87.2224574 25.1225748,87.3784602 25.0914566,87.6436649 C24.8113923,90.2801118 24.2357047,92.8697578 24.6091237,95.5998063 C25.0758974,99.0630679 25.6515851,102.495129 27.0363472,105.724386 C29.0123561,110.326468 30.863892,115.006551 33.4778251,119.296628 C33.9912762,120.139043 33.8823623,120.763054 33.0110513,121.231062 C32.1241812,122.073477 31.237311,121.636669 30.3504409,121.246662 C29.5724846,120.388647 28.9501196,119.42143 28.4055502,118.407412 C25.4026391,112.775712 22.6331148,107.03481 21.1083205,100.794699 C20.1436547,96.8634288 19.676881,92.9009584 21.0149657,88.9384879 C21.29503,88.096073 21.6840081,87.3160591 22.0574271,86.5048447 C22.3997279,85.7404311 22.8665016,85.4752264 23.6288988,85.958835 C24.2357047,86.3488419 24.8736288,86.7232486 25.5115529,87.0976552 Z" id="Path" fill="#F08102"></path>
            <path d="M76.950021,123.290299 C80.2796738,118.376211 82.5824243,113.165719 84.651788,107.846024 C85.274153,106.239195 85.772045,104.569966 86.3166144,102.931937 C86.4255283,102.619931 86.3632918,102.183123 86.767829,102.089522 C87.2190436,101.98032 87.5302261,102.276725 87.8102904,102.604331 C89.4595577,104.491964 90.2686322,106.738404 90.4242234,109.203248 C90.6731694,112.978515 89.4751168,116.441777 87.888086,119.780236 C86.8456246,121.964275 84.900734,122.962693 82.5824243,123.243498 C80.7620067,123.461902 78.941589,123.321499 76.950021,123.290299 Z" id="Path" fill="#F08102"></path>
            <path d="M27.6431531,123.290299 C25.3092843,123.290299 23.0220929,123.602304 20.7815789,122.884691 C19.0856342,122.338682 17.7319903,121.340264 16.9695932,119.733435 C15.4136807,116.426177 14.2778645,112.994116 14.464574,109.250049 C14.5734879,106.925608 15.3670033,104.881971 16.7362063,103.041139 C16.8917976,102.822735 17.0940662,102.619931 17.2963348,102.448328 C18.0742911,101.824317 18.3232371,101.886718 18.5877422,102.838335 C20.1903321,108.594837 22.664233,113.976933 25.4337573,119.249827 C26.133918,120.57585 27.254175,121.66787 27.6431531,123.290299 Z" id="Path" fill="#F08102"></path>
            <path d="M92.8203287,28.3938118 C90.5020191,24.8681491 88.012559,21.4984892 84.9629705,18.5656371 C83.6871222,17.3488155 82.3490374,16.194395 81.0109527,15.0555747 C80.6530928,14.7435692 80.559738,14.5407656 80.8864797,14.1507586 C83.5626492,10.905901 86.5655604,8.06665049 90.1752774,5.88261167 C91.482244,8.70626186 92.2135228,11.6859148 92.6958557,14.7435692 C93.3026616,18.674839 93.4271346,22.6373095 93.3337799,26.5997799 C93.3182207,27.223791 93.3182207,27.8946029 92.8203287,28.3938118 Z" id="Path" fill="#C74F02"></path>
            <path d="M14.9157887,6.08541527 C18.3543553,8.14465187 21.3261483,10.7186976 23.7533718,13.9167545 C24.1734682,14.4627642 24.2357047,14.7747697 23.6133397,15.2895789 C19.925827,18.3940341 16.6739698,21.9508973 13.6866178,25.7261644 C13.3754353,25.7885655 13.2820805,26.1161713 13.0331345,26.2565738 C12.8775432,26.4281769 12.7530702,26.6465807 12.5663607,26.7869832 C12.1929417,27.0521879 11.9439957,26.942986 11.8195227,26.5061782 C11.7728454,26.3345752 11.7572862,26.1785724 11.7572862,26.0069694 C11.8039636,21.9820978 11.5083402,17.941626 12.3018556,13.947955 C12.846425,11.2179065 13.5621448,8.53465881 14.9157887,6.08541527 Z" id="Path" fill="#C74F02"></path>
            <path d="M81.6955542,8.62826047 C81.1509848,8.20705298 80.7464475,8.20705298 80.1240825,8.70626186 C77.7746546,10.5782951 75.207399,12.1851237 73.0135623,14.2599606 C72.6401433,14.6187669 72.2044878,14.5251653 71.7843914,14.3535622 C70.0884468,13.6983506 68.3925021,12.9963381 66.6809983,12.3879273 C60.8618855,10.2818899 54.8249449,9.53307655 48.7102087,10.0946865 C44.0424711,10.515894 39.3902927,11.4675109 35.1426515,13.5891486 C33.0732878,14.6187669 31.61073,14.4471639 29.9459036,12.8247351 C28.1721634,11.077504 26.258391,9.40827433 23.9711995,8.3318552 C23.4888667,8.09785104 22.9598564,7.94184827 22.4619644,7.75464494 C20.7504606,6.4754222 19.0389568,5.18059919 17.3430122,3.90137645 C17.4052487,3.3865673 17.7475494,3.62057146 18.0120546,3.65177202 C20.2058912,4.26018283 22.0729863,5.47700446 23.9556404,6.69382609 C26.4606596,8.3318552 28.7789692,10.2038885 30.9728059,12.2319245 C31.8129987,12.9963381 32.5909549,13.0431389 33.5556207,12.5751306 C43.3889878,7.87944716 53.5802149,7.0994333 64.0670653,9.81388154 C66.5254071,10.4534929 68.9059532,11.358309 71.1931446,12.4971292 C72.2667243,13.0275387 73.1224762,12.9495373 74.0560237,12.1227226 C77.1056122,9.40827433 80.2952329,6.88102941 83.8893908,4.93099475 C85.0563252,4.30698366 86.2543779,3.74537368 87.5613444,3.44896841 C87.7947313,3.35536675 87.9969999,3.29296564 87.9814408,3.66737229 C85.7253676,5.13379836 83.6715631,6.83422858 81.6955542,8.62826047 Z" id="Path" fill="#E8C587"></path>
            <path d="M3.74433673,86.1148377 C3.85325061,85.6468294 3.93104623,85.1788211 4.07107836,84.7420133 C4.16443311,84.4456081 4.14887399,83.9619995 4.56897037,83.9619995 C4.91127112,83.9619995 5.09798063,84.3676067 5.22245363,84.6796122 C5.95373251,86.4736441 6.82504353,88.1896746 8.00753705,89.7497024 C10.3414058,92.8385573 13.2976396,95.1629986 16.7206472,96.9258299 C17.1251844,97.1442338 17.5763991,97.2534357 17.5919582,97.8930471 C17.6075173,98.5170582 17.3430122,98.7822629 16.8606793,99.0630679 C15.460358,99.8742823 14.3712193,101.028703 13.5154674,102.401527 C13.3598761,102.651132 13.3287579,103.009938 12.9553389,103.072339 C11.6328132,102.682332 10.6992657,101.715115 9.7657182,100.810299 C7.27625816,98.3766557 5.40916313,95.5374052 4.49117474,92.1209445 C4.13331486,90.404914 3.6665411,88.7044838 3.69765935,86.9260522 C3.68210023,86.6452472 3.79101411,86.3800425 3.74433673,86.1148377 Z" id="Path" fill="#F08102"></path>
            <path d="M14.9157887,6.08541527 C15.0402617,6.38182054 15.086939,6.64702525 14.9002295,6.94343052 C13.4221126,9.40827433 12.9553389,12.1695234 12.4574469,14.9463728 C11.7572862,18.8620424 12.1773826,22.7933122 12.0373505,26.8025835 C12.6441564,26.6777813 12.8308659,26.100571 13.2820805,25.9133677 C13.3909944,26.0381699 13.4065535,26.1629721 13.2820805,26.2877744 C12.0684687,28.5030137 10.854857,30.7182531 9.54789044,33.1206958 C9.09667581,31.9662753 9.00332106,30.9678575 8.90996631,29.9850401 C8.2876013,22.8869139 8.36539693,15.8355886 10.4658788,8.92466574 C10.8392978,7.72344439 11.352749,6.58462415 11.8662001,5.43020363 C12.22406,4.63458949 12.6441564,4.54098782 13.344317,4.99339586 C13.8733273,5.35220224 14.4490149,5.63300723 14.9157887,6.08541527 Z" id="Path" fill="#DF6D03"></path>
            <path d="M92.8203287,28.3938118 C93.3960164,21.3892873 92.9292426,14.4939647 90.6576103,7.7858455 C90.4553417,7.16183441 89.9263314,6.60022442 90.1752774,5.86701139 C90.2530731,5.80461028 90.3308687,5.7266089 90.4086643,5.67980806 C92.4935871,4.33818422 92.6180601,4.35378449 93.5827259,6.69382609 C95.0297245,10.2038885 95.7921217,13.8855539 96.1033042,17.660821 C96.3678093,20.8432776 96.5234005,24.0257342 96.2900137,27.223791 C96.1499815,29.080224 95.8854764,30.9210567 95.3253479,33.0582947 C94.4073595,31.3734648 93.6138441,29.8914384 92.8203287,28.3938118 Z" id="Path" fill="#DF6D03"></path>
            <path d="M47.4810378,87.425261 C47.4810378,87.6592652 47.4499195,87.9088696 47.4810378,88.1428738 C47.5743925,88.829286 47.2787692,89.000889 46.6252859,89.000889 C44.1980624,89.0320896 41.8486344,88.4860799 39.4836474,88.1116732 C35.329361,87.4564616 31.2995475,86.2708405 27.4253253,84.6172111 C26.6784873,84.3052056 25.9627676,83.8995984 25.2626069,83.5095914 C24.9825427,83.3535887 24.6246828,83.2131862 24.6402419,82.7763784 C24.6558011,82.3083701 24.5157689,81.6375582 24.7647149,81.403554 C25.0914566,81.1071487 25.4804347,81.6999593 25.8538537,81.8871626 C26.5384552,82.2615693 27.2386158,82.5891751 28.0321312,82.6671765 C28.6389371,82.7295776 29.245743,82.8231792 29.8058715,83.0415831 C32.6998688,84.1648031 35.7494573,84.6328114 38.7834868,85.0696192 C41.2885059,85.4284255 43.8246433,85.6156289 46.3607808,85.7248308 C47.3565648,85.7716316 47.5588334,86.1460383 47.4654787,86.9884533 C47.4499195,87.1600563 47.4654787,87.3004588 47.4810378,87.425261 C47.4654787,87.425261 47.4654787,87.425261 47.4810378,87.425261 Z" id="Path" fill="#C74F02"></path>
            <path d="M47.1698553,117.050188 C50.2350029,118.454213 53.3623871,118.485413 56.5364487,117.502596 C56.8943086,117.393394 57.2366093,117.284192 57.5944692,117.17499 C57.5322327,119.062623 58.1079203,120.950257 57.4544371,122.83789 C57.3299641,123.165496 57.3299641,123.3527 56.9721042,123.3527 C53.8602791,123.3527 50.7484541,123.3527 47.636629,123.3527 C47.2009735,123.3527 47.0298231,123.196697 47.0453823,122.744289 C47.0920596,120.841055 47.138737,118.937821 47.1698553,117.050188 Z" id="Path" fill="#F08102"></path>
            <path d="M51.0751957,100.576295 C49.3325737,100.139487 47.7922203,98.1738521 47.6677473,96.2394177 C47.5432743,94.2269819 48.8657999,92.2925475 50.7951315,91.6061353 C52.8022586,90.9041229 54.964977,91.4657329 56.085234,92.99456 C55.960761,93.7901742 55.8518472,94.5857883 55.8518472,95.412603 C55.836288,97.9398479 53.5490966,100.373491 51.0751957,100.576295 Z" id="Path" fill="#F2E156"></path>
            <path d="M70.6641344,84.2896053 C73.3403039,83.6967948 75.9853552,82.979182 78.5526109,82.0119648 C78.7704386,81.9339634 79.0038255,81.8403618 79.2372124,81.8091612 C79.6261905,81.7467601 80.2018782,81.3411529 80.3730285,81.9027629 C80.5441789,82.4487726 80.6997702,83.1663853 79.8751365,83.5563923 C76.1876238,85.288023 72.3756382,86.6764477 68.3925021,87.534463 C66.2453428,87.986871 64.0981835,88.4392791 61.9043469,88.6264824 C60.9707994,88.7512846 60.0683701,89.0944907 59.1192635,89.0788904 C58.4657802,89.0632902 57.7033831,89.1568918 57.3610823,88.3924782 C57.1432546,87.8932694 57.7967378,86.6764477 58.4191028,86.3176413 C58.9014357,86.0368364 59.430446,85.958835 59.9750153,85.8652333 C62.2155294,85.4752264 64.4871617,85.397225 66.7276757,85.0384186 C68.0190831,84.8044145 69.3416087,84.55481 70.6641344,84.2896053 Z" id="Path" fill="#C74F02"></path>
            <path d="M4.75567987,92.1989459 C6.17156027,96.816628 9.04999844,100.31109 12.9553389,103.041139 C12.597479,104.211159 12.1929417,105.34998 11.8817592,106.535601 C11.7106089,107.175212 11.5083402,107.190812 11.0104482,106.832006 C6.54497927,103.477946 3.86880973,99.0630679 3.09085347,93.5093692 C2.82634834,91.6529362 2.87302572,89.7965032 3.32424035,87.9556705 C3.85325061,88.0336718 3.85325061,88.4860799 3.89992798,88.8604865 C4.00884186,89.7185018 4.24222874,90.5609168 4.16443311,91.4345323 C4.11775574,91.8401395 4.30446524,92.1521451 4.75567987,92.1989459 Z" id="Path" fill="#DEDEDE"></path>
            <path d="M70.8508439,120.825455 C71.3954133,121.10626 71.9399827,121.387065 72.4689929,121.66787 C72.1733695,122.354282 71.6288002,121.964275 71.2709403,121.839473 C70.4774249,121.574268 69.9484146,121.761471 69.4349635,122.432283 C68.7036846,123.3995 67.754578,124.179514 66.8521487,125.06873 C67.3344816,125.427537 68.0502013,125.03753 68.5480934,125.817543 C66.5565253,125.786343 64.7361077,125.926745 62.91569,125.723942 C61.4531322,125.115531 60.799649,123.91431 60.9085629,122.011076 C61.1108315,121.870673 60.799649,121.355864 61.3131001,121.418265 C63.1023995,120.919056 64.8605807,120.357446 66.7432348,120.341846 C68.1435561,120.326246 69.4972,120.529049 70.8508439,120.825455 Z" id="Path" fill="#FDFEFD"></path>
            <path d="M43.5912565,124.101513 C43.2333966,124.928328 42.7199455,125.567939 41.7708388,125.739542 C40.7439366,125.833144 39.6236795,126.129549 38.7212503,125.521138 C37.320929,124.585122 36.0295216,123.461902 35.2204471,121.917474 C34.8625872,121.246662 35.1115332,120.965857 35.8428121,120.825455 C38.2544765,120.357446 40.5261088,120.934657 42.782182,121.66787 C43.9957937,122.057877 44.0580302,122.22948 43.7157295,123.524303 C43.6690521,123.711506 43.7312886,123.92991 43.5912565,124.101513 Z" id="Path" fill="#FDFEFD"></path>
            <path d="M43.5912565,124.101513 C43.6846112,122.24508 43.6846112,122.24508 41.7552797,121.605469 C39.810389,120.950257 37.8343801,120.731853 35.7961347,121.012658 C35.2360062,121.090659 35.1737697,121.324664 35.4071566,121.745871 C36.3562632,123.3683 37.7254663,124.569521 39.2813788,125.552339 C40.0126577,126.004747 40.9462052,125.59914 41.7863979,125.723942 C36.8385961,126.379153 34.0068353,126.129549 31.4084614,122.619487 C31.1439563,122.089077 31.5484935,121.886274 31.8907943,121.745871 C32.2486542,121.605469 32.6065141,121.418265 33.0110513,121.402665 C36.0606399,120.170243 39.1257875,120.154643 42.2376126,121.168661 C42.8444185,121.371464 43.4979017,121.433866 44.1202667,121.558668 C44.1358259,122.447884 44.0424711,123.305899 43.5912565,124.101513 Z" id="Path" fill="#DEDEDD"></path>
            <path d="M62.9312491,125.708341 C64.6894303,125.708341 66.4476114,125.708341 68.2057926,125.708341 C67.7234597,125.411936 67.2255677,125.552339 66.7432348,125.505538 C66.5876436,125.489938 66.3853749,125.536738 66.3075793,125.333935 C66.2297837,125.131131 66.3853749,125.006329 66.5098479,124.912727 C67.754578,123.96111 68.8437167,122.83789 69.7928234,121.605469 C70.0728876,121.231062 70.3996293,121.309063 70.7886074,121.418265 C71.3487359,121.574268 71.8777462,121.948675 72.5156703,121.66787 C73.0135623,121.839473 73.3247448,122.22948 73.6359273,122.603886 C71.7999505,124.928328 69.4660817,126.17635 66.4476114,125.957946 C65.2495588,125.864344 64.0670653,126.145149 62.9312491,125.708341 Z" id="Path" fill="#DEDEDE"></path>
            <path d="M51.0751957,100.576295 C52.5688717,100.077086 53.8913974,99.297072 54.7938266,97.9398479 C55.3850734,97.0350318 55.6806968,96.0678147 55.6340194,94.9757952 C55.6029012,94.3049833 55.4784282,93.5405697 56.1007932,93.0101603 C57.4855553,94.7885919 57.5789101,96.9726307 56.3652983,98.7666626 C55.2294822,100.451493 53.1756776,101.153505 51.0751957,100.576295 Z" id="Path" fill="#FCFCFB"></path>
            <path d="M70.6641344,84.2896053 C68.9059532,85.1632208 66.9766217,85.2568225 65.0784084,85.5064269 C63.1023995,85.7560314 61.1263906,85.8964339 59.1659408,86.2864408 C58.0768021,86.5048447 57.8122969,87.2692583 57.5477918,88.1272735 C57.3922006,88.6420827 57.8122969,88.6108821 58.0612429,88.6732832 C58.9636722,88.8604865 59.8816606,88.8136857 60.7840899,88.6888835 C61.1575089,88.6420827 61.5153687,88.548481 61.8887878,88.6108821 C60.550703,89.000889 59.2748547,89.671701 57.7811787,89.2192929 C56.9565451,88.9696885 56.707599,88.4860799 56.8320721,87.706066 C56.8320721,87.6748655 56.8476312,87.6436649 56.8476312,87.6124644 C57.1588137,85.6000286 57.3144049,85.3660244 59.4148868,85.3348239 C62.6200666,85.288023 65.7941282,84.8824158 68.9370715,84.3208059 C69.4972,84.2272042 70.0884468,84.2896053 70.6641344,84.2896053 Z" id="Path" fill="#613F36"></path>
            <path d="M52.3977214,88.2520757 C52.3354849,88.2520757 52.2576892,88.2520757 52.1954527,88.2520757 C50.5773037,88.2988766 50.608422,88.2988766 50.6395402,86.692048 C50.6550993,86.0368364 50.7951315,85.67803 51.5419695,85.7560314 C52.0709797,85.8184325 52.6155491,85.7560314 53.1601185,85.7716316 C54.0469886,85.7872319 54.4515259,86.0992375 54.3737303,87.1288558 C54.3114938,88.0024713 54.1870208,88.4704796 53.1912367,88.267676 C52.9578499,88.2052749 52.6777856,88.2520757 52.3977214,88.2520757 Z" id="Path" fill="#DCDCDC"></path>
            <path d="M4.75567987,92.1989459 C4.70900249,92.4017495 4.67788424,92.6201534 4.38226086,92.4173498 C4.03996011,92.1833456 3.77545498,91.980542 3.85325061,91.4501326 C4.02440098,90.2489112 3.82213236,89.0632902 3.30868122,87.9556705 C3.19976735,87.5188627 3.38647685,87.1132555 3.51094985,86.7076483 C3.63542285,86.5984463 3.75989585,86.5984463 3.85325061,86.7388488 C4.00884186,88.5952818 4.39781999,90.3893137 4.75567987,92.1989459 Z" id="Path" fill="#FBF5EE"></path>
            <path d="M33.0110513,121.418265 C32.5287184,121.886274 31.5796118,121.730271 31.4084614,122.619487 C30.9572468,122.22948 30.6305051,121.745871 30.3504409,121.246662 C31.237311,121.231062 32.1397403,121.68347 33.0110513,121.231062 C33.0110513,121.277863 33.0110513,121.355864 33.0110513,121.418265 Z" id="Path" fill="#F4A025"></path>
            <path d="M60.9085629,116.940986 C60.8930037,117.17499 60.9396811,117.424594 60.6907351,117.580597 C60.799649,115.646163 60.5195847,113.711728 60.8618855,111.777294 C60.8930037,111.808494 60.924122,111.855295 60.9396811,111.902096 C60.9863585,113.586926 61.0641541,115.271756 60.9085629,116.940986 Z" id="Path" fill="#988F8D"></path>
            <path d="M60.7062942,118.126607 C61.1419497,118.922221 60.7062942,119.827037 61.0330359,120.622651 C60.9085629,120.809854 61.0797132,121.059459 60.8618855,121.215462 C60.4573482,120.217044 60.6284986,119.171825 60.7062942,118.126607 Z" id="Path" fill="#DBBD93"></path>
            <path d="M60.8774446,121.231062 C60.9396811,121.028258 60.8463264,120.794254 61.048595,120.638251 C61.1419497,120.903456 61.2353045,121.153061 61.3131001,121.418265 C61.173068,121.621069 61.048595,121.823872 60.9085629,122.011076 C60.8930037,121.745871 60.8930037,121.480666 60.8774446,121.231062 Z" id="Path" fill="#FAD8A5"></path>
            <path d="M17.9809363,3.65177202 C17.7475494,3.71417313 17.4674852,3.62057146 17.3118939,3.90137645 C17.1251844,3.80777479 16.9384749,3.7297734 16.7517654,3.63617174 C16.9229158,3.1837637 17.2340983,3.3865673 17.5297217,3.46456869 C17.7008721,3.5269698 17.8409042,3.58937091 17.9809363,3.65177202 Z" id="Path" fill="#C6A774"></path>
            <path d="M17.5452808,3.46456869 C17.2807757,3.5269698 16.9695932,3.33976647 16.7673246,3.63617174 C16.6117333,3.54257008 16.1916369,3.48016897 16.6428516,3.27736536 C16.8917976,3.15256314 17.2807757,3.21496425 17.5452808,3.46456869 Z" id="Path" fill="#937955"></path>
            <path d="M3.86880973,86.7388488 C3.75989585,86.7232486 3.63542285,86.7232486 3.52650898,86.7076483 C3.46427248,86.4580438 3.65098198,86.3020411 3.74433673,86.0992375 C3.91548711,86.3020411 3.93104623,86.520445 3.86880973,86.7388488 Z" id="Path" fill="#D9B690"></path>
            <path d="M13.2665214,26.2877744 C13.2665214,26.1629721 13.2665214,26.0381699 13.2665214,25.9133677 C13.3598761,25.7573649 13.4065535,25.4609597 13.6866178,25.7261644 C13.5777039,25.9445683 13.5310265,26.209773 13.2665214,26.2877744 Z" id="Path" fill="#CB6105"></path>
            <path d="M87.9503225,3.68297257 C87.8725269,3.49576924 87.6858174,3.51136952 87.5302261,3.46456869 C87.7480539,3.26176508 88.0281182,3.16816342 88.2303868,3.37096703 C88.3393007,3.48016897 88.137032,3.63617174 87.9503225,3.68297257 Z" id="Path" fill="#9A7F59"></path>
            <path d="M76.9966984,47.3949495 C75.3941085,47.3325484 74.1027011,47.2701473 72.8735302,46.8489398 C69.2793722,45.6633187 68.0657605,42.6212647 69.8395008,39.2516048 C71.3798541,36.3187527 74.9117756,34.9771288 78.1169554,36.115949 C81.2443396,37.239169 83.0647572,40.3748247 82.4579513,43.6352827 C82.0845323,45.6321182 80.808684,46.8957406 78.7082021,47.254547 C78.0391598,47.363749 77.3701174,47.363749 76.9966984,47.3949495 Z" id="Path" fill="#31201B"></path>
            <path d="M27.9698947,47.363749 C27.3475297,47.3481487 26.6006917,47.4105498 25.8694128,47.2233465 C23.162125,46.5525345 21.9329541,44.3216949 22.4930826,41.0612369 C23.0843294,37.5979754 26.63181,35.1487319 30.117054,35.7727429 C33.8356849,36.4279546 36.2473494,39.7040128 35.6716617,43.2920766 C35.453834,44.6493007 34.6136412,45.5229162 33.4778251,46.1937282 C32.0619447,47.0205429 30.5215913,47.363749 27.9698947,47.363749 Z" id="Path" fill="#31201B"></path>
            <path d="M34.8937055,24.2753386 C37.8499393,23.963333 40.0904533,27.7073996 38.814605,30.6246514 C38.5034225,31.3578645 37.9121758,31.8258728 37.196456,32.0910775 C35.1426515,32.8554911 33.0888469,32.8866916 31.112838,31.8102725 C29.0901517,30.7182531 28.6078189,28.4250123 30.0548175,26.6309805 C31.2839884,25.1177536 32.8554601,24.1817369 34.8937055,24.2753386 Z" id="Path" fill="#FDFEFD"></path>
            <path d="M70.2907154,32.6526875 C69.8395008,32.6058867 69.4349635,32.5746861 69.0304262,32.512285 C65.4518274,31.9194745 65.0628493,28.8462198 66.3542567,26.3969763 C67.7856962,23.682528 70.990876,23.7761297 73.3247448,25.2581561 C73.6359273,25.4609597 73.9159916,25.7105641 74.1804967,25.9757688 C75.1918398,26.9897868 76.0320326,28.1286071 75.5185815,29.6730345 C75.0206895,31.1862614 73.8381959,32.0130761 72.3445199,32.3874828 C71.6754775,32.5590858 70.9441986,32.5746861 70.2907154,32.6526875 Z" id="Path" fill="#FDFEFD"></path>
            <path d="M44.6181587,49.5633881 C44.5559222,47.4261501 45.3649967,46.0845262 47.3410057,45.2577115 C50.608422,43.8848871 53.9380748,43.8380863 57.2366093,45.1329093 C58.6369306,45.678919 59.9127788,46.4901334 60.2395205,48.1749634 C60.5195847,49.2357822 60.3328752,50.2498003 59.928338,51.2170175 C59.0259087,53.3542554 57.4077597,54.7738807 55.3539552,55.7566981 C55.1205683,55.8659001 54.8249449,55.8815004 54.6693536,56.1623054 C54.9805361,56.7083151 55.7584924,56.7239153 56.0074384,57.3323262 C58.6058123,59.0015558 60.3639935,58.7051506 62.2622068,56.3027079 C62.8690126,55.522694 63.3513455,54.6646787 63.8181193,53.7910632 C64.2693339,52.9642485 64.9539354,52.8706468 65.7163326,53.2450535 C66.4164932,53.6038599 66.7899122,54.1030688 66.4164932,54.9766843 C65.4829457,57.2231242 64.1915383,59.1887592 62.044379,60.4211811 C61.3442184,60.8267883 61.0330359,61.3571977 60.8774446,62.1684121 C60.3173161,65.1792656 59.1037043,67.8781136 56.6453625,69.8437485 C53.969193,71.9965868 50.5150672,71.9341857 47.885575,69.703346 C45.4272332,67.6129089 44.275858,64.8360595 43.6846112,61.7628049 C43.5601382,61.1387938 43.2956331,60.7643872 42.7666228,60.4211811 C40.7750548,59.126358 39.3747335,57.3323262 38.5034225,55.1170868 C38.1455626,54.1810701 38.4100678,53.5414588 39.2191423,53.1982527 C40.1371307,52.8082457 40.6972592,53.0266496 41.1640329,53.9626663 C41.5685702,54.789481 42.0353439,55.5694948 42.6110316,56.3027079 C44.4936857,58.6895503 46.2829851,58.9859555 48.8657999,57.3167259 C49.1147459,56.7083151 49.8460248,56.6303137 50.2661212,56.084304 C49.2858963,55.5850951 48.3212305,55.1170868 47.4810378,54.4462749 C46.4852538,53.6506607 45.6761793,52.7146441 45.1160507,51.5758238 C44.8048682,50.9518127 44.6181587,50.2966011 44.6181587,49.5633881 Z" id="Path" fill="#31201B"></path>
            <path d="M56.0074384,57.3479264 C55.3072778,57.0203206 54.6693536,56.6147134 54.0158704,56.0687037 C57.6411466,54.6022776 60.1928431,52.371438 60.2395205,48.1749634 C61.3442184,50.7490091 60.3795526,54.1498696 58.1390386,55.8815004 C57.4544371,56.4119098 56.583126,56.6615142 56.0074384,57.3479264 Z" id="Path" fill="#DEDEDD"></path>
            <path d="M44.6181587,49.5633881 C45.4427924,52.8862471 47.6988655,54.8518821 50.8729271,56.0375031 C50.2194438,56.6147134 49.5659606,57.0047203 48.8813591,57.3479264 C48.1811984,56.8331173 47.512156,56.3027079 46.7964363,55.8190993 C45.3805559,54.8518821 44.6648361,53.4322568 44.2602989,51.8410285 C44.0580302,51.0610147 44.4625675,50.3278017 44.6181587,49.5633881 Z" id="Path" fill="#DDDDDD"></path>
            <path d="M60.9085629,116.940986 C60.924122,115.256156 60.9396811,113.571326 60.9552402,111.902096 C61.173068,113.586926 61.2197454,115.271756 60.9085629,116.940986 Z" id="Path" fill="#E5BA7E"></path>
            <path d="M77.0278166,40.0160184 C77.0433757,41.2016394 76.1720647,42.2156575 75.0984851,42.246858 C73.7915186,42.2780586 72.8735302,41.404443 72.8424119,40.0628192 C72.8112937,38.923999 73.7915186,37.9099809 74.958453,37.8631801 C75.9386778,37.8319795 76.9966984,38.9395992 77.0278166,40.0160184 Z" id="Path" fill="#FCFDFC"></path>
            <path d="M31.9997082,40.10962 C31.9997082,41.4356436 31.2061928,42.1844569 29.8525489,42.1844569 C28.5767006,42.1688566 27.87654,41.404443 27.8920991,40.0004181 C27.8920991,38.8615978 28.747851,37.9567818 29.8369898,37.9411815 C31.112838,37.9099809 31.9997082,38.7835965 31.9997082,40.10962 Z" id="Path" fill="#FCFDFC"></path>
            <path d="M52.4910761,50.0313964 C51.230787,49.8441931 49.9238204,49.8909939 48.7568861,49.220182 C48.1967575,48.9081764 47.6833064,48.4869689 47.6988655,47.8317573 C47.7144247,47.1453451 48.2434349,46.6773368 48.8657999,46.4277323 C51.230787,45.507316 53.595774,45.5229162 55.960761,46.4277323 C56.5675669,46.6617365 57.1276954,47.0517434 57.2054911,47.7693562 C57.2677276,48.54937 56.6453625,48.8769759 56.1007932,49.2045817 C54.9960953,49.8909939 53.7358061,49.9065942 52.4910761,50.0313964 Z" id="Path" fill="#614037"></path>
            <path d="M56.2252662,65.7564759 C56.1163523,65.9280789 56.0074384,66.099682 55.8829654,66.2556848 C53.3623871,69.250938 50.8884862,69.1261358 48.5390583,65.9280789 C48.7102087,65.5536723 49.0680686,65.4132698 49.4259284,65.3040678 C51.6197651,64.6644565 53.7824835,64.8516598 55.9296428,65.5068715 C56.0541158,65.538072 56.1474705,65.6472739 56.2252662,65.7564759 Z" id="Path" fill="#F28B7E"></path>
            <path d="M56.2252662,65.7564759 C54.093666,65.3196681 51.9465067,64.8828604 49.7682292,65.4912712 C49.3481328,65.6160734 48.9435956,65.7720762 48.5390583,65.9124787 C47.8233385,64.976462 47.8233385,64.9608617 48.9124773,64.6176556 C51.230787,63.8844426 53.5490966,63.8844426 55.8985245,64.5708548 C56.7387173,64.8360595 56.8787494,65.1480651 56.2252662,65.7564759 Z" id="Path" fill="#DDDBDB"></path>
        </g>
    </g>
</svg>