<?xml version="1.0" encoding="UTF-8"?>
<svg width="400px" height="409px" viewBox="0 0 400 409" version="1.1" xmlns="http://www.w3.org/2000/svg" xmlns:xlink="http://www.w3.org/1999/xlink">
    <title>R1</title>
    <g id="P-1" stroke="none" stroke-width="1" fill="none" fill-rule="evenodd">
        <g id="R1" fill="#41FFC8" fill-rule="nonzero">
            <path d="M321.582635,408.492569 L321.582635,357.12195 L348.564363,330.145507 L359.444979,330.145507 L359.444979,304.927203 L201.401291,304.927203 L201.401291,330.090566 L239.208683,330.090566 L239.208683,367.89055 L239.813161,367.89055 L239.813161,370.637642 L239.208683,370.637642 L239.208683,381.461184 L212.172002,408.492569 L160.791317,408.492569 L160.791317,357.12195 L187.773046,330.145507 L198.653661,330.145507 L198.653661,304.927203 L40.6099739,304.927203 L40.6099739,330.090566 L78.417365,330.090566 L78.417365,381.461184 L51.3806842,408.492569 L0,408.492569 L0,357.12195 L26.9817283,330.145507 L37.8623437,330.145507 L37.8623437,304.927203 L35.1147136,304.927203 C16.211018,304.927203 0.824289051,289.488547 0.824289051,270.588554 L0.824289051,34.338649 C0.824289051,15.3837148 16.211018,0 35.1696662,0 L364.885286,0 C383.843935,0 399.230664,15.3837148 399.230664,34.338649 C399.230664,46.9752719 399.230664,125.72524 399.230664,270.588554 C399.230664,289.543489 383.843935,304.927203 364.940239,304.927203 L362.192609,304.927203 L362.192609,330.090566 L400,330.090566 L400,381.461184 L372.963319,408.492569 L321.582635,408.492569 Z M324.44017,405.745477 L371.149883,405.745477 L371.149883,359.044914 L324.44017,359.044914 L324.44017,405.745477 Z M163.5939,405.745477 L210.303613,405.745477 L210.303613,359.044914 L163.5939,359.044914 L163.5939,405.745477 L163.5939,405.745477 Z M2.74763017,405.745477 L49.457343,405.745477 L49.457343,359.044914 L2.74763017,359.044914 L2.74763017,405.745477 L2.74763017,405.745477 Z M213.051243,358.275729 L213.051243,403.822513 L236.516005,380.197522 L236.516005,370.637642 L228.877593,370.637642 L228.877593,367.89055 L236.516005,367.89055 L236.516005,334.760622 L213.051243,358.220787 L213.051243,358.275729 Z M52.2049732,358.275729 L52.2049732,403.822513 L75.6697349,380.197522 L75.6697349,370.637642 L66.7124605,370.637642 L66.7124605,367.89055 L75.6697349,367.89055 L75.6697349,334.760622 L52.2049732,358.220787 L52.2049732,358.275729 Z M373.897513,358.275729 L373.897513,403.822513 L397.362275,380.197522 L397.362275,334.815564 L373.897513,358.275729 L373.897513,358.275729 Z M165.572194,356.352764 L211.127902,356.352764 L234.537711,332.947541 L227.943399,332.947541 C227.943399,332.947541 201.456244,332.947541 201.456244,332.947541 L201.456244,341.903061 L198.708614,341.903061 L198.708614,333.002483 L188.92705,333.002483 L165.517241,356.407706 L165.572194,356.352764 Z M4.72592389,356.352764 L50.2816321,356.352764 L73.6914411,332.947541 L40.5550213,332.947541 L40.5550213,341.848119 L37.8623437,341.848119 L37.8623437,332.947541 L28.0807803,332.947541 L4.67097129,356.352764 L4.72592389,356.352764 Z M326.572194,356.352764 L372.127902,356.352764 L395.537711,332.947541 L388.943399,332.947541 C388.943399,332.947541 362.456244,332.947541 362.456244,332.947541 L362.456244,341.903061 L359.708614,341.903061 L359.708614,333.002483 L349.92705,333.002483 L326.517241,356.407706 L326.572194,356.352764 Z M3.57191922,270.588554 C3.57191922,288.005117 17.7496909,302.180112 35.1696662,302.180112 L364.885286,302.180112 C382.305262,302.180112 396.483033,288.005117 396.483033,270.588554 L396.483033,72.5781686 L3.57191922,72.5781686 L3.57191922,270.588554 Z M35.1696662,2.74709192 C17.7496909,2.74709192 3.57191922,16.9220862 3.57191922,34.338649 L3.57191922,69.8310767 L396.483033,69.8310767 L396.483033,34.338649 C396.483033,16.9220862 382.305262,2.74709192 364.885286,2.74709192 L35.1696662,2.74709192 Z" id="Shape"></path>
            <rect id="Rectangle" x="132.484076" y="367.728238" width="11.0403397" height="2.5477707"></rect>
            <rect id="Rectangle" x="99.3630573" y="367.728238" width="11.0403397" height="2.5477707"></rect>
            <rect id="Rectangle" x="294.692144" y="367.728238" width="11.0403397" height="2.5477707"></rect>
            <rect id="Rectangle" x="261.571125" y="367.728238" width="11.0403397" height="2.5477707"></rect>
            <path d="M62.4682314,219.10828 C59.950097,219.10828 57.8698989,218.448426 56.3371214,217.183705 L56.2276373,217.07373 L42.2684135,201.897081 L42.5,202 L40.3524416,200.962287 L42.3778976,201.897081 C38.5459538,197.498053 41.3377986,190.074692 44.3486116,184.575906 C48.3447815,177.262521 55.1327962,169.124318 63.4535884,161.64597 C76.3179711,150.09852 90.2771949,142.675159 99.0359235,142.675159 C101.937252,142.675159 104.126935,143.499977 105.60497,145.149613 L119.180999,159.886358 L119.783162,160.601201 C122.082328,163.95546 121.206455,169.729185 117.155543,177.097558 C113.159373,184.410943 106.316617,192.549145 98.0505666,200.027494 C89.6750323,207.505842 80.8615616,213.389543 73.142932,216.523851 C68.9825359,218.228475 65.4243024,219.053292 62.4682314,219.053292 L62.4682314,219.10828 Z M106.261875,155.982221 C103.47003,164.560326 95.2587218,175.50291 84.310311,185.290748 C73.6903525,194.858635 62.0850371,201.732117 53.2715664,203.656692 L48.6184918,204.701462 L57.7604148,214.654264 C58.6910297,215.699033 60.2238072,216.248912 62.3587473,216.248912 C64.9316239,216.248912 68.2708892,215.424094 71.9386068,213.939422 C79.3835261,210.860102 87.9232866,205.196352 96.0251106,197.937955 C104.01745,190.789534 110.641239,182.871283 114.582667,175.722861 C117.921932,169.674197 118.962031,164.72529 117.374512,162.140861 L107.73991,151.583192 L106.207133,155.927233 L106.261875,155.982221 Z M44.6770639,190.019704 C42.815834,194.638684 42.6516079,198.157907 44.2938695,200.027494 C45.2792265,201.127251 46.812004,201.732117 48.83746,201.732117 C55.1875383,201.732117 68.4351153,195.958393 82.5585653,183.366173 C98.3242768,169.289282 108.068362,152.298034 103.47003,147.074188 C102.429931,145.919443 100.897153,145.369564 98.8716974,145.369564 C92.3026509,145.369564 79.3287841,151.088301 65.1505921,163.790496 C57.1582522,170.938918 50.5344637,178.857169 46.5930358,186.00559 L44.3486116,190.074692 L44.7318059,190.074692 L44.6770639,190.019704 Z" id="Shape"></path>
            <polygon id="Path" points="158.399151 167.303609 158.399151 164.567908 213.359925 164.567908 197.146497 149.79512 198.960202 147.770701 220.394904 167.303609"></polygon>
            <polygon id="Path" points="151.605096 189.384289 213.600849 189.384289 213.600849 192.127675 158.640075 192.127675 174.853503 206.941959 173.039798 208.917197"></polygon>
            <path d="M42.0382166,48.4076433 C35.2517103,48.4076433 29.7239915,42.8799245 29.7239915,36.0934183 C29.7239915,29.306912 35.2517103,23.7791932 42.0382166,23.7791932 C48.8247228,23.7791932 54.3524416,29.306912 54.3524416,36.0934183 C54.3524416,42.8799245 48.8247228,48.4076433 42.0382166,48.4076433 L42.0382166,48.4076433 Z M42.0382166,26.5156877 C36.7841472,26.5156877 32.460486,30.8393489 32.460486,36.0934183 C32.460486,41.3474876 36.7841472,45.6711489 42.0382166,45.6711489 C47.2922859,45.6711489 51.6159472,41.3474876 51.6159472,36.0934183 C51.6159472,30.8393489 47.2922859,26.5156877 42.0382166,26.5156877 L42.0382166,26.5156877 Z" id="Shape"></path>
            <circle id="Oval" cx="82.3779193" cy="36.5180467" r="13.5881104"></circle>
            <circle id="Oval" cx="122.292994" cy="36.5180467" r="13.5881104"></circle>
            <g id="Group" transform="translate(251.817410, 134.182590)">
                <path d="M6.87050451,80.1951496 C3.07798602,80.1951496 0,77.117063 0,73.3244205 L0,6.87072906 C0,3.07808662 3.07798602,0 6.87050451,0 L97.5062,0 C101.298718,0 104.376705,3.07808662 104.376705,6.87072906 L104.376705,73.3244205 C104.376705,77.117063 101.298718,80.1951496 97.5062,80.1951496 L6.87050451,80.1951496 L6.87050451,80.1951496 Z M6.87050451,1.64897497 C3.9574106,1.64897497 1.64892108,3.95753994 1.64892108,6.87072906 L1.64892108,73.3244205 C1.64892108,76.2376096 3.9574106,78.5461746 6.87050451,78.5461746 L97.5062,78.5461746 C100.419294,78.5461746 102.727783,76.2376096 102.727783,73.3244205 L102.727783,6.87072906 C102.727783,3.95753994 100.419294,1.64897497 97.5062,1.64897497 L6.87050451,1.64897497 L6.87050451,1.64897497 Z M89.9761271,68.1026664 C88.6569902,68.1026664 87.6126735,67.0583156 87.6126735,65.7391356 C87.6126735,64.4199557 88.6569902,63.3756048 89.9761271,63.3756048 C91.2952639,63.3756048 92.3395806,64.4199557 92.3395806,65.7391356 C92.3395806,67.0583156 91.2952639,68.1026664 89.9761271,68.1026664 Z M14.4555415,68.1026664 C13.1364046,68.1026664 12.0920879,67.0583156 12.0920879,65.7391356 C12.0920879,64.4199557 13.1364046,63.3756048 14.4555415,63.3756048 C15.7746784,63.3756048 16.818995,64.4199557 16.818995,65.7391356 C16.818995,67.0583156 15.7746784,68.1026664 14.4555415,68.1026664 Z M52.2158343,65.0795456 C38.4198612,65.0795456 27.2071979,53.8665158 27.2071979,40.0700919 C27.2071979,26.2736679 38.4198612,15.0606381 52.2158343,15.0606381 C62.7689292,15.0606381 72.2227434,21.7664697 75.7404417,31.7702512 L76.235118,33.1993628 L77.7741111,33.1993628 C81.6765576,33.1993628 84.7545436,36.2774494 84.7545436,40.0700919 C84.7545436,43.8627343 81.6765576,46.9408209 77.8840391,46.9408209 L76.3450461,46.9408209 L75.7404417,48.3699326 C72.2227434,58.3737141 62.7689292,65.0795456 52.2158343,65.0795456 Z M52.2158343,16.7096131 C39.3542498,16.7096131 28.911083,27.1531212 28.911083,40.015126 C28.911083,52.8771308 39.3542498,63.320639 52.2158343,63.320639 C61.2849002,63.320639 69.3646135,58.2088166 73.2670601,49.9639417 L74.7510891,46.8308893 L61.2849002,46.8308893 L60.6253318,47.5454451 C58.3718063,50.0189076 55.4037484,51.3930534 52.2158343,51.3930534 C45.8949701,51.3930534 40.7833148,46.2812309 40.7833148,39.9601602 C40.7833148,33.6390895 45.8949701,28.5272671 52.2158343,28.5272671 C55.4037484,28.5272671 58.3718063,29.9014129 60.6253318,32.3748753 L61.2849002,33.0894311 L74.8060531,33.0894311 L73.3220241,29.9563787 C69.4745416,21.8764013 61.2299362,16.5996814 52.2158343,16.5996814 L52.2158343,16.7096131 Z M52.2158343,30.2861737 C46.8293587,30.2861737 42.4871999,34.6284745 42.4871999,40.015126 C42.4871999,45.4017776 46.8293587,49.7440784 52.2158343,49.7440784 C55.4037484,49.7440784 58.3718063,48.2050351 60.2405835,45.5666751 C60.4054757,45.3468118 60.6253318,45.2368801 60.900152,45.2368801 L77.8840391,45.2368801 C80.797133,45.2368801 83.1056226,42.9283152 83.1056226,40.015126 C83.1056226,37.1019369 80.797133,34.793372 77.8840391,34.793372 L60.900152,34.793372 C60.900152,34.793372 60.3505116,34.6834403 60.2405835,34.4086111 C58.4267704,31.825217 55.4037484,30.2312079 52.2158343,30.2312079 L52.2158343,30.2861737 Z M89.9761271,16.7096131 C88.6569902,16.7096131 87.6126735,15.6652623 87.6126735,14.3460823 C87.6126735,13.0269023 88.6569902,11.9825515 89.9761271,11.9825515 C91.2952639,11.9825515 92.3395806,13.0269023 92.3395806,14.3460823 C92.3395806,15.6652623 91.2952639,16.7096131 89.9761271,16.7096131 Z M14.4555415,16.7096131 C13.1364046,16.7096131 12.0920879,15.6652623 12.0920879,14.3460823 C12.0920879,13.0269023 13.1364046,11.9825515 14.4555415,11.9825515 C15.7746784,11.9825515 16.818995,13.0269023 16.818995,14.3460823 C16.818995,15.6652623 15.7746784,16.7096131 14.4555415,16.7096131 Z" id="Shape"></path>
            </g>
        </g>
    </g>
</svg>
