<?xml version="1.0" encoding="UTF-8"?>
<svg width="402px" height="402px" viewBox="0 0 402 402" version="1.1" xmlns="http://www.w3.org/2000/svg" xmlns:xlink="http://www.w3.org/1999/xlink">
    <title>bg1</title>
    <g id="Page-1" stroke="none" stroke-width="1" fill="none" fill-rule="evenodd">
        <g id="bg1" transform="translate(0.857143, 1.000000)">
            <rect id="Rectangle" stroke="#41FFC8" stroke-width="0.5" x="0.142857143" y="0" width="397.142857" height="305.714286" rx="3"></rect>
            <circle id="Oval" fill="#41FFC8" cx="280.142857" cy="162.857143" r="2.85714286"></circle>
            <path d="M317.285714,165.714286 C328.012581,165.714286 337.013599,173.103523 339.47634,183.06957 L346.393862,183.189806 C347.730936,183.213145 348.213362,183.360825 348.697613,183.630779 C349.181864,183.900732 349.558793,184.291052 349.811681,184.78443 C350.06457,185.277807 350.195324,185.765093 350.171985,187.102167 L350.106767,190.838514 C350.083428,192.175588 349.935748,192.658014 349.665795,193.142265 C349.395841,193.626517 349.005521,194.003445 348.512143,194.256333 C348.018766,194.509222 347.53148,194.639976 346.194406,194.616637 L339.366968,194.498205 C336.756444,204.248649 327.85956,211.428571 317.285714,211.428571 C304.662063,211.428571 294.428571,201.19508 294.428571,188.571429 C294.428571,175.947777 304.662063,165.714286 317.285714,165.714286 Z" id="Combined-Shape" stroke="#41FFC8" stroke-width="0.5"></path>
            <circle id="Oval" fill="#41FFC8" cx="363" cy="162.857143" r="2.85714286"></circle>
            <circle id="Oval" fill="#41FFC8" cx="280.142857" cy="217.142857" r="2.85714286"></circle>
            <circle id="Oval" fill="#41FFC8" cx="363" cy="217.142857" r="2.85714286"></circle>
            <circle id="Oval" stroke="#41FFC8" stroke-width="0.5" cx="40.1428571" cy="37.1428571" r="11.4285714"></circle>
            <circle id="Oval" fill="#41FFC8" cx="80.1428571" cy="37.1428571" r="11.4285714"></circle>
            <circle id="Oval" fill="#41FFC8" cx="123" cy="37.1428571" r="11.4285714"></circle>
            <circle id="Oval" stroke="#41FFC8" stroke-width="0.5" cx="74.4285714" cy="188.571429" r="40"></circle>
            <path d="M65,177.142857 L83.8571429,177.142857 C84.9617124,177.142857 85.8571429,178.038288 85.8571429,179.142857 L85.8571429,198 C85.8571429,199.104569 84.9617124,200 83.8571429,200 L65,200 C63.8954305,200 63,199.104569 63,198 L63,179.142857 C63,178.038288 63.8954305,177.142857 65,177.142857 Z" id="Rectangle" stroke="#41FFC8" stroke-width="0.5" transform="translate(74.428571, 188.571429) rotate(-41.000000) translate(-74.428571, -188.571429) "></path>
            <circle id="Oval" stroke="#41FFC8" stroke-width="0.5" cx="74.4285714" cy="188.571429" r="28.5714286"></circle>
            <polyline id="Path-3" stroke="#41FFC8" stroke-width="0.5" points="153 177.142857 218.714286 177.142857 200.142857 158.571429"></polyline>
            <polyline id="Path-3" stroke="#41FFC8" stroke-width="0.5" points="0 70.1428571 65.7142857 70.1428571 397.142857 70.5"></polyline>
            <rect id="Rectangle" stroke="#41FFC8" stroke-width="0.5" x="265.857143" y="148.571429" width="111.428571" height="82.8571429" rx="4"></rect>
            <polyline id="Path-3" stroke="#41FFC8" stroke-width="0.5" transform="translate(185.857143, 205.000000) rotate(179.000000) translate(-185.857143, -205.000000) " points="153 214.285714 218.714286 214.285714 200.142857 195.714286"></polyline>
            <path d="M334.374115,165.714286 C336.380033,165.714286 337.107427,165.923143 337.84076,166.315334 C338.574093,166.707525 339.149618,167.28305 339.541809,168.016383 C339.934,168.749716 340.142857,169.47711 340.142857,171.483027 L340.142857,185.65983 C340.142857,187.665747 339.934,188.393141 339.541809,189.126474 C339.149618,189.859808 338.574093,190.435332 337.84076,190.827523 C337.107427,191.219714 336.380033,191.428571 334.374115,191.428571 L332.999571,191.428286 L333,207.582744 C333,208.920022 332.860762,209.404951 332.599301,209.89384 C332.33784,210.382729 331.954157,210.766412 331.465269,211.027872 C330.97638,211.289333 330.49145,211.428571 329.154172,211.428571 L325.417256,211.428571 C324.079978,211.428571 323.595049,211.289333 323.10616,211.027872 C322.617271,210.766412 322.233588,210.382729 321.972128,209.89384 C321.710667,209.404951 321.571429,208.920022 321.571429,207.582744 L321.570571,191.428286 L320.197313,191.428571 C318.191396,191.428571 317.464002,191.219714 316.730669,190.827523 C315.997335,190.435332 315.421811,189.859808 315.02962,189.126474 C314.637429,188.393141 314.428571,187.665747 314.428571,185.65983 L314.428571,171.483027 C314.428571,169.47711 314.637429,168.749716 315.02962,168.016383 C315.421811,167.28305 315.997335,166.707525 316.730669,166.315334 C317.464002,165.923143 318.191396,165.714286 320.197313,165.714286 L334.374115,165.714286 Z" id="Combined-Shape" stroke="#41FFC8" stroke-width="0.5" transform="translate(327.285714, 188.571429) rotate(-89.000000) translate(-327.285714, -188.571429) "></path>
            <g id="Group-13" transform="translate(0.142857, 334.285714)" stroke="#41FFC8" stroke-width="0.5">
                <g id="Group-14">
                    <rect id="Rectangle" x="0" y="17.1428571" width="48.5714286" height="48.5714286"></rect>
                    <polygon id="Rectangle" points="16.2561576 2.37904934e-16 62.8571429 0 48.7684729 17.1428571 0 17.1428571"></polygon>
                    <polygon id="Rectangle" points="48.5714286 16.2391151 52.0521225 12.2824779 62.8571429 0 62.8571429 48.7173453 48.5714286 65.7142857 48.5714286 46.6475485"></polygon>
                </g>
            </g>
            <rect id="Rectangle" fill="#41FFC8" x="34.4285714" y="305.714286" width="1" height="37.1428571"></rect>
            <rect id="Rectangle" fill="#41FFC8" x="205.857143" y="305.714286" width="1" height="37.1428571"></rect>
            <rect id="Rectangle" fill="#41FFC8" x="374.428571" y="305.714286" width="1" height="37.1428571"></rect>
            <rect id="Rectangle" fill="#41FFC8" x="54.4285714" y="368.571429" width="8.57142857" height="1.42857143"></rect>
            <rect id="Rectangle" fill="#41FFC8" x="94.4285714" y="368.571429" width="8.57142857" height="1.42857143"></rect>
            <rect id="Rectangle" fill="#41FFC8" x="134.428571" y="368.571429" width="8.57142857" height="1.42857143"></rect>
            <g id="Group-13" transform="translate(171.571429, 334.285714)" stroke="#41FFC8" stroke-width="0.5">
                <g id="Group-14">
                    <rect id="Rectangle" x="0" y="17.1428571" width="48.5714286" height="48.5714286"></rect>
                    <polygon id="Rectangle" points="16.2561576 2.37904934e-16 62.8571429 0 48.7684729 17.1428571 0 17.1428571"></polygon>
                    <polygon id="Rectangle" points="48.5714286 16.2391151 52.0521225 12.2824779 62.8571429 0 62.8571429 48.7173453 48.5714286 65.7142857 48.5714286 46.6475485"></polygon>
                </g>
            </g>
            <rect id="Rectangle" fill="#41FFC8" x="225.857143" y="368.571429" width="8.57142857" height="1.42857143"></rect>
            <rect id="Rectangle" fill="#41FFC8" x="265.857143" y="368.571429" width="8.57142857" height="1.42857143"></rect>
            <rect id="Rectangle" fill="#41FFC8" x="303" y="368.571429" width="8.57142857" height="1.42857143"></rect>
            <g id="Group-13" transform="translate(337.285714, 334.285714)" stroke="#41FFC8" stroke-width="0.5">
                <g id="Group-14">
                    <rect id="Rectangle" x="0" y="17.1428571" width="48.5714286" height="48.5714286"></rect>
                    <polygon id="Rectangle" points="16.2561576 2.37904934e-16 62.8571429 0 48.7684729 17.1428571 0 17.1428571"></polygon>
                    <polygon id="Rectangle" points="48.5714286 16.2391151 52.0521225 12.2824779 62.8571429 0 62.8571429 48.7173453 48.5714286 65.7142857 48.5714286 46.6475485"></polygon>
                </g>
            </g>
        </g>
    </g>
</svg>