<?xml version="1.0" encoding="UTF-8"?>
<svg width="100px" height="100px" viewBox="0 0 100 100" version="1.1" xmlns="http://www.w3.org/2000/svg" xmlns:xlink="http://www.w3.org/1999/xlink">
    <title>biswap</title>
    <defs>
        <linearGradient x1="59.0719643%" y1="13.6104545%" x2="44.8702028%" y2="93.5922727%" id="linearGradient-1">
            <stop stop-color="#FF496A" offset="0%"></stop>
            <stop stop-color="#E42648" offset="100%"></stop>
        </linearGradient>
        <linearGradient x1="32.2653527%" y1="85.109743%" x2="61.5678423%" y2="4.46570626%" id="linearGradient-2">
            <stop stop-color="#1158F1" offset="0.181229%"></stop>
            <stop stop-color="#119BED" offset="100%"></stop>
        </linearGradient>
    </defs>
    <g id="Page-1" stroke="none" stroke-width="1" fill="none" fill-rule="evenodd">
        <g id="biswap" fill-rule="nonzero">
            <path d="M49.907919,100 C77.5322284,100 99.8158379,77.6752768 99.8158379,50 C99.8158379,22.3247232 77.3480663,0 49.907919,0 C22.2836096,0 0,22.3247232 0,50 C0,77.4907749 22.2836096,100 49.907919,100 Z" id="Path" fill="#FFFFFF"></path>
            <path d="M88.3977901,18.8191882 C84.8987109,19.5571956 81.5837937,20.4797048 79.0055249,21.0332103 C72.7440147,22.5092251 67.0349908,27.1217712 65.7458564,35.7933579 C64.640884,43.5424354 67.2191529,46.8634686 66.1141805,55.904059 C64.0883978,71.7712177 48.9871087,77.1217712 41.9889503,80.4428044 C37.9373849,82.2878229 27.9926335,86.7158672 20.441989,90.0369004 C28.7292818,96.1254613 38.8581952,99.8154982 50.092081,99.8154982 C77.7163904,99.8154982 100,77.4907749 100,49.8154982 C100,38.0073801 95.9484346,27.3062731 89.1344383,18.6346863 C88.7661142,18.8191882 88.5819521,18.8191882 88.3977901,18.8191882 Z" id="Path" fill="url(#linearGradient-1)"></path>
            <path d="M44.198895,42.6199262 C48.0662983,34.3173432 46.5930018,34.3173432 49.5395948,26.3837638 C53.2228361,16.4206642 64.640884,19.3726937 67.771639,19.7416974 C72.9281768,20.4797048 74.4014733,18.6346863 85.267035,16.7896679 C85.8195212,16.7896679 86.3720074,16.6051661 86.9244936,16.6051661 C77.7163904,6.45756458 64.4567219,0 49.7237569,0 C30.0184162,0 12.8913444,11.6236162 4.78821363,28.4132841 C21.3627993,32.4723247 39.0423573,41.3284133 44.198895,42.6199262 Z M33.3333333,8.67158672 C34.8066298,8.85608856 41.8047882,17.7121771 43.0939227,40.2214022 C43.0939227,40.2214022 34.0699816,38.0073801 32.0441989,33.3948339 C30.5709024,29.5202952 32.5966851,24.3542435 33.3333333,8.67158672 Z M88.7661142,18.8191882 C88.7661142,18.8191882 88.7661142,18.8191882 88.7661142,18.8191882 C88.7661142,18.8191882 88.5819521,18.8191882 88.3977901,18.8191882 C88.5819521,18.8191882 88.7661142,18.8191882 88.7661142,18.8191882 Z M0,50 C0,45.9409594 0.552486188,42.0664207 1.28913444,38.3763838 C3.13075506,39.8523985 4.97237569,41.5129151 6.99815838,43.5424354 C20.0736648,55.5350554 41.06814,65.1291513 48.8029466,56.2730627 C48.8029466,56.2730627 48.8029466,56.2730627 48.8029466,56.2730627 C47.3296501,58.1180812 41.9889503,64.0221402 31.8600368,62.1771218 L15.8379374,86.3468635 C6.07734807,77.3062731 0,64.3911439 0,50 Z" id="Shape" fill="url(#linearGradient-2)"></path>
        </g>
    </g>
</svg>