<?xml version="1.0" encoding="UTF-8"?>
<svg width="100px" height="100px" viewBox="0 0 100 100" version="1.1" xmlns="http://www.w3.org/2000/svg" xmlns:xlink="http://www.w3.org/1999/xlink">
    <title>camelot</title>
    <g id="Page-1" stroke="none" stroke-width="1" fill="none" fill-rule="evenodd">
        <g id="camelot" fill="#FFAF1D" fill-rule="nonzero">
            <path d="M58.6669519,100 L58.6669519,58.9 C68.4861576,59.95 75.1491901,64.45 75.1491901,64.45 L81.4114386,57.4 C71.141351,50.1 55.9115625,49.8 55.9115625,49.8 L53.4066631,22.2 C55.0598967,21.1 56.1620524,19.25 56.1620524,17.1 C56.1620524,13.75 53.4066631,11 50.0500978,11 C46.6935326,11 43.9381432,13.75 43.9381432,17.1 C43.9381432,19.25 45.040299,21.15 46.6935326,22.2 L44.1886332,49.8 C44.1886332,49.8 28.9588447,50.05 18.688757,57.4 L24.9510056,64.45 C24.9510056,64.45 31.6140381,59.95 41.4332438,58.9 L41.4332438,100 C3.05818461,71.6 -0.0979886632,30.35 0.00220731381,16.65 C0.00220731381,13.8 1.70553892,11.2 4.31063433,10.05 C11.9756266,6.65 29.4598246,0 50,0 C70.5401751,0 88.0243731,6.65 95.6893654,10.05 C98.2944608,11.2 99.9977924,13.8 99.9977924,16.65 C100.097988,30.35 96.9418151,71.6 58.6669519,100 Z" id="Path"></path>
        </g>
    </g>
</svg>