<?xml version="1.0" encoding="UTF-8"?>
<svg width="100px" height="101px" viewBox="0 0 100 101" version="1.1" xmlns="http://www.w3.org/2000/svg" xmlns:xlink="http://www.w3.org/1999/xlink">
    <title>cubiswap</title>
    <g id="Page-1" stroke="none" stroke-width="1" fill="none" fill-rule="evenodd">
        <g id="cubiswap" fill-rule="nonzero">
            <g>
                <path d="M84.1347364,85.0387298 L82.250368,85.2415059 C60.5077162,87.5608058 38.5744249,87.5380809 16.8365683,85.1739139 L15.8065691,85.0581528 C8.69401912,84.2858945 3.11428493,79.4064496 2.22584239,73.2192545 L1.96226083,71.3321162 C-0.694351573,52.4545186 -0.65327051,33.3015028 2.08430521,14.4351511 L2.18679832,13.7015445 C3.08015305,7.53839503 8.66959465,2.68313176 15.7577202,1.91092008 L16.8365683,1.79026443 C38.5744249,-0.573943353 60.5077162,-0.596606104 82.250368,1.72268795 L84.2323953,1.93507452 C91.3303062,2.69280441 96.924543,7.53839503 97.8373905,13.7015445 C100.629733,32.5785789 100.718425,51.7502408 98.1009331,70.6517287 L97.7545462,73.1708912 C96.8806842,79.3775094 91.2618865,84.276183 84.1347364,85.0387298 Z" id="Path" fill="#42CEFF"></path>
                <path d="M85.9992221,8.45203331 C85.9992221,8.45203331 85.872324,14.5427739 91.5739661,15.7734731 C88.4303633,16.7821676 87.3075784,17.2647902 85.9992221,22.1682419 C85.3255511,18.5534088 84.398084,16.7821676 80.1412478,15.850699 C80.1656137,15.850699 85.3255511,14.5428127 85.9992221,8.45203331 Z" id="Path" fill="#FFFFFF"></path>
                <path d="M90.2548888,64.6952787 C90.2548888,64.6952787 90.1621031,69.2367635 94.4140661,70.1537231 C92.0708374,70.9067526 91.2312828,71.268603 90.2548888,74.9222627 C89.7667892,72.2290702 89.0636842,70.9067526 85.9052668,70.2117979 C85.9052668,70.2117979 89.7568479,69.2367635 90.2548888,64.6952787 Z" id="Path" fill="#FFFFFF"></path>
                <path d="M63.6250038,6.77528497 C63.6250038,6.77528497 63.5762718,8.91814635 65.5775969,9.3525028 C64.4743048,9.70481651 64.0789909,9.87375773 63.6250038,11.5967328 C63.3858272,10.3274206 63.0587381,9.70479709 61.5698785,9.37660674 C62.1361442,9.19566211 62.6345749,8.85115644 63.0008445,8.3874907 C63.3671141,7.92380553 63.5846537,7.36228673 63.6250038,6.77528497 Z" id="Path" fill="#FFFFFF"></path>
                <path d="M8.86345048,56.6263837 C8.86345048,56.6263837 8.78046966,60.6756898 12.5734944,61.4961171 C10.4841398,62.1669874 9.73727343,62.46144 8.86345048,65.7480051 C8.41922921,63.3348921 7.80411462,62.1669874 4.98740595,61.5491419 C6.05701451,61.2053549 6.99795115,60.5527423 7.68881474,59.6752113 C8.37967833,58.7978746 8.78881257,57.7358252 8.86345048,56.6263837 Z" id="Path" fill="#FFFFFF"></path>
                <path d="M15.1178303,70.4538084 C15.1178303,70.4538084 15.0153177,75.2174922 19.4820133,76.1826209 C17.0412037,76.9694464 16.1381026,77.3507198 15.1178303,81.1826826 C14.5906087,78.3545002 13.8681473,76.9694464 10.5535147,76.2405014 C10.5535147,76.2453571 14.5906087,75.2126365 15.1178303,70.4538084 Z" id="Path" fill="#FFFFFF"></path>
                <path d="M17.2514919,4.91265855 C17.2514919,4.91265855 17.1489793,9.97547595 21.8889835,10.9986405 C19.2725048,11.8335962 18.340106,12.238993 17.2514919,16.3075473 C16.6949922,13.3056068 15.9236623,11.833538 12.404024,11.0613379 C12.3698532,11.0613379 16.6705872,9.97541768 17.2514919,4.91265855 Z" id="Path" fill="#FFFFFF"></path>
                <path d="M23.4365164,22.9055388 C15.0352198,24.1216125 7.76647403,32.0755234 8.94296159,35.724133 C10.1389614,39.4595635 21.6351873,34.8504867 21.6351873,34.8504867 C21.6351873,34.8504867 10.5978218,41.6700946 11.0762139,47.6498522 C11.5009229,52.9587395 23.8661375,46.9403302 23.8661375,46.9403302 C23.8661375,46.9403302 13.0630754,54.1217885 14.2151385,59.0398852 C15.2988598,63.6586735 24.7351263,58.3641591 24.7351263,58.3641591 L23.4365164,22.9055388 Z" id="Path" fill="#FF440A"></path>
                <path d="M17.0139528,61.628582 C16.4038673,61.642955 15.7973101,61.5328266 15.2321555,61.3051891 C14.7959847,61.1179514 14.4125225,60.8285488 14.1148481,60.4618426 C13.8171541,60.0953307 13.6142146,59.6623922 13.5235926,59.2009018 C12.7669409,55.9819288 16.2621937,52.1594833 19.3327375,49.514654 C16.657605,50.3832503 13.5382512,51.0108073 11.7808784,50.0213999 C11.3654285,49.785799 11.0174821,49.4493927 10.7698067,49.044229 C10.5221313,48.6388711 10.3828942,48.1779634 10.3651948,47.7048193 C10.0478716,43.7569012 14.1874782,39.6110629 17.4532813,36.9856566 C14.7488707,37.7336361 11.4928139,38.3079741 9.67197257,37.4681238 C9.3429927,37.3267244 9.04830064,37.1175387 8.80756464,36.8545514 C8.56680915,36.591564 8.38552617,36.2807961 8.27584022,35.9430302 C7.85602392,34.6496529 8.27584022,32.9750023 9.44254239,31.1168043 C11.7417954,27.4777119 17.0725481,23.1438589 23.3357386,22.2364166 C23.4333975,22.2235974 23.5328108,22.2305897 23.6275457,22.2571992 C23.7224756,22.2838087 23.8109729,22.3292585 23.8873847,22.3908294 C23.9639913,22.4533715 24.0263683,22.5312577 24.0700321,22.6196323 C24.1138909,22.7078127 24.138062,22.804345 24.1411808,22.9024311 L25.4298494,58.3610515 C25.4349176,58.4886605 25.4043139,58.6152985 25.3415471,58.7267865 C25.2785853,58.8382745 25.1859946,58.9305337 25.0735212,58.9934642 C24.5072555,59.2877226 20.2309265,61.628582 17.0139528,61.628582 Z M23.64314,47.9363414 C20.4506102,50.1758128 14.0898778,55.4703271 14.895359,58.8823647 C14.9353387,59.1325328 15.038631,59.3685222 15.1956845,59.5683849 C15.3527379,59.7684417 15.5584064,59.9259622 15.7935479,60.0261849 C17.7461996,60.8852639 22.0811824,58.9837527 24.0045364,57.965405 L23.64314,47.9363414 Z M21.6271953,34.1574742 C21.7566274,34.1578627 21.8835255,34.193601 21.9938547,34.2609988 C22.1041839,34.3282024 22.1934609,34.4243462 22.2519393,34.5385534 C22.3324445,34.6937431 22.3511576,34.8732116 22.303985,35.0412205 C22.2570074,35.2094237 22.1478478,35.3537365 21.9981431,35.4459957 C21.8907378,35.508732 11.3317255,42.1063351 11.7466686,47.5937197 C11.7450702,47.8403918 11.8092404,48.082985 11.9326493,48.2974149 C12.0560387,48.5118447 12.2343588,48.6901478 12.4496567,48.8148435 C14.7049729,50.0841362 21.2073205,47.4441627 23.5211151,46.3195713 L23.5602956,46.3195713 L22.7400388,23.7471372 C17.4777058,24.7895693 12.708365,28.5347113 10.6092641,31.8552666 C9.68175796,33.3030567 9.31077111,34.6642202 9.59390393,35.5328165 C9.64419534,35.6882005 9.72900849,35.8303768 9.84222263,35.9490513 C9.95543678,36.0675316 10.0941085,36.1595966 10.2480236,36.218254 C12.5765742,37.299338 19.0349461,35.1466874 21.3342186,34.2297278 C21.4318775,34.1836953 21.538503,34.1590281 21.6466881,34.1574742 L21.6271953,34.1574742 Z" id="Shape" fill="#860010"></path>
                <path d="M55.6282801,78.0085767 C55.8772031,79.6494313 62.7700498,79.1667699 62.6823323,76.8404777 C62.5944198,74.5143798 55.2670787,75.6582 55.6282801,78.0085767 Z" id="Path" fill="#64BE06"></path>
                <path d="M62.5529001,74.7142424 C62.6211249,76.0606445 66.0384065,75.2932419 66.2629635,74.231581 C66.4875205,73.1697258 62.4893536,73.3484174 62.5529001,74.7142424 Z" id="Path" fill="#64BE06"></path>
                <path d="M19.6913659,46.2700426 C20.1209871,51.2555371 18.8223967,75.6282886 18.3049605,84.8802382 C18.3049605,84.8802382 29.3325016,94.0886803 50.7774985,95.0153514 C57.0797135,95.2857195 69.9038275,91.0722891 77.9974303,85.5316855 C78.3636999,85.2807404 78.7200282,85.0492183 79.0617368,84.7739944 C79.5498364,84.4024325 80.037936,84.0306764 80.4870499,83.649403 C80.4870499,83.649403 78.1293965,64.3444994 72.4226863,49.6677072 L19.6913659,46.2700426 Z" id="Path" fill="#8EE800"></path>
                <path d="M72.5739504,50.8000678 C75.1514825,57.5569395 79.0469223,71.4179659 80.7213533,84.1013761 C80.6531285,84.0337841 80.9997104,84.1689681 80.5114159,84.0337841 C79.2568597,70.5588868 73.7600869,56.0027114 72.7838878,51.2151372 C72.8521125,50.529894 72.5055307,50.4623019 72.5739504,50.8000678 Z" id="Path" fill="#65BF06"></path>
                <path d="M50.7663876,95.0035034 C50.0291701,81.9726158 47.1491099,60.5148674 44.8791741,51.3740173 L70.9420137,46.7744578 C70.9420137,46.7744578 77.4639126,58.0295009 80.475939,85.0952508 C80.475939,85.0952508 70.2342304,95.1532547 50.7663876,95.0035034 Z" id="Path" fill="#F4FF83"></path>
                <path d="M48.2522071,69.9723123 C48.0658559,69.9713412 47.887107,69.8996703 47.7528017,69.7722555 C47.6183014,69.6446464 47.5385759,69.4710048 47.5298041,69.2870691 C47.5204476,69.0971122 47.5876977,68.9112341 47.71674,68.7700289 C47.8455874,68.629018 48.0258957,68.5441395 48.2180947,68.5342338 C58.6305602,68.0226321 70.6735979,64.4365644 75.3549872,61.4058002 C75.5165825,61.3036353 75.7122901,61.2686739 75.8996159,61.308491 C76.0869416,61.3483082 76.250876,61.4594077 76.3557472,61.6180936 C76.4532112,61.7746429 76.4857642,61.9624633 76.4465837,62.1423202 C76.4075981,62.3221771 76.2998029,62.4800861 76.1458099,62.5834164 C71.2885956,65.7155687 58.9381565,69.4222531 48.2913876,69.9433721 L48.2522071,69.9723123 Z" id="Path" fill="#FFB600"></path>
                <path d="M49.729371,81.5940616 C49.5439945,81.5930905 49.3658304,81.5220023 49.231525,81.3955586 C49.0972197,81.2691149 49.0169093,81.0966387 49.006968,80.9134799 C48.9976115,80.723523 49.0648616,80.5376449 49.1939039,80.396634 C49.3229462,80.2554288 49.5032545,80.1705503 49.6952586,80.1606446 C59.8198155,79.6779831 72.7657595,75.0158815 77.5888614,71.9029581 C77.7510414,71.8005989 77.9475288,71.7654433 78.1358292,71.8052604 C78.3239346,71.8448833 78.4886487,71.9561771 78.5944946,72.1152514 C78.6997557,72.2747142 78.736792,72.4687499 78.6974165,72.6552107 C78.6580411,72.8416714 78.5455677,73.0050188 78.3845572,73.1095145 C73.4199376,76.3092588 60.1371582,81.0824599 49.7685515,81.5940616 L49.729371,81.5940616 Z" id="Path" fill="#FFB600"></path>
                <path d="M80.8566333,85.9319939 C80.6891902,85.9319939 80.5274,85.8719763 80.4016715,85.7626249 C80.275943,85.6534676 80.194658,85.502551 80.1732159,85.3382324 C78.4890386,72.1045688 74.8035361,58.2724826 72.0747399,51.0185765 C72.0113883,50.8495965 72.0186007,50.6627472 72.0946226,50.4990114 C72.1706445,50.3352755 72.3090433,50.2080549 72.4798002,50.1451244 C72.5643989,50.1134649 72.6544556,50.0987035 72.7449022,50.1018111 C72.8351538,50.1049188 72.9240409,50.1257014 73.0063005,50.1629936 C73.0883652,50.2002857 73.1622429,50.2533105 73.2236452,50.3189602 C73.2848525,50.38461 73.332415,50.4617192 73.3634085,50.5456266 C76.1116975,57.8719804 79.8461269,71.8295391 81.5400506,85.1645909 C81.5517463,85.2533539 81.5457035,85.3434766 81.5219223,85.429909 C81.498336,85.5161471 81.4575961,85.597141 81.4024315,85.6680349 C81.347072,85.7387346 81.2780675,85.798169 81.1995115,85.8426476 C81.1209556,85.8871263 81.0344076,85.9158723 80.9445458,85.9271377 L80.8566333,85.9319939 Z" id="Path" fill="#005313"></path>
                <path d="M18.2934207,85.5705319 L18.2641231,85.5705319 C18.0810857,85.5617911 17.9089839,85.4817684 17.785497,85.3479439 C17.6619907,85.2141195 17.5971187,85.0373702 17.6050912,84.8563479 C17.6050912,84.4750745 17.6880915,83.1960703 17.7857309,81.3332108 C18.2104399,73.1767181 19.1965024,54.0743964 19.1720974,50.2519509 C19.1720974,50.0709286 19.2444546,49.8974812 19.3733995,49.7690952 C19.5022858,49.6407092 19.6773311,49.567873 19.8603684,49.5665134 C20.0434058,49.5665134 20.2190358,49.6381842 20.3488579,49.7655991 C20.4786799,49.8930139 20.5523626,50.0662671 20.5535322,50.2470951 C20.5535322,54.1081924 19.5773331,73.2345986 19.1623315,81.4054643 C19.0646921,83.2588065 19.0012431,84.5378108 18.9817113,84.9190842 C18.9741481,85.0944738 18.8983211,85.2603462 18.770039,85.3817399 C18.6417765,85.5031337 18.4710001,85.5705319 18.2934207,85.5705319 Z" id="Path" fill="#005313"></path>
                <path d="M69.4547135,8.3048847 C77.5290185,9.21704683 82.2739543,16.0269238 82.1470562,23.6282684 C81.990724,32.0646465 75.8007874,39.6273782 65.1783845,38.1071403 C58.2026934,37.1418175 54.8099727,31.3937762 54.4388299,24.497059 C53.9458571,15.6891191 58.7787054,7.0934919 69.4547135,8.3048847 Z" id="Path" fill="#64BE06"></path>
                <path d="M65.9495194,7.93105031 C55.6980643,8.31716003 50.8162891,15.1415266 51.2654031,22.1154113 C51.7536976,28.872283 57.1674311,34.5142747 66.4473654,34.3114986 C76.3814777,34.0894938 81.2289456,28.0372884 81.0287546,21.280611 C80.8139441,14.1521386 75.1756535,7.57390027 65.9495194,7.93105031 Z" id="Path" fill="#FFEC00"></path>
                <path d="M65.9943528,35.0241283 C57.3929627,35.0241283 51.0761281,29.7874945 50.5537212,22.1620265 C50.4131782,20.3587956 50.643583,18.5461057 51.2309008,16.83325 C51.8180238,15.1203749 52.7501692,13.5428781 53.9710028,12.1958545 C56.7582774,9.13115834 60.897962,7.40814442 65.9407476,7.21509927 C70.3634676,7.04134116 74.2394146,8.38787916 77.1684018,11.0761188 C78.5697387,12.3897154 79.6954476,13.9635802 80.4812021,15.7076292 C81.2669566,17.4516782 81.6971625,19.3317271 81.7474539,21.2402112 C81.8225012,22.9284579 81.5562296,24.6143739 80.9646234,26.1996788 C80.3728221,27.7849837 79.467187,29.2378237 78.3009331,30.472932 C75.5623905,33.3253931 71.4667597,34.8889442 66.4629596,35.0000438 L65.9943528,35.0241283 Z M65.9943528,8.63888253 C61.3470759,8.81745755 57.5588464,10.3763277 55.0351144,13.1466101 C53.9480013,14.3546039 53.1191678,15.7673549 52.5981254,17.3000235 C52.0772779,18.8327115 51.8749427,20.4535798 52.0035952,22.0654942 C52.4039772,27.9535753 57.0415077,33.7596913 66.4434668,33.595567 C71.0615045,33.4941789 74.8056803,32.0801849 77.2709339,29.5078034 C78.3048317,28.4086561 79.1069601,27.1172211 79.6307315,25.7086655 C80.1546978,24.2999156 80.3895859,22.8024027 80.321946,21.3029474 C80.2313045,17.826542 78.747513,14.5280318 76.1970759,12.1330988 C73.5559973,9.69582367 70.0266321,8.48443087 65.9943528,8.63888253 Z" id="Shape" fill="#000000"></path>
                <path d="M63.5331927,8.10764418 C70.7921141,7.73600459 75.7372409,13.8991929 76.7380009,20.8682608 C77.738761,27.8374258 74.9610379,34.0729842 66.0863588,34.2709045 C62.6008524,34.2709045 51.8710442,33.0692038 51.4706622,20.6608232 C51.2704712,14.5314114 56.9625619,8.86053775 63.5331927,8.10764418 Z" id="Path" fill="#000000"></path>
                <path d="M55.9177481,23.9532152 C55.5200951,23.9526325 55.1331632,23.8254118 54.8142611,23.5907821 C54.4951641,23.3561523 54.2608607,23.026544 54.1456583,22.6501264 C53.140025,19.3586473 54.4678741,15.8548167 54.6339527,15.46389 C54.7222551,15.2396127 54.8546112,15.0347972 55.0234188,14.861311 C55.1922263,14.6878442 55.3939768,14.5491058 55.6173642,14.4530979 C55.8405567,14.3570901 56.0807079,14.3057162 56.3241729,14.3019288 C56.5676379,14.2981413 56.8093485,14.3420567 57.0356598,14.4310722 C57.2617762,14.5180096 57.4683999,14.6481631 57.6434451,14.8141326 C57.8186854,14.9801021 57.9590335,15.1786051 58.0564974,15.3982597 C58.1539614,15.6179338 58.2067869,15.8544476 58.2116601,16.0942828 C58.2165333,16.3340985 58.1736491,16.5724963 58.0851518,16.7958996 C57.7972433,17.53914 57.1723043,19.8365113 57.7093308,21.5933212 C57.8506535,22.058502 57.7993875,22.5601979 57.5668385,22.9882807 C57.3344844,23.4161693 56.9397553,23.7354834 56.4693942,23.8761059 C56.2906453,23.9295191 56.1044891,23.9555459 55.9177481,23.9532152 Z" id="Path" fill="#FFFFFF"></path>
                <path d="M62.6536779,32.3631779 C62.5406197,32.3616241 62.4279513,32.3503587 62.3168424,32.3295761 C61.1889894,32.1069886 60.1198096,31.6569578 59.1757736,31.0076471 C58.2315427,30.3583363 57.4331179,29.523536 56.8300109,28.5552997 C56.7068164,28.3480563 56.6261162,28.118865 56.5925886,27.8809333 C56.5588661,27.6428074 56.5730958,27.4004084 56.6343032,27.1679151 C56.6955106,26.9352276 56.802526,26.7169132 56.9491118,26.525014 C57.0958926,26.333309 57.2793198,26.1720981 57.4890622,26.0505102 C57.9126406,25.8057805 58.4171141,25.7368288 58.8917636,25.8589995 C59.3666081,25.9811701 59.7732278,26.2841688 60.0225406,26.7019575 C60.3556724,27.2184149 60.7897769,27.6637842 61.2995135,28.0118443 C61.8092501,28.3599043 62.3840925,28.6038572 62.9905133,28.7291355 C63.4704259,28.8225601 63.8936145,29.0997262 64.1678781,29.5000342 C64.4421417,29.9005363 64.5454535,30.3917439 64.4550069,30.8670246 C64.3760611,31.2840363 64.1534534,31.6608424 63.8249998,31.9337355 C63.4965463,32.2064343 63.0827143,32.3583222 62.6536779,32.3631779 Z" id="Path" fill="#FFFFFF"></path>
                <path d="M68.9987771,25.9902989 C68.7822122,25.9902989 68.5670117,25.9594163 68.3594135,25.8986224 C67.7781384,25.7306135 67.2882845,25.3413766 66.9972571,24.8165673 C66.7062296,24.2915637 66.6378099,23.6741067 66.8070074,23.0993803 C67.2366286,21.651396 66.5824504,15.9805805 63.7168148,14.0645409 C63.2154602,13.7284842 62.8690732,13.2095989 62.7538708,12.6216066 C62.6384735,12.0336142 62.7636172,11.4244314 63.1018172,10.9274552 C63.4433309,10.4334896 63.9684668,10.0929268 64.5628021,9.97994324 C65.1569424,9.86694025 65.7723299,9.99066474 66.2748541,10.324177 C71.2687129,13.663961 71.9864376,21.6803362 71.1907417,24.3638173 C71.0523429,24.8328826 70.7640445,25.2448443 70.3687306,25.5379373 C69.9736117,25.8312246 69.4929194,25.9899104 68.9987771,25.9902989 Z" id="Path" fill="#FFFFFF"></path>
                <path d="M25.9655114,51.377125 C28.406399,52.1975523 59.7855082,64.1570675 67.3617723,63.0181031 C74.9380364,61.8791386 91.7698687,54.2777551 93.3661335,51.9660302 C94.0544241,50.9669114 94.6304361,47.0384163 94.952652,42.3568917 C95.3676536,36.2370943 95.353034,28.8433427 94.5817042,25.0160415 C94.2010099,23.1289032 55.6750628,13.6018657 50.5981648,13.4329439 C45.5212667,13.2640221 22.2846872,18.8190571 20.6591831,20.7157903 C19.0336206,22.6124458 19.9465266,47.1782619 19.8732337,48.9591563 C21.1864632,49.7506434 23.1488027,50.4360809 25.9655114,51.377125 Z" id="Path" fill="#8EE800"></path>
                <path d="M75.9842146,36.8862109 C73.7337716,37.2482555 74.4807354,42.6777596 76.2087716,42.2529787 C78.1418719,41.7703173 77.8929489,36.5820467 75.9842146,36.8862109 Z" id="Path" fill="#005313"></path>
                <path d="M88.5250983,33.0589096 C86.2746553,33.4209542 87.0216191,38.8504584 88.7496552,38.4256775 C90.6973752,37.943016 90.4484522,32.750084 88.5250983,33.0589096 Z" id="Path" fill="#005313"></path>
                <path d="M93.3692524,52.6497197 C93.3158421,52.656712 93.2616522,52.656712 93.2082419,52.6497197 C93.029493,52.6071833 92.875305,52.4964722 92.7792055,52.3418652 C92.6831061,52.1870639 92.6530872,52.0009916 92.6955815,51.8244366 C94.5945694,44.0589288 94.2382411,26.3946857 93.9403912,25.2798057 C92.6222885,22.9775981 59.3590059,14.3482914 50.5817908,14.1214503 C45.885587,14.0007946 23.6205283,18.0789633 21.2090748,21.1436789 C20.6769216,21.8145491 19.8324938,24.8357961 20.1252755,37.5048333 C20.2034416,40.7770253 20.3303397,43.933262 20.4328718,46.3560865 C20.4962234,47.9149761 20.5500235,49.1747516 20.5646431,49.9662386 C20.5685416,50.1472609 20.499927,50.3222621 20.3738086,50.4535616 C20.2474953,50.5846668 20.0740095,50.6609992 19.8909721,50.6660492 C19.7991611,50.6720703 19.7069602,50.6592511 19.6206071,50.6279801 C19.5340591,50.5967091 19.4553082,50.5479573 19.3889937,50.4848326 C19.3227767,50.4215136 19.2706725,50.3453755 19.2360533,50.2610797 C19.2014535,50.1765897 19.1850991,50.0860785 19.188023,49.9951789 C19.188023,49.2085476 19.1196813,47.9584836 19.0513395,46.4093055 C18.9537001,43.9961925 18.8218899,40.8156771 18.7486749,37.5337735 C18.4313712,24.0491648 19.3784091,21.2450669 20.1204023,20.3038286 C23.0493895,16.5972995 45.9929923,12.5818283 50.6207764,12.7555864 C56.9668503,12.9245082 93.1544418,21.1291116 95.1900742,24.7054678 C95.7514667,25.7045866 96.0003897,44.1216651 94.0380501,52.1573467 C93.9963356,52.3004942 93.9084231,52.426161 93.7875677,52.5149241 C93.6669074,52.6038814 93.5199317,52.6512735 93.3692524,52.6497197 Z" id="Path" fill="#005313"></path>
                <path d="M67.0473535,63.7501558 L66.8912163,63.7501558 C55.8927973,63.1130815 26.9302097,52.794421 25.6169802,51.9256304 C25.5393989,51.8755191 25.4725386,51.8106463 25.4208827,51.7345081 C25.3690319,51.6585642 25.3331652,51.5729088 25.3154267,51.4829803 C25.2976883,51.3928576 25.2982731,51.30021 25.317376,51.2104757 C25.3364789,51.1207415 25.3737102,51.0356688 25.4265356,50.9605018 C25.4778017,50.8841694 25.5436873,50.8187139 25.6206839,50.7678257 C25.6976804,50.7169374 25.7840335,50.6817818 25.8748699,50.6643011 C25.9659012,50.6468204 26.0592717,50.6472089 26.1499132,50.6658549 C26.2405547,50.6843068 26.3265179,50.7204335 26.4029297,50.7722929 C27.7502716,51.5589243 55.9514707,61.7278335 66.9888752,62.3553905 C70.1326729,62.529032 91.1188094,54.2375495 92.7686794,51.611949 C92.8164368,51.5323147 92.8795934,51.4629747 92.9546407,51.4076191 C93.0296879,51.3524578 93.1150664,51.3124464 93.2059028,51.2899158 C93.2967392,51.2673851 93.3910843,51.263112 93.4836751,51.2769024 C93.5762659,51.2908869 93.6649581,51.3227406 93.7450735,51.3707154 C93.8224598,51.4132518 93.8904897,51.4707439 93.9452644,51.5396955 C93.9998443,51.6084529 94.0401944,51.6875045 94.0637806,51.7718003 C94.0879788,51.8562903 94.0937995,51.9444707 94.0826886,52.0314857 C94.0715777,52.1183065 94.0431183,52.2020196 93.9988696,52.2779635 C93.9877587,52.2999115 93.9746986,52.3208884 93.959884,52.3406998 C91.9876032,55.4489618 71.2114041,63.7501558 67.0473535,63.7501558 Z" id="Path" fill="#005313"></path>
                <path d="M67.8816451,53.0460128 L67.7939275,53.0460128 C64.9625993,52.6839041 40.0126032,49.3441201 36.6881073,43.9387005 C36.6409347,43.8623681 36.6093564,43.7774896 36.5953216,43.689115 C36.5812868,43.6007404 36.5851853,43.5104234 36.6064325,43.4234084 C36.6276796,43.3365876 36.6660804,43.2546226 36.7194907,43.182369 C36.7729009,43.1101155 36.840346,43.0489331 36.9175375,43.0023179 C36.9962883,42.9524008 37.0843958,42.9186048 37.1765967,42.9028721 C37.2687976,42.8873337 37.3633376,42.8902472 37.454369,42.9114183 C37.5454003,42.9323951 37.6311686,42.9714353 37.7068007,43.0260139 C37.7822378,43.0807868 37.8459792,43.1497384 37.8939315,43.2291785 C40.3981707,47.302569 60.1882293,50.6810049 67.8280399,51.6704122 C77.4106972,48.2340959 85.4019629,45.2707295 90.1712647,43.4995466 C93.6275319,42.2108308 94.3206957,41.95503 94.4865793,41.9212339 C94.571178,41.8938475 94.660455,41.8833591 94.7491473,41.8907398 C94.8378395,41.8979264 94.9241925,41.922982 95.0029434,41.9639645 C95.0818892,42.0049471 95.1514785,42.0610795 95.2078127,42.1292542 C95.2641469,42.1974289 95.3060564,42.2760921 95.3312021,42.3603879 C95.3812985,42.5402448 95.3581021,42.7323382 95.2668758,42.8954914 C95.1756496,43.0586446 95.0236058,43.1802325 94.8429076,43.2340342 L94.8087952,43.2340342 C94.5891114,43.2967705 92.9293,43.914616 90.6349982,44.7639836 C85.8265159,46.5497337 77.7816451,49.5371847 68.1210166,53.0024413 C68.0447998,53.0323527 67.9635148,53.0471142 67.8816451,53.0460128 Z" id="Path" fill="#005313"></path>
                <path d="M37.4120696,11.9820656 C45.3349156,13.7581431 49.3085215,21.045787 48.3371956,28.5749169 C47.2582695,36.9532202 40.2872567,43.8066241 29.8796643,41.1761678 C23.0454909,39.4484924 20.3116266,33.3865755 20.6925158,26.4898583 C21.1854886,17.657795 26.9311844,9.64132274 37.4120696,11.9820656 Z" id="Path" fill="#64BE06"></path>
                <path d="M33.9702271,11.2308618 C23.7579525,10.5213981 18.1147888,16.776263 17.8218901,23.7791851 C17.5387572,30.5360567 22.3275713,36.7473364 31.5733932,37.5390177 C41.4733932,38.3835296 46.9506732,32.8910949 47.492378,26.1487906 C48.0635168,19.0156178 43.1770633,11.872753 33.9702271,11.2308618 Z" id="Path" fill="#FFEC00"></path>
                <path d="M33.5408008,38.3108876 C32.8899364,38.3108876 32.2113923,38.2819473 31.5051684,38.2240668 C22.7182069,37.4661815 16.772437,31.5058469 17.0995066,23.7451949 C17.1544958,21.9390505 17.5786005,20.1626234 18.3462267,18.5228953 C19.1138529,16.8831089 20.2090945,15.4138564 21.5661828,14.2035707 C24.6758682,11.4574117 28.9814364,10.183302 34.0142808,10.540452 C38.4077615,10.8444996 42.1521322,12.5964344 44.7540303,15.6032112 C46.0056626,17.0624997 46.9541819,18.7512903 47.5455933,20.5730313 C48.1370046,22.3949082 48.3594174,24.3140944 48.2003562,26.2210441 C48.0892473,27.9069601 47.6397435,29.5540301 46.8777702,31.0663045 C46.1159918,32.5785789 45.0571433,33.9257579 43.7630167,35.028984 C41.170865,37.1767789 37.6512462,38.3108876 33.5408008,38.3108876 Z M32.3985231,11.88699 C28.420044,11.88699 25.0273232,13.0356466 22.5279572,15.265387 C21.3153106,16.3492484 20.3369673,17.6642435 19.6516006,19.1314177 C18.9662535,20.5986696 18.5879958,22.1876649 18.5395952,23.8030754 C18.2906333,29.7055295 22.244727,36.0183914 31.6320665,36.833963 C36.2257382,37.2249479 40.1016853,36.225829 42.8599156,33.9381886 C44.0092107,32.9557735 44.9487633,31.7565978 45.6234089,30.4107784 C46.2982494,29.0649591 46.6947329,27.5994941 46.7896628,26.1004273 C47.0779612,22.6355591 45.9649227,19.1991263 43.694597,16.5443718 C41.3318755,13.8368257 37.9586476,12.2537545 33.9314364,11.9738303 C33.3992831,11.9062771 32.8963691,11.88699 32.3839035,11.88699 L32.3985231,11.88699 Z" id="Shape" fill="#000000"></path>
                <path d="M31.5443489,11.1530533 C38.8034652,11.5632864 43.0552334,18.2476714 43.2602976,25.2553328 C43.4653617,32.2631495 40.048275,38.1947381 31.2075134,37.437047 C27.7416947,37.0509179 17.2070679,34.7149142 18.1687448,22.3354739 C18.6569029,16.2206682 24.9347325,11.1916662 31.5443489,11.1530533 Z" id="Path" fill="#000000"></path>
                <path d="M33.4291071,32.8099068 C32.8903263,32.8036915 32.3714281,32.6086846 31.9646135,32.2596534 C31.506338,31.8680858 31.2240823,31.3123939 31.1802235,30.7151368 C31.1363647,30.1176854 31.3340217,29.5276148 31.7301152,29.0744763 C32.974925,27.626492 33.3558142,25.4643242 32.750368,23.2153356 C32.1792292,21.1013367 30.9197998,19.6679197 29.9728399,19.3542577 C29.6868806,19.2573564 29.4231431,19.1051772 29.1972216,18.9065771 C28.9711052,18.7079576 28.7874831,18.4668988 28.6564915,18.1974241 C28.5256949,17.9279301 28.4504527,17.6353809 28.4350534,17.3368495 C28.4196541,17.038318 28.4644875,16.7397477 28.5668247,16.4585028 C28.6648734,16.175704 28.8188665,15.9150085 29.0196423,15.6916052 C29.220613,15.4682019 29.4644678,15.2865387 29.7369771,15.1571815 C30.0096813,15.0278438 30.3055819,14.953376 30.6075253,14.9381484 C30.9094686,14.9229208 31.211412,14.967244 31.4958119,15.0685155 C34.0830903,15.9613906 36.2604354,18.6303433 37.1830293,22.0377193 C38.1592284,25.7346923 37.4416987,29.465267 35.2058753,32.0184198 C34.987556,32.2722783 34.7148518,32.4750544 34.4074504,32.6117923 C34.100244,32.7487244 33.7659426,32.8163164 33.4291071,32.8099068 Z" id="Path" fill="#FFFFFF"></path>
                <path d="M53.1411946,91.2088328 C55.6356874,90.8131864 58.4767621,90.2775002 59.0430277,90.7263656 C59.5703078,91.0495642 55.625941,93.8826023 51.7207547,94.6500049 C51.7207547,94.6500049 56.5485349,93.2457223 58.9455637,93.8198661 C60.8689177,93.7427568 56.6461938,97.9319084 49.4360044,97.2515209 C49.4360044,97.2515209 52.7310662,97.6809633 56.2019531,97.9705602 C58.7697388,98.1877093 52.4967629,101.696473 46.0481569,99.6549223 C43.9589193,99.1192361 50.4465108,90.1182316 53.1411946,91.2088328 Z" id="Path" fill="#FFFFFF"></path>
                <path d="M50.2609394,100.999771 C48.7599943,101.008122 47.2666514,100.788448 45.8333463,100.348129 C45.6179509,100.28617 45.4243875,100.165359 45.2750727,99.9998747 C45.1257579,99.8343908 45.0265396,99.6304494 44.9887236,99.4119407 C44.6031561,97.6067675 47.624929,93.5430884 49.7728399,91.7862784 C51.125055,90.68111 52.2770791,90.2514733 53.1899266,90.5218414 L53.9125245,90.4060804 C57.3296112,89.8509712 58.7941047,89.6868469 59.4726489,90.2468118 L59.7800502,90.5026127 L59.7800502,90.9852741 C59.6825863,91.5015373 58.8038511,92.2689399 57.5931537,93.0266309 C58.0732612,93.0204156 58.552589,93.0641173 59.0235349,93.1569592 C59.215344,93.1406439 59.4081277,93.1771591 59.580444,93.2622319 C59.7527603,93.3474988 59.8979816,93.4780213 59.999734,93.6396207 C60.0970031,93.825693 60.1373531,94.0356555 60.1157161,94.2440643 C60.0940791,94.4522788 60.0112348,94.6498106 59.8777091,94.8123811 C59.3896096,95.5556992 57.9641016,96.5932756 55.8407516,97.2833746 C56.2360654,97.2833746 56.6118865,97.3220264 56.9586633,97.3268821 C57.1865341,97.3010495 57.4171338,97.3410609 57.6223929,97.4422547 C57.827652,97.5432543 57.9989937,97.700969 58.1155606,97.8963643 C58.1861245,98.0651502 58.2028883,98.2514167 58.1635129,98.429914 C58.1243324,98.6084113 58.0309619,98.7707876 57.8958768,98.8954832 C57.0610005,99.8124428 53.8977099,100.999771 50.2609394,100.999771 Z M52.6529001,91.8297859 C52.1648006,91.8297859 51.349612,92.1918306 50.2122074,93.2486358 C47.8153736,95.4397439 46.1555622,98.5575231 46.3606264,99.1512841 C50.0217629,100.266164 53.7561922,99.4263137 55.6356874,98.6686226 C52.8774571,98.4996426 49.499356,97.9880409 49.3334723,97.9639563 L49.5042292,96.6125043 C54.1614474,97.0567082 57.3832163,95.3867191 58.4034692,94.4551922 C56.9976489,94.2718392 54.8302452,94.6434011 53.2924587,94.9957342 C52.820928,95.1417951 52.3417951,95.2626062 51.8572043,95.3577788 L51.5301152,94.0354613 C51.5985349,94.0354613 52.1648006,93.851914 52.9946088,93.6637052 C54.7000333,93.1186959 56.3091634,92.3141955 57.7641055,91.2795325 C56.7877115,91.3327515 55.2744859,91.5739851 54.1711938,91.7621939 L53.0776481,91.9360297 L52.8971448,91.863582 C52.8195635,91.8319225 52.7367191,91.8156072 52.6529001,91.8152187 L52.6529001,91.8297859 Z" id="Shape" fill="#005313"></path>
                <path d="M44.6550069,61.4176482 C43.6250077,64.4775469 43.4443095,81.0074872 53.0612742,91.470849 C53.85697,92.3637241 50.8303239,98.5462578 47.2032998,99.5646054 C43.5760808,100.582759 24.9477926,86.9775332 27.3691875,65.2447553" id="Path" fill="#8EE800"></path>
                <path d="M46.9042804,100.281314 C45.2251711,100.281314 42.4474481,98.8335239 39.5820074,96.4204109 C36.096501,93.5246365 24.8783983,82.6557225 26.8311864,65.1460864 C26.8389835,65.0565464 26.8649089,64.9695314 26.9075981,64.8902856 C26.9502873,64.811234 27.0087657,64.7413112 27.0793296,64.6849845 C27.1500885,64.6286578 27.2315683,64.5868984 27.318896,64.5624254 C27.4062238,64.5381467 27.497645,64.5313486 27.5877017,64.5428082 C27.6781482,64.5517428 27.7658658,64.5783523 27.8457863,64.6212771 C27.9255118,64.6642019 27.9958808,64.7224709 28.0527997,64.7925879 C28.1095238,64.8627049 28.1516282,64.9431161 28.176579,65.0295485 C28.2015297,65.1159808 28.2087421,65.206492 28.198021,65.2956435 C26.3282723,82.1394593 37.1167538,92.5785424 40.470294,95.3777845 C43.8240291,98.1770266 46.3869416,99.098842 47.1582715,98.8865486 C50.2823815,98.003385 52.8893477,92.7137265 52.6256102,91.8159956 C43.1259922,81.5554099 42.8819424,64.8370666 44.1023862,61.1787454 C44.162424,61.0086 44.2873728,60.8681717 44.4507225,60.7879547 C44.6140721,60.7077378 44.8025674,60.6937532 44.9760532,60.749303 C45.0622114,60.7776605 45.141742,60.8225277 45.2101617,60.8811851 C45.2785814,60.9400368 45.3345257,61.0117076 45.3750707,61.0919246 C45.4154208,61.1721416 45.439202,61.2595451 45.4454397,61.3490851 C45.4514825,61.4384309 45.4395919,61.5283593 45.4105476,61.6132378 C44.5612466,64.1469676 44.0096005,80.4791817 53.6751022,90.9907125 C54.0413718,91.405782 54.0754842,92.0669407 53.7922539,93.0322636 C53.1821295,95.0835261 50.7120027,99.3064738 47.5048534,100.204205 C47.3087558,100.255093 47.1070054,100.281314 46.9042804,100.281314 Z" id="Path" fill="#005313"></path>
            </g>
        </g>
    </g>
</svg>