<?xml version="1.0" encoding="UTF-8"?>
<svg width="80px" height="80px" viewBox="0 0 80 80" version="1.1" xmlns="http://www.w3.org/2000/svg" xmlns:xlink="http://www.w3.org/1999/xlink">
    <title>dai-logo</title>
    <defs>
        <linearGradient x1="50%" y1="-10%" x2="50%" y2="110.000004%" id="linearGradient-1">
            <stop stop-color="#F9A606" offset="0%"></stop>
            <stop stop-color="#FBCC5F" offset="100%"></stop>
        </linearGradient>
    </defs>
    <g id="页面-1" stroke="none" stroke-width="1" fill="none" fill-rule="evenodd">
        <g id="dai-logo" transform="translate(0.000000, 0.000000)">
            <rect id="Rectangle" x="0" y="0" width="80" height="80"></rect>
            <g id="Group">
                <circle id="Oval" fill="url(#linearGradient-1)" fill-rule="nonzero" cx="40" cy="40" r="40"></circle>
                <path d="M24.8288,21.1616 L40.0672,21.1616 C49.3344,21.1616 56.3616,26.144 58.976,33.392 L63.7216,33.392 L63.7216,37.7728 L59.9744,37.7728 C60.048,38.464 60.0864,39.1712 60.0864,39.888 L60.0864,39.9968 C60.0864,40.8032 60.0384,41.5968 59.9456,42.3744 L63.7216,42.3744 L63.7216,46.7552 L58.8832,46.7552 C56.2016,53.904 49.2288,58.8384 40.0672,58.8384 L24.8288,58.8384 L24.8288,46.7552 L19.536,46.7552 L19.536,42.3744 L24.832,42.3744 L24.832,37.776 L19.536,37.776 L19.536,33.3952 L24.832,33.3952 L24.8288,21.1616 L24.8288,21.1616 Z M29.088,46.7552 L29.088,54.9088 L40.064,54.9088 C46.8384,54.9088 51.872,51.6448 54.2144,46.7552 L29.088,46.7552 L29.088,46.7552 Z M55.5232,42.3744 L29.0912,42.3744 L29.0912,37.776 L55.5296,37.776 C55.6288,38.4992 55.6768,39.2416 55.6768,39.9968 L55.6768,40.1056 C55.6768,40.8768 55.6256,41.6352 55.5232,42.3744 Z M40.0672,25.088 C46.8736,25.088 51.92,28.4384 54.2496,33.3952 L29.0912,33.3952 L29.0912,25.088 L40.0672,25.088 Z" id="Shape" fill="#FFFFFF"></path>
            </g>
        </g>
    </g>
</svg>