<?xml version="1.0" encoding="UTF-8"?>
<svg width="82px" height="63px" viewBox="0 0 82 63" version="1.1" xmlns="http://www.w3.org/2000/svg" xmlns:xlink="http://www.w3.org/1999/xlink">
    <title>empty_box2</title>
    <g id="页面-1" stroke="none" stroke-width="1" fill="none" fill-rule="evenodd">
        <g id="empty_box2" transform="translate(1.000000, 1.000000)" stroke="#FFFFFF" stroke-width="2">
            <path d="M12.9498664,3.94909054 L0.683679298,29.5336689 C0.233634319,30.4723641 -5.49297553e-15,31.5000962 0,32.5411001 L0,54.0434783 C1.35868538e-15,57.8854591 3.11454087,61 6.95652174,61 L73.0434783,61 C76.8854591,61 80,57.8854591 80,54.0434783 L80,32.6075981 C80,31.5239769 79.7468515,30.4553395 79.2607346,29.4868741 L66.3852918,3.83579777 C65.2049969,1.48435753 62.7990746,-7.58874142e-15 60.1680355,0 L19.2227089,0 C16.5461607,-2.17286134e-15 14.106987,1.53559059 12.9498664,3.94909054 Z" id="Path-7"></path>
            <path d="M0,30.9596741 L19.2752627,30.9596741 C21.1346737,30.9596741 22.8405048,31.9914935 23.703756,33.6383714 L27.9338746,41.7084311 C28.7971258,43.3553089 30.502957,44.3871283 32.362368,44.3871283 L45.9057528,44.3871283 C47.4943255,44.3871283 48.9883732,43.6322449 49.9308091,42.3534259 L56.8287728,32.9933765 C57.7712087,31.7145576 59.2652564,30.9596741 60.8538291,30.9596741 L80,30.9596741 L80,30.9596741" id="Path-8"></path>
        </g>
    </g>
</svg>