<?xml version="1.0" encoding="UTF-8"?>
<svg width="100px" height="87px" viewBox="0 0 100 87" version="1.1" xmlns="http://www.w3.org/2000/svg" xmlns:xlink="http://www.w3.org/1999/xlink">
    <title>Group 11</title>
    <g id="Page-1" stroke="none" stroke-width="1" fill="none" fill-rule="evenodd">
        <g id="Group-11" fill="#4CFFCB" fill-rule="nonzero">
            <path d="M40.266223,62.7287854 C36.8053245,62.7287854 33.5607321,61.3900054 31.0948419,58.9283778 C28.6289517,56.4667502 27.2878536,53.18458 27.2878536,49.729664 C27.2878536,47.3975958 27.8935108,45.1519004 29.0615641,43.1653237 L29.0615641,35.5213221 C29.0615641,32.5414571 30.2296173,29.6911515 32.3494176,27.5750154 C34.469218,25.4588794 37.281198,24.2928453 40.266223,24.2928453 C43.2512479,24.2928453 46.063228,25.4588794 48.1830283,27.5750154 C50.3028286,29.6911515 51.4708819,32.5414571 51.4708819,35.5213221 L51.4708819,43.1221373 C52.6389351,45.1087139 53.2445923,47.3544093 53.2445923,49.6864776 C53.2445923,53.18458 51.9034942,56.4235637 49.437604,58.8851913 C46.9717138,61.3900054 43.7271215,62.7287854 40.266223,62.7287854 Z M31.484193,44.2017985 C30.4459235,45.88607 29.9267887,47.7862738 29.9267887,49.729664 C29.9267887,52.4935968 31.0083195,55.1279702 32.9550749,57.0713605 C34.9018303,59.0147507 37.4975042,60.0944119 40.266223,60.0944119 C43.0349418,60.0944119 45.6306156,59.0147507 47.577371,57.0713605 C49.5241265,55.1279702 50.6056572,52.4935968 50.6056572,49.729664 C50.6056572,47.7862738 50.0865225,45.88607 49.0482529,44.244985 L48.9617304,44.1586121 C48.5723794,43.5540018 48.1397671,42.9925779 47.6206323,42.4743405 L47.5341098,42.3879676 C45.5873544,40.4445774 42.9916805,39.3649162 40.2229617,39.3649162 C37.4542429,39.3649162 34.8585691,40.4445774 32.9118136,42.3879676 C32.3926789,42.906205 31.8735441,43.5540018 31.484193,44.2017985 L31.484193,44.2017985 Z M47.5341098,38.9762381 C47.9667221,39.2785433 48.3993344,39.6240348 48.8319468,39.9695264 L48.8319468,35.5213221 C48.8319468,33.2324403 47.9234609,31.0731178 46.3227953,29.4320328 C44.6788686,27.7909477 42.5590682,26.8840322 40.266223,26.8840322 C37.9733777,26.8840322 35.8103161,27.7909477 34.2096506,29.4320328 C32.5657238,31.0731178 31.7004992,33.2324403 31.7004992,35.5213221 L31.7004992,39.92634 C32.0898502,39.5808484 32.5224626,39.2353568 32.9983361,38.9330517 L32.9983361,35.5213221 C32.9983361,33.5779319 33.7770383,31.7209146 35.1613977,30.3389482 C36.5457571,28.9569818 38.3627288,28.1796257 40.3094842,28.1796257 C42.2562396,28.1796257 44.0732113,28.9569818 45.4575707,30.3389482 C46.8419301,31.7209146 47.6206323,33.5779319 47.6206323,35.5213221 L47.6206323,38.9762381 L47.5341098,38.9762381 Z M40.266223,36.6873563 C41.8668885,36.6873563 43.4675541,36.9896614 44.9384359,37.5510853 L44.9384359,35.5213221 C44.9384359,34.2689151 44.4625624,33.102881 43.5540765,32.1959655 C42.6455907,31.2890501 41.4775374,30.8139991 40.266223,30.8139991 C39.0116473,30.8139991 37.843594,31.2890501 36.9783694,32.1959655 C36.0698835,33.102881 35.59401,34.2689151 35.59401,35.5213221 L35.59401,37.5510853 C37.0648918,36.9896614 38.6222962,36.6873563 40.266223,36.6873563 Z M40.266223,58.1078353 C39.3144759,58.1078353 38.3627288,57.7191572 37.7138103,57.028174 C37.0216306,56.3371908 36.6322795,55.4302754 36.6322795,54.436987 L36.6322795,52.6231562 C35.9833611,52.1481052 35.4209651,51.5003085 34.9883527,50.8093253 C34.4259567,49.8592234 34.1231281,48.7795622 34.1231281,47.6999009 C34.1231281,46.0588158 34.7720466,44.5041036 35.8968386,43.381256 C37.0648918,42.2152218 38.5790349,41.5674251 40.2229617,41.5674251 C41.8668885,41.5674251 43.3810316,42.2152218 44.5490849,43.381256 C45.7171381,44.5472901 46.3227953,46.1020023 46.3227953,47.6999009 C46.3227953,48.7795622 46.0199667,49.8592234 45.4575707,50.8093253 C45.0249584,51.5003085 44.4625624,52.1481052 43.8136439,52.6231562 L43.8136439,54.436987 C43.8136439,55.3870889 43.4242928,56.3371908 42.7321131,57.028174 C42.1264559,57.7191572 41.21797,58.1078353 40.266223,58.1078353 Z M40.266223,49.0386809 C40.0066556,49.0386809 39.7470882,49.1250537 39.530782,49.340986 C39.3577371,49.5569182 39.2279534,49.7728505 39.2279534,50.0751556 L39.2279534,54.4801735 C39.2279534,54.7392922 39.3144759,54.9984109 39.530782,55.2143431 C39.703827,55.3870889 39.9633943,55.5166483 40.266223,55.5166483 C40.5257903,55.5166483 40.7853577,55.4302754 41.0016639,55.2143431 C41.1747088,54.9984109 41.3044925,54.7824786 41.3044925,54.4801735 L41.3044925,50.0319692 C41.3044925,49.7728505 41.21797,49.5137318 41.0016639,49.2977995 C40.7853577,49.1250537 40.5257903,49.0386809 40.266223,49.0386809 Z M40.266223,46.4043074 C41.21797,46.4043074 42.1697171,46.7929855 42.8186356,47.4839687 C43.1647255,47.8294603 43.4242928,48.2613248 43.5973378,48.6931893 C43.6838602,48.3908841 43.7271215,48.0453925 43.7271215,47.7430874 C43.7271215,46.7929855 43.3810316,45.9292565 42.6888519,45.2382733 C42.0399334,44.5904765 41.1314476,44.2017985 40.2229617,44.2017985 C39.2712146,44.2017985 38.40599,44.5472901 37.7570715,45.2382733 C37.1081531,45.88607 36.718802,46.7929855 36.718802,47.7430874 C36.718802,48.088579 36.7620632,48.3908841 36.8485857,48.6931893 C37.0216306,48.2613248 37.281198,47.8294603 37.6272879,47.4839687 C38.3627288,46.7929855 39.2712146,46.4043074 40.266223,46.4043074 Z" id="Shape"></path>
            <path d="M39.5748345,86.5224626 C38.7524289,86.5224626 38.1031614,85.8735441 38.1031614,85.0515807 C38.1031614,84.2296173 38.7524289,83.5806988 39.53155,83.5806988 C41.6957751,83.5806988 43.8167157,83.0183028 45.7212338,81.936772 L70.1769778,67.8336106 C73.899445,65.6272879 76.1935236,61.5607321 76.1935236,57.234609 L76.1935236,29.2878536 C76.1935236,24.9617304 73.899445,20.8951747 70.1769778,18.6888519 L45.7645183,4.58569052 C43.9032847,3.50415973 41.7390596,2.94176373 39.5748345,2.94176373 C38.7524289,2.94176373 38.1031614,2.29284526 38.1031614,1.47088186 C38.1031614,0.6921797 38.7524289,0 39.53155,0 L58.1871706,0 C61.1305167,0 64.0305784,0.778702163 66.5410796,2.24958403 L92.6849191,17.3044925 C97.1865073,19.9001664 100,24.7454243 100,29.936772 L100,56.5856905 C100,61.7770383 97.2297918,66.5790349 92.7714881,69.21797 L66.4977951,84.359401 L66.4977951,84.359401 C63.9872939,85.7870216 61.1305167,86.5224626 58.2304551,86.5224626 L39.5748345,86.5224626 Z M58.2304551,83.5806988 C60.6543872,83.5806988 63.0350348,82.9317804 65.112691,81.7637271 L91.2565305,66.7088186 C94.8491442,64.6322795 97.0999383,60.7387687 97.0999383,56.5856905 L97.0999383,29.936772 C97.0999383,25.7836938 94.8491442,21.9334443 91.2565305,19.8569052 L65.112691,4.75873544 C63.0350348,3.54742097 60.6543872,2.94176373 58.2304551,2.94176373 L48.751149,2.94176373 L71.4755128,16.0499168 C76.1935236,18.7753744 79.1368698,23.8369384 79.1368698,29.2878536 L79.1368698,57.2778702 C79.1368698,62.7287854 76.1935236,67.7903494 71.4755128,70.515807 L48.751149,83.6239601 L58.2304551,83.6239601 L58.2304551,83.5806988 Z" id="Shape"></path>
            <path d="M39.6006656,86.5224626 C36.9202712,86.5224626 34.2831089,85.8302829 31.9485719,84.4891847 L7.65209367,70.4725458 C2.9397874,67.7470882 0,62.6855241 0,57.234609 L0,29.2878536 C0,23.8369384 2.9397874,18.7753744 7.65209367,16.0499168 L31.9485719,2.03327787 C34.2831089,0.6921797 36.9202712,0 39.6006656,0 C42.28106,0 44.9182222,0.6921797 47.2527592,2.03327787 L71.5492374,16.0499168 C76.2615437,18.7753744 79.2013311,23.8369384 79.2013311,29.2878536 L79.2013311,57.2778702 C79.2013311,62.7287854 76.2615437,67.7903494 71.5492374,70.515807 L47.2527592,84.5324459 C44.9182222,85.8302829 42.28106,86.5224626 39.6006656,86.5224626 C39.6006656,86.5224626 39.6006656,86.5224626 39.6006656,86.5224626 Z M8.9490587,18.6888519 C5.23109228,20.8951747 2.9397874,24.9617304 2.9397874,29.2878536 L2.9397874,57.2778702 C2.9397874,61.6905158 5.31755662,65.7570715 9.12198737,67.9633943 L33.4184656,81.9800333 C35.2774488,83.0615641 37.4390572,83.6239601 39.6006656,83.6239601 C41.7622739,83.6239601 43.8806502,83.0615641 45.7828655,81.9800333 L70.0793437,67.9633943 C73.8837745,65.7570715 76.2615437,61.6905158 76.2615437,57.2778702 L76.2615437,29.2878536 C76.2615437,24.875208 73.8837745,20.8086522 70.0793437,18.6023295 L45.7828655,4.58569052 C43.9238823,3.50415973 41.7622739,2.94176373 39.6006656,2.94176373 C37.4390572,2.94176373 35.320681,3.50415973 33.4184656,4.58569052 L8.9490587,18.6888519 Z" id="Shape"></path>
            <path d="M39.4342762,71.8801997 C39.1743646,71.8801997 38.9144529,71.7936272 38.6978599,71.6637684 L15.0459005,57.9853127 C14.6127144,57.7255952 14.3094842,57.2494464 14.3094842,56.7300114 L14.3094842,29.4596725 C14.3094842,28.9402374 14.5693958,28.4640887 15.0459005,28.2043712 L38.6978599,14.5259155 C38.9144529,14.3960567 39.1743646,14.3094842 39.4342762,14.3094842 C39.6941878,14.3094842 39.9540995,14.3960567 40.1706925,14.5259155 L63.8226519,28.2043712 C64.255838,28.4640887 64.5590682,28.9402374 64.5590682,29.4596725 L64.5590682,56.7732976 C64.5590682,57.2927327 64.2991566,57.7688814 63.8226519,58.028599 L40.1706925,71.7070547 C39.9107809,71.8369134 39.6941878,71.8801997 39.4342762,71.8801997 Z M39.4342762,68.7203033 L61.6134029,55.9075726 L61.6134029,30.2821113 L39.4342762,17.4693806 L17.2551495,30.2821113 L17.2551495,55.9075726 L39.4342762,68.7203033 Z" id="Shape"></path>
            <path d="M57.2157515,11.3144759 C56.3913086,11.3144759 55.7404326,10.6299025 55.7404326,9.81697171 C55.7404326,9.00404088 56.3913086,8.31946755 57.2157515,8.31946755 L76.3948974,8.31946755 C77.2193403,8.31946755 77.8702163,9.00404088 77.8702163,9.81697171 C77.8702163,10.6299025 77.2193403,11.3144759 76.3948974,11.3144759 L57.2157515,11.3144759 Z" id="Path"></path>
            <path d="M74.5179418,22.4625624 C73.6947854,22.4625624 73.0449251,21.7779891 73.0449251,20.9650582 C73.0449251,20.1521274 73.6947854,19.4675541 74.5179418,19.4675541 L94.5336389,19.4675541 C95.3567953,19.4675541 96.0066556,20.1521274 96.0066556,20.9650582 C96.0066556,21.7779891 95.3567953,22.4625624 94.5336389,22.4625624 L74.5179418,22.4625624 Z" id="Path"></path>
            <path d="M77.6772047,33.7770383 C76.8552413,33.7770383 76.2063228,33.0924649 76.2063228,32.2795341 C76.2063228,31.4666033 76.8552413,30.78203 77.6772047,30.78203 L98.5291181,30.78203 C99.3510815,30.78203 100,31.4666033 100,32.2795341 C100,33.0924649 99.3510815,33.7770383 98.5291181,33.7770383 L77.6772047,33.7770383 Z" id="Path"></path>
            <path d="M77.6772047,44.5923461 C76.8552413,44.5923461 76.2063228,43.9077728 76.2063228,43.0948419 C76.2063228,42.2819111 76.8552413,41.5973378 77.6772047,41.5973378 L98.5291181,41.5973378 C99.3510815,41.5973378 100,42.2819111 100,43.0948419 C100,43.9077728 99.3510815,44.5923461 98.5291181,44.5923461 L77.6772047,44.5923461 Z" id="Path"></path>
            <path d="M77.6772047,55.7404326 C76.8552413,55.7404326 76.2063228,55.0558593 76.2063228,54.2429285 C76.2063228,53.4299976 76.8552413,52.7454243 77.6772047,52.7454243 L98.5291181,52.7454243 C99.3510815,52.7454243 100,53.4299976 100,54.2429285 C100,55.0558593 99.3510815,55.7404326 98.5291181,55.7404326 L77.6772047,55.7404326 Z" id="Path"></path>
            <path d="M74.5179418,67.0549085 C73.6947854,67.0549085 73.0449251,66.3703352 73.0449251,65.5574043 C73.0449251,64.7444735 73.6947854,64.0599002 74.5179418,64.0599002 L94.5336389,64.0599002 C95.3567953,64.0599002 96.0066556,64.7444735 96.0066556,65.5574043 C96.0066556,66.3703352 95.3567953,67.0549085 94.5336389,67.0549085 L74.5179418,67.0549085 Z" id="Path"></path>
            <path d="M57.2157515,78.3693844 C56.3913086,78.3693844 55.7404326,77.684811 55.7404326,76.8718802 C55.7404326,76.0589494 56.3913086,75.374376 57.2157515,75.374376 L76.3948974,75.374376 C77.2193403,75.374376 77.8702163,76.0589494 77.8702163,76.8718802 C77.8702163,77.684811 77.2193403,78.3693844 76.3948974,78.3693844 L57.2157515,78.3693844 Z" id="Path"></path>
        </g>
    </g>
</svg>