<?xml version="1.0" encoding="UTF-8"?>
<svg width="458px" height="396px" viewBox="0 0 458 396" version="1.1" xmlns="http://www.w3.org/2000/svg" xmlns:xlink="http://www.w3.org/1999/xlink">
    <title>Group 10</title>
    <g id="Page-1" stroke="none" stroke-width="1" fill="none" fill-rule="evenodd">
        <g id="Group-10" fill="#4CFFCB" fill-rule="nonzero">
            <g id="Group-9">
                <g id="noun-token-5730660">
                    <path d="M180.704974,0 C178.0958,0.036857712 176,2.16110706 176,4.76884046 C176,7.37657386 178.0958,9.50082321 180.704974,9.53768092 C190.899032,9.53768092 201.093769,12.1828754 210.240733,17.4360721 L322.428159,82.1507186 L322.428159,82.1411809 C340.712582,92.6898025 351.963918,112.186122 351.963918,133.285125 L351.963918,262.714423 C351.963918,283.81343 340.712582,303.30975 322.428159,313.858372 L322.428159,313.848834 L210.240733,378.563929 C201.093769,383.817126 190.899032,386.46232 180.704974,386.46232 C178.095814,386.499196 176,388.62344 176,391.23116 C176,393.83888 178.095814,395.963124 180.704974,396 L266.879679,396 C280.074259,396 293.059503,392.539887 304.477424,385.968674 C304.480606,385.968677 304.483787,385.968677 304.486968,385.968674 L425.267406,316.298902 C425.270592,316.295727 425.273773,316.292548 425.27695,316.289364 C445.49218,304.569182 458,282.962584 458,259.566469 L458,136.433532 C458,113.037417 445.490954,91.4213435 425.267406,79.7476715 L304.496063,10.0872134 L304.48652,10.0776757 C293.065149,3.45614143 280.07017,0 266.879679,0 L180.704974,0 Z M215.64646,9.53768092 L266.879679,9.53768092 C278.403771,9.53768092 289.751325,12.557029 299.705474,18.3302296 C299.708651,18.3334134 299.711832,18.3365926 299.715018,18.3397673 L420.495456,88.0093148 C437.779397,97.9861525 448.4561,116.433246 448.4561,136.433532 L448.4561,259.566469 C448.4561,279.566755 437.778175,298.011774 420.486137,308.037259 L299.714794,377.70703 C289.754398,383.43941 278.403771,386.46232 266.879679,386.46232 L215.64646,386.46232 L327.200109,322.110926 C348.427388,309.864511 361.507818,287.205711 361.507818,262.714647 L361.507818,133.285349 C361.507818,108.79429 348.427388,86.1354898 327.200109,73.8890753 L215.64646,9.53768092 Z" id="Shape"></path>
                    <path d="M181.004665,0 C169.143996,0 157.281307,3.06041695 146.65866,9.18291104 L34.3460058,73.9010012 C13.0965273,86.145442 0,108.793737 0,133.282576 L0,262.709448 C0,287.193876 13.1013934,309.846434 34.3460058,322.091023 L146.65866,386.818431 C167.902802,399.057631 194.105371,399.063415 215.35067,386.818431 L327.65399,322.10034 C348.903469,309.8559 362,287.207604 362,262.718766 L362,133.291889 C362,108.807466 348.907936,86.1549073 327.663325,73.9103139 L215.34134,9.18291104 C204.719267,3.0633109 192.865329,0 181.004665,0 Z M181.004665,9.53681738 C191.212606,9.53681738 201.413009,12.1716869 210.564064,17.4438051 L322.886048,82.171208 C341.18769,92.7195834 352.445447,112.199925 352.445447,133.291889 L352.445447,262.718766 C352.445447,283.815855 341.183046,303.300231 322.876713,313.848759 L210.573394,378.557537 C192.272436,389.105516 169.738046,389.101768 151.435936,378.557537 L39.1232819,313.830134 C20.8216391,303.281758 9.55455314,283.801416 9.55455314,262.709448 L9.55455314,133.282576 C9.55455314,112.185486 20.8169506,92.7011106 39.1232819,82.1525826 L39.1232819,82.1621194 L151.435936,17.4438051 C160.586413,12.1698129 170.796724,9.53681738 181.004665,9.53681738 Z" id="Shape"></path>
                    <path d="M177.613932,66.6398327 L68.3860682,129.748932 C66.9108038,130.601537 66,132.176532 66,133.881573 L66,260.109099 C66,261.814139 66.9108038,263.389135 68.3860682,264.24174 L177.613932,327.360167 C179.090462,328.213278 180.909538,328.213278 182.386068,327.360167 L291.613932,264.251068 C293.089196,263.398463 294,261.823468 294,260.118427 L294,133.900229 C294,132.195189 293.089196,130.620193 291.613932,129.767588 L182.386068,66.6398327 C180.909538,65.7867224 179.090462,65.7867224 177.613932,66.6398327 Z M180,76.2951078 L284.455727,136.661544 L284.455727,257.357113 L180,317.704892 L75.5442727,257.347784 L75.5442727,136.642887 L180,76.2951078 Z" id="Shape"></path>
                    <path d="M262.799235,38 C260.148691,38 258,40.2385763 258,43 C258,45.7614237 260.148691,48 262.799235,48 L351.200765,48 C353.851309,48 356,45.7614237 356,43 C356,40.2385763 353.851309,38 351.200765,38 L262.799235,38 Z" id="Path"></path>
                    <path d="M342.755418,90 C340.129073,90 338,92.2385763 338,95 C338,97.7614237 340.129073,100 342.755418,100 L435.244582,100 C437.870927,100 440,97.7614237 440,95 C440,92.2385763 437.870927,90 435.244582,90 L342.755418,90 Z" id="Path"></path>
                    <path d="M356.770326,142 C354.135748,142 352,144.238576 352,147 C352,149.761424 354.135748,152 356.770326,152 L453.229674,152 C455.864252,152 458,149.761424 458,147 C458,144.238576 455.864252,142 453.229674,142 L356.770326,142 Z" id="Path"></path>
                    <path d="M356.770326,192 C354.135748,192 352,194.238576 352,197 C352,199.761424 354.135748,202 356.770326,202 L453.229674,202 C455.864252,202 458,199.761424 458,197 C458,194.238576 455.864252,192 453.229674,192 L356.770326,192 Z" id="Path"></path>
                    <path d="M356.770326,244 C354.135748,244 352,246.238576 352,249 C352,251.761424 354.135748,254 356.770326,254 L453.229674,254 C455.864252,254 458,251.761424 458,249 C458,246.238576 455.864252,244 453.229674,244 L356.770326,244 Z" id="Path"></path>
                    <path d="M342.755418,296 C340.129073,296 338,298.238576 338,301 C338,303.761424 340.129073,306 342.755418,306 L435.244582,306 C437.870927,306 440,303.761424 440,301 C440,298.238576 437.870927,296 435.244582,296 L342.755418,296 Z" id="Path"></path>
                    <path d="M262.796941,348 C260.147664,348 258,350.238576 258,353 C258,355.761424 260.147664,358 262.796941,358 L351.203059,358 C353.852336,358 356,355.761424 356,353 C356,350.238576 353.852336,348 351.203059,348 L262.796941,348 Z" id="Path"></path>
                </g>
                <g id="noun-lock-5660121" transform="translate(120.000000, 112.000000)">
                    <path d="M58,57.44072 C66.4182433,57.44072 74.4229961,59.2463954 81.643177,62.4902195 L81.643177,50.0635504 C81.643177,43.5332905 78.9819943,37.5942694 74.6933553,33.2904766 C70.4047162,28.9813573 64.4939219,26.3074663 58,26.3074663 C51.5007769,26.3074663 45.5899826,28.9813573 41.3066447,33.2904766 C37.0180057,37.5995959 34.356823,43.5332905 34.356823,50.0635504 L34.356823,62.4902195 C41.5770039,59.2463954 49.5817567,57.44072 58,57.44072 L58,57.44072 Z M43.1832556,128.245569 C39.9919569,126.056387 37.3042683,123.18009 35.3375377,119.829736 C33.0209304,115.888144 31.6956403,111.307374 31.6956403,106.422996 C31.6956403,99.1257232 34.6430856,92.5208926 39.3982269,87.737717 C44.1586692,82.9545413 50.7321086,79.998347 57.9946988,79.998347 C65.2572891,79.998347 71.8307285,82.9545413 76.5911708,87.737717 C81.3516132,92.5208926 84.2937574,99.1257232 84.2937574,106.422996 C84.2937574,111.307374 82.9684672,115.888144 80.65186,119.829736 C78.6904305,123.18009 76.002742,126.056387 72.806142,128.245569 L72.806142,137.662779 C72.806142,141.758839 71.1415776,145.482046 68.4591902,148.177243 C65.7768029,150.87244 62.0712915,152.544954 57.9946988,152.544954 C53.9181062,152.544954 50.2072937,150.87244 47.5302075,148.177243 C44.8478201,145.482046 43.1832556,141.758839 43.1832556,137.662779 L43.1832556,128.245569 L43.1832556,128.245569 Z M72.8167444,117.033336 C73.1242117,116.601892 73.4157755,116.154468 73.6861347,115.691064 C75.276483,112.985214 76.1829814,109.821288 76.1829814,106.428322 C76.1829814,101.384149 74.1473357,96.8140325 70.860616,93.5062908 C67.5738964,90.198549 63.0255004,88.1531821 58,88.1531821 C52.9798007,88.1531821 48.4314048,90.198549 45.139384,93.5062908 C41.8526643,96.808706 39.8170186,101.378823 39.8170186,106.428322 C39.8170186,109.821288 40.7288182,112.985214 42.3138653,115.691064 C42.5842245,116.154468 42.8757883,116.596565 43.1832556,117.033336 C43.2362673,113.017173 44.8902294,109.368537 47.5302075,106.715952 C50.2125948,104.020755 53.9181062,102.348241 57.9946988,102.348241 C62.0712915,102.348241 65.782104,104.026081 68.4591902,106.715952 C71.0991683,109.368537 72.7531304,113.011847 72.806142,117.033336 L72.8167444,117.033336 Z M62.7286354,112.484526 C61.5093684,111.259436 59.8395028,110.503076 58,110.503076 C56.1604972,110.503076 54.4853304,111.259436 53.2713646,112.484526 C52.0573988,113.709615 51.2993328,115.387455 51.2993328,117.235742 L51.2993328,137.662779 C51.2993328,139.50574 52.0573988,141.194233 53.2713646,142.413996 C54.4906316,143.639085 56.1604972,144.395445 58,144.395445 C59.8395028,144.395445 61.5146696,143.633759 62.7286354,142.413996 C63.9426012,141.194233 64.7006672,139.511066 64.7006672,137.662779 L64.7006672,117.235742 C64.7006672,115.387455 63.9426012,113.704289 62.7286354,112.484526 L62.7286354,112.484526 Z M89.7592542,66.9484801 C93.0989855,69.1483148 96.2001645,71.6837175 99.0150809,74.5120764 C99.248332,74.7464414 99.481583,74.9861328 99.7095329,75.2258242 L99.7095329,50.0635504 C99.7095329,38.5423822 95.0180057,28.0652034 87.4532492,20.4696483 C79.893794,12.8740931 69.4664107,8.16016163 58,8.16016163 C46.5335893,8.16016163 36.106206,12.8740931 28.5467508,20.4696483 C20.9872955,28.0652034 16.2904671,38.5423822 16.2904671,50.0635504 L16.2904671,75.2258242 C16.518417,74.9861328 16.751668,74.7464414 16.9849191,74.5120764 C19.7998355,71.6837175 22.9010145,69.1483148 26.2407458,66.9484801 L26.2407458,50.0635504 C26.2407458,41.2855175 29.8137282,33.3064561 35.5654876,27.5219028 C41.3225482,21.7426761 49.2583859,18.1526311 58,18.1526311 C66.736313,18.1526311 74.6774518,21.7426761 80.4345124,27.5219028 C86.1862718,33.3011296 89.7592542,41.280191 89.7592542,50.0635504 L89.7592542,66.9484801 Z M107.82561,85.8734503 C113.020748,94.6035449 116,104.8144 116,115.723023 C116,131.814308 109.511379,146.382221 99.0150809,156.928644 C88.5187826,167.475067 74.0201079,174 58,174 C41.9851933,174 27.4865186,167.475067 16.9849191,156.928644 C6.48862078,146.382221 0,131.814308 0,115.723023 C0,104.8144 2.98455351,94.6035449 8.17438991,85.8734503 L8.17438991,50.0635504 C8.17438991,36.2892828 13.7777168,23.7720636 22.8055936,14.7010745 C31.8334704,5.63008541 44.2911982,0 58,0 C71.7035006,0 84.1612284,5.63008541 93.1944064,14.706401 C102.222283,23.77739 107.82561,36.2946092 107.82561,50.0688768 L107.82561,85.8787767 L107.82561,85.8734503 Z M93.2739238,80.2806502 C84.246047,71.2096611 71.7724157,65.6008816 58,65.6008816 C44.2275843,65.6008816 31.753953,71.2149876 22.7260762,80.2806502 C20.0701947,82.9492148 17.7111781,85.9213886 15.7020382,89.1385802 L15.6543278,89.2184774 L15.6543278,89.2238038 L15.6490266,89.2344568 C10.8779819,96.920562 8.1213783,106.002204 8.1213783,115.72835 C8.1213783,129.566535 13.7035006,142.099734 22.7313774,151.170723 C31.7592542,160.241712 44.2328855,165.850491 58.0053012,165.850491 C71.7777168,165.850491 84.2513481,160.236385 93.2792249,151.170723 C102.307102,142.099734 107.889224,129.571862 107.889224,115.72835 C107.889224,106.002204 105.13262,96.920562 100.361576,89.2344568 L100.356275,89.2238038 L100.356275,89.2184774 L100.308564,89.1385802 C98.2994242,85.9213886 95.9404076,82.9545413 93.2845261,80.2806502 L93.2739238,80.2806502 Z" id="Shape"></path>
                </g>
            </g>
        </g>
    </g>
</svg>