<?xml version="1.0" encoding="UTF-8"?>
<svg width="58px" height="59px" viewBox="0 0 58 59" version="1.1" xmlns="http://www.w3.org/2000/svg" xmlns:xlink="http://www.w3.org/1999/xlink">
    <title>Group 3</title>
    <g id="Page-1" stroke="none" stroke-width="1" fill="none" fill-rule="evenodd">
        <g id="Group-3" fill="#41FFC8" fill-rule="nonzero">
            <g id="noun-lock-4674812" transform="translate(15.000000, 16.000000)">
                <path d="M20.0140351,16.9545455 L19.6877193,16.9545455 L19.6877193,14.3181818 C19.6877193,12.1341467 17.9345606,10.3636364 15.7719298,10.3636364 C13.609299,10.3636364 11.8561404,12.1341467 11.8561404,14.3181818 L11.8561404,16.9545455 L11.5298246,16.9545455 C10.2682899,16.9545455 9.24561404,17.9873431 9.24561404,19.2613636 L9.24561404,23.875 C9.24561404,25.1490205 10.2682899,26.1818182 11.5298246,26.1818182 L20.0140351,26.1818182 C21.2755697,26.1818182 22.2982456,25.1490205 22.2982456,23.875 L22.2982456,19.2613636 C22.2982456,17.9873431 21.2755697,16.9545455 20.0140351,16.9545455 Z M13.1614035,14.3181818 C13.1614035,12.8621584 14.330176,11.6818182 15.7719298,11.6818182 C17.2136837,11.6818182 18.3824561,12.8621584 18.3824561,14.3181818 L18.3824561,16.9545455 L13.1614035,16.9545455 L13.1614035,14.3181818 Z M20.9929825,23.875 C20.9929825,24.4210088 20.5546928,24.8636364 20.0140351,24.8636364 L11.5298246,24.8636364 C10.9891669,24.8636364 10.5508772,24.4210088 10.5508772,23.875 L10.5508772,19.2613636 C10.5508772,18.7153548 10.9891669,18.2727273 11.5298246,18.2727273 L20.0140351,18.2727273 C20.5546928,18.2727273 20.9929825,18.7153548 20.9929825,19.2613636 L20.9929825,23.875 Z" id="Shape"></path>
                <path d="M15.7719298,19.6363636 C15.4715644,19.6363636 15.2280702,19.9294136 15.2280702,20.2909091 L15.2280702,22.2545455 C15.2280702,22.6160409 15.4715644,22.9090909 15.7719298,22.9090909 C16.0722952,22.9090909 16.3157895,22.6160409 16.3157895,22.2545455 L16.3157895,20.2909091 C16.3157895,19.9294136 16.0722952,19.6363636 15.7719298,19.6363636 Z" id="Path"></path>
                <path d="M30.6770833,8.76126729 L15.8229167,0.0875048062 C15.6230951,-0.0291682687 15.3769049,-0.0291682687 15.1770833,0.0875048062 L0.322916667,8.76126729 C0.123299891,8.87782065 0,9.09313067 0,9.32623751 L0,26.6737625 C0,26.9068693 0.123299891,27.1221793 0.322916667,27.2387327 L15.1770833,35.9124952 C15.3769049,36.0291683 15.6230951,36.0291683 15.8229167,35.9124952 L30.6770833,27.2387327 C30.8767001,27.1221793 31,26.9068693 31,26.6737625 L31,9.32623751 C31,9.09313067 30.8767001,8.87782065 30.6770833,8.76126729 Z M16.1458333,34.2143188 L16.1458333,27.7971715 C16.1458333,27.4364496 15.8566839,27.1440267 15.5,27.1440267 C15.1433161,27.1440267 14.8541667,27.4364496 14.8541667,27.7971715 L14.8541667,34.2143188 L1.29166667,26.2949385 L1.29166667,10.456178 L9.04166667,14.972674 C9.13978155,15.0302335 9.25115569,15.060645 9.36458333,15.0608486 C9.65643304,15.0603264 9.91166974,14.8619244 9.98724486,14.5768378 C10.06282,14.2917513 9.93995085,13.9908328 9.6875,13.8427336 L1.9375,9.32623751 L15.5,1.40685723 L29.0625,9.32623751 L21.3125,13.8427336 C21.0600492,13.9908328 20.93718,14.2917513 21.0127551,14.5768378 C21.0883303,14.8619244 21.343567,15.0603264 21.6354167,15.0608486 C21.7488443,15.060645 21.8602184,15.0302335 21.9583333,14.972674 L29.7083333,10.456178 L29.7083333,26.2949385 L16.1458333,34.2143188 Z" id="Shape"></path>
            </g>
            <g id="noun-scale-4814619">
                <path d="M57.462963,33.1685668 L49.4074087,28.297836 C48.9118321,28.091981 48.3415102,28.2858466 48.0709176,28.7521404 C47.8003249,29.2184341 47.9123064,29.814395 48.3333348,30.1487137 L55.8518522,34.705553 L55.8518522,49.1662115 L42.9629652,56.6779608 L35.3585218,52.4945442 C34.8379935,52.2076077 34.1852,52.4002362 33.9004665,52.9247921 C33.6157331,53.449348 33.8068826,54.1071926 34.3274109,54.3941292 L42.4259282,58.8697896 C42.5906458,58.9595178 42.7757785,59.0042934 42.9629652,58.9996758 C43.1516047,58.9993384 43.336829,58.9489409 43.5000021,58.8535539 L57.462963,50.7356692 C57.7949421,50.5425182 57.9996068,50.1857087 58,49.7994065 L58,34.0940057 C57.9958023,33.7115771 57.7916465,33.3597694 57.462963,33.1685668 L57.462963,33.1685668 Z" id="Path"></path>
                <path d="M22.5985237,52.4241892 L15.0800063,56.380305 L2.14815634,49.0092657 L2.14815634,34.705553 L9.66667375,30.1487137 C10.0543389,29.9876834 10.3135716,29.6140349 10.3305478,29.1918299 C10.3475239,28.7696249 10.1191394,28.3760655 9.74567334,28.183956 C9.3722073,27.9918464 8.92194966,28.0363149 8.59259984,28.297836 L0.537045461,33.1685668 C0.20836205,33.3597694 0.00420621565,33.7115771 0,34.0940057 L0,49.6424607 C-0.00152098576,50.0306956 0.203401377,50.3900195 0.537045461,50.5841354 L14.5,58.5558981 C14.6642498,58.648016 14.8490759,58.6966081 15.0370433,58.6966081 C15.2092554,58.6956326 15.3787099,58.6529411 15.5311173,58.5721339 L23.5866717,54.3454219 C24.0957056,54.061534 24.2879079,53.4208309 24.0201868,52.900307 C23.7524656,52.379783 23.1221601,52.1686925 22.5985237,52.4241892 L22.5985237,52.4241892 Z" id="Path"></path>
                <path d="M15.0370433,19.4818133 C15.630238,19.4818133 16.1111173,18.9972132 16.1111173,18.3994287 L16.1111173,9.82694247 L29.0000043,2.33142898 L41.8888913,9.82694247 L41.8888913,18.3994287 C41.8888913,18.9972132 42.3697705,19.4818133 42.9629694,19.4818133 C43.5561598,19.4818133 44.0370391,18.9972132 44.0370391,18.3994287 L44.0370391,9.19915939 C44.0366459,8.81285719 43.8319812,8.45604769 43.5000021,8.2628967 L29.5370412,0.145012042 C29.2047216,-0.0483373475 28.7952869,-0.0483373475 28.4629694,0.145012042 L14.5000064,8.2628967 C14.1680273,8.45604769 13.9633626,8.81285719 13.9629694,9.19915939 L13.9629694,18.3994287 C13.9629694,18.9972132 14.4438487,19.4818133 15.0370433,19.4818133 Z" id="Path"></path>
            </g>
        </g>
    </g>
</svg>