<?xml version="1.0" encoding="UTF-8"?>
<svg width="114px" height="115px" viewBox="0 0 114 115" version="1.1" xmlns="http://www.w3.org/2000/svg" xmlns:xlink="http://www.w3.org/1999/xlink">
    <title>Group 2</title>
    <g id="Page-1" stroke="none" stroke-width="1" fill="none" fill-rule="evenodd">
        <g id="Group-4" transform="translate(0.121944, 0.148385)" fill="#41FFC3" fill-rule="nonzero">
            <g id="Group-2" transform="translate(56.878048, 57.360889) rotate(-179.000000) translate(-56.878048, -57.360889) translate(0.975694, 0.967042)">
                <g id="icon1" transform="translate(55.902354, 56.393847) rotate(179.000000) translate(-55.902354, -56.393847) translate(0.959253, 0.950445)">
                    <g id="noun-scale-4814619" transform="translate(54.943101, 55.443402) rotate(179.000000) translate(-54.943101, -55.443402) translate(0.943094, 0.934128)">
                        <path d="M107.000016,61.2879492 L92.0000158,52.2879492 C91.077218,51.907576 90.0152391,52.2657956 89.5113768,53.1274001 C89.0075145,53.9890046 89.2160319,55.0902044 90.0000158,55.7079492 L104.000016,64.1279492 L104.000016,90.8479492 L80.0000158,104.727949 L65.8400158,96.9979492 C64.8707561,96.4677559 63.6552092,96.8236895 63.1250159,97.7929492 C62.5948226,98.7622089 62.9507561,99.9777558 63.9200158,100.507949 L79.0000158,108.777949 C79.3067314,108.943746 79.6514612,109.026482 80.0000158,109.017949 C80.3512756,109.017326 80.6961762,108.924203 81.0000158,108.747949 L107.000016,93.7479492 C107.618184,93.3910502 107.999284,92.7317476 108.000016,92.0179492 L108.000016,62.9979492 C107.992199,62.2913084 107.612047,61.641248 107.000016,61.2879492 L107.000016,61.2879492 Z" id="Path"></path>
                        <path d="M42.0800158,96.8679492 L28.0800158,104.177949 L4.00001583,90.5579492 L4.00001583,64.1279492 L18.0000158,55.7079492 C18.7218752,55.4104019 19.2045845,54.7199846 19.2361953,53.939846 C19.267806,53.1597075 18.8425381,52.4324994 18.1471185,52.0775248 C17.4516989,51.7225502 16.613288,51.8047177 16.0000158,52.2879492 L1.00001583,61.2879492 C0.387984564,61.641248 0.00783226477,62.2913084 0,62.9979492 L0,91.7279492 C-0.0028321808,92.4453187 0.378747446,93.1092673 1.00001583,93.4679492 L27.0000158,108.197949 C27.3058484,108.368162 27.6500074,108.457949 28.0000158,108.457949 C28.3206867,108.456147 28.6362227,108.377263 28.9200158,108.227949 L43.9200158,100.417949 C44.8678722,99.893389 45.2257662,98.7095158 44.7272509,97.7477062 C44.2287355,96.7858967 43.055063,96.3958495 42.0800158,96.8679492 L42.0800158,96.8679492 Z" id="Path"></path>
                        <path d="M28.0000158,35.9979492 C29.1045853,35.9979492 30.0000158,35.1025187 30.0000158,33.9979492 L30.0000158,18.1579492 L54.0000158,4.30794919 L78.0000158,18.1579492 L78.0000158,33.9979492 C78.0000158,35.1025187 78.8954463,35.9979492 80.0000158,35.9979492 C81.1045853,35.9979492 82.0000158,35.1025187 82.0000158,33.9979492 L82.0000158,16.9979492 C81.9992837,16.2841508 81.6181839,15.6248482 81.0000158,15.2679492 L55.0000158,0.267949192 C54.3812137,-0.0893163975 53.618818,-0.0893163975 53.0000158,0.267949192 L27.0000158,15.2679492 C26.3818478,15.6248482 26.000748,16.2841508 26.0000158,16.9979492 L26.0000158,33.9979492 C26.0000158,35.1025187 26.8954463,35.9979492 28.0000158,35.9979492 Z" id="Path"></path>
                    </g>
                </g>
                <g id="noun-cube-lock-4715719" transform="translate(56.524599, 63.393328) rotate(180.000000) translate(-56.524599, -63.393328) translate(30.024599, 33.893328)">
                    <path d="M52.2197222,13.4460486 L27.1919444,0.171463392 C26.765,-0.0571544639 26.2423611,-0.0571544639 25.8154167,0.171463392 L0.787638889,13.4460486 C0.301805556,13.7041655 1.42108547e-14,14.2056498 1.42108547e-14,14.7513828 L1.42108547e-14,44.2504609 C1.42108547e-14,44.7961939 0.301805556,45.2976782 0.780277778,45.5557951 L25.8080556,58.8303803 C26.0288889,58.9410018 26.2644444,59 26.5,59 C26.7355556,59 26.9711111,58.9410018 27.1919444,58.8303803 L52.2197222,45.5557951 C52.6981944,45.2976782 53,44.7961939 53,44.2504609 L53,14.7513828 C53,14.2056498 52.6981944,13.7041655 52.2197222,13.4460486 Z M27.2361111,55.4674854 L27.2361111,41.3005531 C27.2361111,40.8949408 26.9048611,40.5630762 26.5,40.5630762 C26.0951389,40.5630762 25.7638889,40.8949408 25.7638889,41.3005531 L25.7638889,55.4674854 L2.94444444,43.3654886 L2.94444444,16.3664573 L18.0568056,24.3828318 C18.55,24.6409487 19.1388889,24.2869598 19.1388889,23.7338521 L19.1388889,23.7338521 C19.1388889,23.4609856 18.9916667,23.2102434 18.74875,23.0848723 L3.83513889,15.1717446 L26.5,3.14349552 L49.1648611,15.1643699 L43.8206944,17.9962814 C43.5777778,18.1290272 43.4305556,18.3797694 43.4305556,18.6526359 L43.4305556,18.6526359 C43.4305556,19.2057436 44.0194444,19.5671073 44.5126389,19.3016156 L50.0555556,16.3664573 L50.0555556,43.3654886 L27.2361111,55.4674854 Z M39.0138889,21.7795381 C39.0138889,22.0524046 38.8666667,22.3031468 38.62375,22.4285179 L34.9431944,24.3828318 C34.45,24.6409487 33.8611111,24.2869598 33.8611111,23.7338521 C33.8611111,23.4609856 34.0083333,23.2102434 34.25125,23.0848723 L37.9318056,21.1305584 C38.425,20.8650667 39.0138889,21.2264304 39.0138889,21.7795381 Z M41.9583333,20.216087 L41.9583333,20.216087 C41.9583333,20.4889535 41.8111111,20.7396956 41.5681944,20.8650667 L41.5681944,20.8650667 C41.075,21.1305584 40.4861111,20.7765695 40.4861111,20.216087 C40.4861111,19.9432205 40.6333333,19.6924784 40.87625,19.5671073 L40.87625,19.5671073 C41.3694444,19.3089903 41.9583333,19.6629793 41.9583333,20.216087 Z M32.3888889,28.7634449 L31.6527778,28.7634449 L31.6527778,25.8135371 C31.6527778,22.966876 29.3413889,20.6511984 26.5,20.6511984 C23.6586111,20.6511984 21.3472222,22.966876 21.3472222,25.8135371 L21.3472222,28.7634449 L20.6111111,28.7634449 C20.20625,28.7634449 19.875,29.0953095 19.875,29.5009218 L19.875,37.6131683 C19.875,38.0187807 20.20625,38.3506453 20.6111111,38.3506453 L32.3888889,38.3506453 C32.79375,38.3506453 33.125,38.0187807 33.125,37.6131683 L33.125,29.5009218 C33.125,29.0953095 32.79375,28.7634449 32.3888889,28.7634449 Z M22.8194444,25.8135371 C22.8194444,23.7781007 24.4683333,22.1261523 26.5,22.1261523 C28.5316667,22.1261523 30.1805556,23.7781007 30.1805556,25.8135371 L30.1805556,28.7634449 L22.8194444,28.7634449 L22.8194444,25.8135371 Z M31.6527778,36.8756914 L21.3472222,36.8756914 L21.3472222,30.2383988 L31.6527778,30.2383988 L31.6527778,36.8756914 Z" id="Shape"></path>
                </g>
            </g>
        </g>
    </g>
</svg>