<?xml version="1.0" encoding="UTF-8"?>
<svg width="114px" height="115px" viewBox="0 0 114 115" version="1.1" xmlns="http://www.w3.org/2000/svg" xmlns:xlink="http://www.w3.org/1999/xlink">
    <title>Group 4</title>
    <g id="Page-1" stroke="none" stroke-width="1" fill="none" fill-rule="evenodd">
        <g id="Group-4" transform="translate(0.121944, 0.148385)" fill="#41FFC3" fill-rule="nonzero">
            <g id="Group-2" transform="translate(56.878048, 57.360889) rotate(-179.000000) translate(-56.878048, -57.360889) translate(0.975694, 0.967042)">
                <g id="icon1" transform="translate(55.902354, 56.393847) rotate(179.000000) translate(-55.902354, -56.393847) translate(0.959253, 0.950445)">
                    <g id="noun-scale-4814619" transform="translate(54.943101, 55.443402) rotate(179.000000) translate(-54.943101, -55.443402) translate(0.943094, 0.934128)">
                        <path d="M107.000016,61.2879492 L92.0000158,52.2879492 C91.077218,51.907576 90.0152391,52.2657956 89.5113768,53.1274001 C89.0075145,53.9890046 89.2160319,55.0902044 90.0000158,55.7079492 L104.000016,64.1279492 L104.000016,90.8479492 L80.0000158,104.727949 L65.8400158,96.9979492 C64.8707561,96.4677559 63.6552092,96.8236895 63.1250159,97.7929492 C62.5948226,98.7622089 62.9507561,99.9777558 63.9200158,100.507949 L79.0000158,108.777949 C79.3067314,108.943746 79.6514612,109.026482 80.0000158,109.017949 C80.3512756,109.017326 80.6961762,108.924203 81.0000158,108.747949 L107.000016,93.7479492 C107.618184,93.3910502 107.999284,92.7317476 108.000016,92.0179492 L108.000016,62.9979492 C107.992199,62.2913084 107.612047,61.641248 107.000016,61.2879492 L107.000016,61.2879492 Z" id="Path"></path>
                        <path d="M42.0800158,96.8679492 L28.0800158,104.177949 L4.00001583,90.5579492 L4.00001583,64.1279492 L18.0000158,55.7079492 C18.7218752,55.4104019 19.2045845,54.7199846 19.2361953,53.939846 C19.267806,53.1597075 18.8425381,52.4324994 18.1471185,52.0775248 C17.4516989,51.7225502 16.613288,51.8047177 16.0000158,52.2879492 L1.00001583,61.2879492 C0.387984564,61.641248 0.00783226477,62.2913084 0,62.9979492 L0,91.7279492 C-0.0028321808,92.4453187 0.378747446,93.1092673 1.00001583,93.4679492 L27.0000158,108.197949 C27.3058484,108.368162 27.6500074,108.457949 28.0000158,108.457949 C28.3206867,108.456147 28.6362227,108.377263 28.9200158,108.227949 L43.9200158,100.417949 C44.8678722,99.893389 45.2257662,98.7095158 44.7272509,97.7477062 C44.2287355,96.7858967 43.055063,96.3958495 42.0800158,96.8679492 L42.0800158,96.8679492 Z" id="Path"></path>
                        <path d="M28.0000158,35.9979492 C29.1045853,35.9979492 30.0000158,35.1025187 30.0000158,33.9979492 L30.0000158,18.1579492 L54.0000158,4.30794919 L78.0000158,18.1579492 L78.0000158,33.9979492 C78.0000158,35.1025187 78.8954463,35.9979492 80.0000158,35.9979492 C81.1045853,35.9979492 82.0000158,35.1025187 82.0000158,33.9979492 L82.0000158,16.9979492 C81.9992837,16.2841508 81.6181839,15.6248482 81.0000158,15.2679492 L55.0000158,0.267949192 C54.3812137,-0.0893163975 53.618818,-0.0893163975 53.0000158,0.267949192 L27.0000158,15.2679492 C26.3818478,15.6248482 26.000748,16.2841508 26.0000158,16.9979492 L26.0000158,33.9979492 C26.0000158,35.1025187 26.8954463,35.9979492 28.0000158,35.9979492 Z" id="Path"></path>
                    </g>
                </g>
                <g id="noun-cube-lock-4715719" transform="translate(56.347291, 64.273112) rotate(180.000000) translate(-56.347291, -64.273112) translate(20.347291, 24.271862)">
                    <path d="M70.94,18.2325 L36.94,0.2325 C36.36,-0.0775 35.65,-0.0775 35.07,0.2325 L1.07,18.2325 C0.41,18.5825 0,19.2625 0,20.0025 L0,60.0025 C0,60.7425 0.41,61.4225 1.06,61.7725 L35.06,79.7725 C35.36,79.9225 35.68,80.0025 36,80.0025 C36.32,80.0025 36.64,79.9225 36.94,79.7725 L70.94,61.7725 C71.59,61.4225 72,60.7425 72,60.0025 L72,20.0025 C72,19.2625 71.59,18.5825 70.94,18.2325 Z M37,75.2125 L37,56.0025 C37,55.4525 36.55,55.0025 36,55.0025 C35.45,55.0025 35,55.4525 35,56.0025 L35,75.2125 L4,58.8025 L4,22.1925 L24.53,33.0625 C25.2,33.4125 26,32.9325 26,32.1825 L26,32.1825 C26,31.8125 25.8,31.4725 25.47,31.3025 L5.21,20.5725 L36,4.2625 L66.79,20.5625 L59.53,24.4025 C59.2,24.5825 59,24.9225 59,25.2925 L59,25.2925 C59,26.0425 59.8,26.5325 60.47,26.1725 L68,22.1925 L68,58.8025 L37,75.2125 Z M53,29.5325 C53,29.9025 52.8,30.2425 52.47,30.4125 L47.47,33.0625 C46.8,33.4125 46,32.9325 46,32.1825 C46,31.8125 46.2,31.4725 46.53,31.3025 L51.53,28.6525 C52.2,28.2925 53,28.7825 53,29.5325 Z M57,27.4125 L57,27.4125 C57,27.7825 56.8,28.1225 56.47,28.2925 L56.47,28.2925 C55.8,28.6525 55,28.1725 55,27.4125 C55,27.0425 55.2,26.7025 55.53,26.5325 L55.53,26.5325 C56.2,26.1825 57,26.6625 57,27.4125 Z M44,39.0025 L43,39.0025 L43,35.0025 C43,31.1425 39.86,28.0025 36,28.0025 C32.14,28.0025 29,31.1425 29,35.0025 L29,39.0025 L28,39.0025 C27.45,39.0025 27,39.4525 27,40.0025 L27,51.0025 C27,51.5525 27.45,52.0025 28,52.0025 L44,52.0025 C44.55,52.0025 45,51.5525 45,51.0025 L45,40.0025 C45,39.4525 44.55,39.0025 44,39.0025 Z M31,35.0025 C31,32.2425 33.24,30.0025 36,30.0025 C38.76,30.0025 41,32.2425 41,35.0025 L41,39.0025 L31,39.0025 L31,35.0025 Z M43,50.0025 L29,50.0025 L29,41.0025 L43,41.0025 L43,50.0025 Z" id="Shape"></path>
                </g>
            </g>
        </g>
    </g>
</svg>