<?xml version="1.0" encoding="UTF-8"?>
<svg width="229px" height="198px" viewBox="0 0 229 198" version="1.1" xmlns="http://www.w3.org/2000/svg" xmlns:xlink="http://www.w3.org/1999/xlink">
    <title>Group 10</title>
    <g id="Page-1" stroke="none" stroke-width="1" fill="none" fill-rule="evenodd">
        <g id="Group-10" fill="#4CFFCB" fill-rule="nonzero">
            <g id="Group-9">
                <g id="noun-token-5730660">
                    <path d="M90.3524868,0 C89.0479001,0.018428856 88,1.08055353 88,2.38442023 C88,3.68828693 89.0479001,4.7504116 90.3524868,4.76884046 C95.4495162,4.76884046 100.546885,6.09143769 105.120367,8.71803607 L161.214079,41.0753593 L161.214079,41.0705905 C170.356291,46.3449013 175.981959,56.0930611 175.981959,66.6425626 L175.981959,131.357211 C175.981959,141.906715 170.356291,151.654875 161.214079,156.929186 L161.214079,156.924417 L105.120367,189.281964 C100.546885,191.908563 95.4495162,193.23116 90.3524868,193.23116 C89.0479068,193.249598 88,194.31172 88,195.61558 C88,196.91944 89.0479068,197.981562 90.3524868,198 L133.43984,198 C140.03713,198 146.529752,196.269944 152.238712,192.984337 C152.240303,192.984338 152.241893,192.984338 152.243484,192.984337 L212.633703,158.149451 C212.635296,158.147864 212.636887,158.146274 212.638475,158.144682 C222.74609,152.284591 229,141.481292 229,129.783234 L229,68.2167662 C229,56.5187087 222.745477,45.7106718 212.633703,39.8738358 L152.248032,5.04360671 L152.24326,5.03883787 C146.532574,1.72807072 140.035085,0 133.43984,0 L90.3524868,0 Z M107.82323,4.76884046 L133.43984,4.76884046 C139.201886,4.76884046 144.875663,6.27851452 149.852737,9.16511482 C149.854326,9.16670668 149.855916,9.1682963 149.857509,9.16988366 L210.247728,44.0046574 C218.889698,48.9930762 224.22805,58.2166232 224.22805,68.2167662 L224.22805,129.783234 C224.22805,139.783377 218.889088,149.005887 210.243068,154.018629 L149.857397,188.853515 C144.877199,191.719705 139.201886,193.23116 133.43984,193.23116 L107.82323,193.23116 L163.600054,161.055463 C174.213694,154.932256 180.753909,143.602856 180.753909,131.357323 L180.753909,66.6426746 C180.753909,54.3971448 174.213694,43.0677449 163.600054,36.9445376 L107.82323,4.76884046 Z" id="Shape"></path>
                    <path d="M90.5023325,0 C84.5719981,0 78.6406534,1.53020848 73.3293298,4.59145552 L17.1730029,36.9505006 C6.54826363,43.072721 0,54.3968686 0,66.6412879 L0,131.354724 C0,143.596938 6.5506967,154.923217 17.1730029,161.045511 L73.3293298,193.409215 C83.9514012,199.528815 97.0526857,199.531707 107.675335,193.409215 L163.826995,161.05017 C174.451734,154.92795 181,143.603802 181,131.359383 L181,66.6459443 C181,54.4037328 174.453968,43.0774536 163.831662,36.955157 L107.67067,4.59145552 C102.359633,1.53165545 96.4326645,0 90.5023325,0 Z M90.5023325,4.76840869 C95.6063031,4.76840869 100.706504,6.08584343 105.282032,8.72190255 L161.443024,41.085604 C170.593845,46.3597917 176.222723,56.0999626 176.222723,66.6459443 L176.222723,131.359383 C176.222723,141.907928 170.591523,151.650116 161.438357,156.92438 L105.286697,189.278768 C96.1362178,194.552758 84.8690229,194.550884 75.7179681,189.278768 L19.561641,156.915067 C10.4108195,151.640879 4.77727657,141.900708 4.77727657,131.354724 L4.77727657,66.6412879 C4.77727657,56.0927432 10.4084753,46.3505553 19.561641,41.0762913 L19.561641,41.0810597 L75.7179681,8.72190255 C80.2932065,6.08490644 85.3983619,4.76840869 90.5023325,4.76840869 Z" id="Shape"></path>
                    <path d="M88.8069659,33.3199164 L34.1930341,64.8744658 C33.4554019,65.3007684 33,66.0882662 33,66.9407864 L33,130.054549 C33,130.90707 33.4554019,131.694567 34.1930341,132.12087 L88.8069659,163.680084 C89.5452312,164.106639 90.4547688,164.106639 91.1930341,163.680084 L145.806966,132.125534 C146.544598,131.699232 147,130.911734 147,130.059214 L147,66.9501146 C147,66.0975943 146.544598,65.3100966 145.806966,64.883794 L91.1930341,33.3199164 C90.4547688,32.8933612 89.5452312,32.8933612 88.8069659,33.3199164 Z M90,38.1475539 L142.227864,68.3307719 L142.227864,128.678556 L90,158.852446 L37.7721363,128.673892 L37.7721363,68.3214437 L90,38.1475539 Z" id="Shape"></path>
                    <path d="M131.399617,19 C130.074345,19 129,20.1192881 129,21.5 C129,22.8807119 130.074345,24 131.399617,24 L175.600383,24 C176.925655,24 178,22.8807119 178,21.5 C178,20.1192881 176.925655,19 175.600383,19 L131.399617,19 Z" id="Path"></path>
                    <path d="M171.377709,45 C170.064537,45 169,46.1192881 169,47.5 C169,48.8807119 170.064537,50 171.377709,50 L217.622291,50 C218.935463,50 220,48.8807119 220,47.5 C220,46.1192881 218.935463,45 217.622291,45 L171.377709,45 Z" id="Path"></path>
                    <path d="M178.385163,71 C177.067874,71 176,72.1192881 176,73.5 C176,74.8807119 177.067874,76 178.385163,76 L226.614837,76 C227.932126,76 229,74.8807119 229,73.5 C229,72.1192881 227.932126,71 226.614837,71 L178.385163,71 Z" id="Path"></path>
                    <path d="M178.385163,96 C177.067874,96 176,97.1192881 176,98.5 C176,99.8807119 177.067874,101 178.385163,101 L226.614837,101 C227.932126,101 229,99.8807119 229,98.5 C229,97.1192881 227.932126,96 226.614837,96 L178.385163,96 Z" id="Path"></path>
                    <path d="M178.385163,122 C177.067874,122 176,123.119288 176,124.5 C176,125.880712 177.067874,127 178.385163,127 L226.614837,127 C227.932126,127 229,125.880712 229,124.5 C229,123.119288 227.932126,122 226.614837,122 L178.385163,122 Z" id="Path"></path>
                    <path d="M171.377709,148 C170.064537,148 169,149.119288 169,150.5 C169,151.880712 170.064537,153 171.377709,153 L217.622291,153 C218.935463,153 220,151.880712 220,150.5 C220,149.119288 218.935463,148 217.622291,148 L171.377709,148 Z" id="Path"></path>
                    <path d="M131.39847,174 C130.073832,174 129,175.119288 129,176.5 C129,177.880712 130.073832,179 131.39847,179 L175.60153,179 C176.926168,179 178,177.880712 178,176.5 C178,175.119288 176.926168,174 175.60153,174 L131.39847,174 Z" id="Path"></path>
                </g>
                <g id="noun-lock-5660121" transform="translate(60.000000, 56.000000)">
                    <path d="M29,28.72036 C33.2091217,28.72036 37.211498,29.6231977 40.8215885,31.2451097 L40.8215885,25.0317752 C40.8215885,21.7666452 39.4909972,18.7971347 37.3466776,16.6452383 C35.2023581,14.4906787 32.246961,13.1537331 29,13.1537331 C25.7503884,13.1537331 22.7949913,14.4906787 20.6533224,16.6452383 C18.5090028,18.799798 17.1784115,21.7666452 17.1784115,25.0317752 L17.1784115,31.2451097 C20.788502,29.6231977 24.7908783,28.72036 29,28.72036 L29,28.72036 Z M21.5916278,64.1227845 C19.9959784,63.0281936 18.6521342,61.590045 17.6687689,59.9148682 C16.5104652,57.944072 15.8478201,55.6536872 15.8478201,53.2114978 C15.8478201,49.5628616 17.3215428,46.2604463 19.6991134,43.8688585 C22.0793346,41.4772706 25.3660543,39.9991735 28.9973494,39.9991735 C32.6286445,39.9991735 35.9153642,41.4772706 38.2955854,43.8688585 C40.6758066,46.2604463 42.1468787,49.5628616 42.1468787,53.2114978 C42.1468787,55.6536872 41.4842336,57.944072 40.32593,59.9148682 C39.3452152,61.590045 38.001371,63.0281936 36.403071,64.1227845 L36.403071,68.8313895 C36.403071,70.8794196 35.5707888,72.7410231 34.2295951,74.0886215 C32.8884014,75.43622 31.0356457,76.2724768 28.9973494,76.2724768 C26.9590531,76.2724768 25.1036468,75.43622 23.7651037,74.0886215 C22.4239101,72.7410231 21.5916278,70.8794196 21.5916278,68.8313895 L21.5916278,64.1227845 L21.5916278,64.1227845 Z M36.4083722,58.5166682 C36.5621058,58.3009459 36.7078878,58.0772339 36.8430674,57.8455322 C37.6382415,56.4926072 38.0914907,54.9106438 38.0914907,53.2141611 C38.0914907,50.6920746 37.0736679,48.4070163 35.430308,46.7531454 C33.7869482,45.0992745 31.5127502,44.0765911 29,44.0765911 C26.4899004,44.0765911 24.2157024,45.0992745 22.569692,46.7531454 C20.9263321,48.404353 19.9085093,50.6894113 19.9085093,53.2141611 C19.9085093,54.9106438 20.3644091,56.4926072 21.1569326,57.8455322 C21.2921122,58.0772339 21.4378942,58.2982827 21.5916278,58.5166682 C21.6181336,56.5085866 22.4451147,54.6842685 23.7651037,53.3579759 C25.1062974,52.0103774 26.9590531,51.1741207 28.9973494,51.1741207 C31.0356457,51.1741207 32.891052,52.0130407 34.2295951,53.3579759 C35.5495841,54.6842685 36.3765652,56.5059234 36.403071,58.5166682 L36.4083722,58.5166682 Z M31.3643177,56.2422628 C30.7546842,55.6297181 29.9197514,55.2515382 29,55.2515382 C28.0802486,55.2515382 27.2426652,55.6297181 26.6356823,56.2422628 C26.0286994,56.8548076 25.6496664,57.6937276 25.6496664,58.6178712 L25.6496664,68.8313895 C25.6496664,69.7528699 26.0286994,70.5971164 26.6356823,71.2069979 C27.2453158,71.8195427 28.0802486,72.1977225 29,72.1977225 C29.9197514,72.1977225 30.7573348,71.8168794 31.3643177,71.2069979 C31.9713006,70.5971164 32.3503336,69.7555331 32.3503336,68.8313895 L32.3503336,58.6178712 C32.3503336,57.6937276 31.9713006,56.8521444 31.3643177,56.2422628 L31.3643177,56.2422628 Z M44.8796271,33.4742401 C46.5494927,34.5741574 48.1000823,35.8418588 49.5075404,37.2560382 C49.624166,37.3732207 49.7407915,37.4930664 49.8547665,37.6129121 L49.8547665,25.0317752 C49.8547665,19.2711911 47.5090028,14.0326017 43.7266246,10.2348241 C39.946897,6.43704656 34.7332054,4.08008082 29,4.08008082 C23.2667946,4.08008082 18.053103,6.43704656 14.2733754,10.2348241 C10.4936477,14.0326017 8.14523353,19.2711911 8.14523353,25.0317752 L8.14523353,37.6129121 C8.25920848,37.4930664 8.37583402,37.3732207 8.49245956,37.2560382 C9.89991774,35.8418588 11.4505073,34.5741574 13.1203729,33.4742401 L13.1203729,25.0317752 C13.1203729,20.6427587 14.9068641,16.653228 17.7827438,13.7609514 C20.6612741,10.871338 24.6291929,9.07631555 29,9.07631555 C33.3681565,9.07631555 37.3387259,10.871338 40.2172562,13.7609514 C43.0931359,16.6505648 44.8796271,20.6400955 44.8796271,25.0317752 L44.8796271,33.4742401 Z M53.912805,42.9367251 C56.5103738,47.3017724 58,52.4071999 58,57.8615116 C58,65.907154 54.7556896,73.1911103 49.5075404,78.4643218 C44.2593913,83.7375333 37.0100539,87 29,87 C20.9925967,87 13.7432593,83.7375333 8.49245956,78.4643218 C3.24431039,73.1911103 0,65.907154 0,57.8615116 C0,52.4071999 1.49227676,47.3017724 4.08719495,42.9367251 L4.08719495,25.0317752 C4.08719495,18.1446414 6.88885842,11.8860318 11.4027968,7.35053724 C15.9167352,2.8150427 22.1455991,0 29,0 C35.8517503,0 42.0806142,2.8150427 46.5972032,7.35320048 C51.1111416,11.888695 53.912805,18.1473046 53.912805,25.0344384 L53.912805,42.9393884 L53.912805,42.9367251 Z M46.6369619,40.1403251 C42.1230235,35.6048306 35.8862078,32.8004408 29,32.8004408 C22.1137922,32.8004408 15.8769765,35.6074938 11.3630381,40.1403251 C10.0350973,41.4746074 8.85558907,42.9606943 7.8510191,44.5692901 L7.82716388,44.6092387 L7.82716388,44.6119019 L7.8245133,44.6172284 C5.43899095,48.460281 4.06068915,53.001102 4.06068915,57.8641749 C4.06068915,64.7832675 6.8517503,71.0498668 11.3656887,75.5853614 C15.8796271,80.1208559 22.1164427,82.9252457 29.0026506,82.9252457 C35.8888584,82.9252457 42.1256741,80.1181927 46.6396125,75.5853614 C51.1535509,71.0498668 53.944612,64.7859308 53.944612,57.8641749 C53.944612,53.001102 52.5663102,48.460281 50.1807879,44.6172284 L50.1781373,44.6119019 L50.1781373,44.6092387 L50.1542821,44.5692901 C49.1497121,42.9606943 47.9702038,41.4772706 46.642263,40.1403251 L46.6369619,40.1403251 Z" id="Shape"></path>
                </g>
            </g>
        </g>
    </g>
</svg>