<?xml version="1.0" encoding="UTF-8"?>
<svg width="100px" height="87px" viewBox="0 0 100 87" version="1.1" xmlns="http://www.w3.org/2000/svg" xmlns:xlink="http://www.w3.org/1999/xlink">
    <title>Group 18</title>
    <g id="Page-1" stroke="none" stroke-width="1" fill="none" fill-rule="evenodd">
        <g id="Group-18">
            <g id="Group-11" fill="#4CFFCB" fill-rule="nonzero">
                <path d="M39.5748345,86.5224626 C38.7524289,86.5224626 38.1031614,85.8735441 38.1031614,85.0515807 C38.1031614,84.2296173 38.7524289,83.5806988 39.53155,83.5806988 C41.6957751,83.5806988 43.8167157,83.0183028 45.7212338,81.936772 L70.1769778,67.8336106 C73.899445,65.6272879 76.1935236,61.5607321 76.1935236,57.234609 L76.1935236,29.2878536 C76.1935236,24.9617304 73.899445,20.8951747 70.1769778,18.6888519 L45.7645183,4.58569052 C43.9032847,3.50415973 41.7390596,2.94176373 39.5748345,2.94176373 C38.7524289,2.94176373 38.1031614,2.29284526 38.1031614,1.47088186 C38.1031614,0.6921797 38.7524289,0 39.53155,0 L58.1871706,0 C61.1305167,0 64.0305784,0.778702163 66.5410796,2.24958403 L92.6849191,17.3044925 C97.1865073,19.9001664 100,24.7454243 100,29.936772 L100,56.5856905 C100,61.7770383 97.2297918,66.5790349 92.7714881,69.21797 L66.4977951,84.359401 L66.4977951,84.359401 C63.9872939,85.7870216 61.1305167,86.5224626 58.2304551,86.5224626 L39.5748345,86.5224626 Z M58.2304551,83.5806988 C60.6543872,83.5806988 63.0350348,82.9317804 65.112691,81.7637271 L91.2565305,66.7088186 C94.8491442,64.6322795 97.0999383,60.7387687 97.0999383,56.5856905 L97.0999383,29.936772 C97.0999383,25.7836938 94.8491442,21.9334443 91.2565305,19.8569052 L65.112691,4.75873544 C63.0350348,3.54742097 60.6543872,2.94176373 58.2304551,2.94176373 L48.751149,2.94176373 L71.4755128,16.0499168 C76.1935236,18.7753744 79.1368698,23.8369384 79.1368698,29.2878536 L79.1368698,57.2778702 C79.1368698,62.7287854 76.1935236,67.7903494 71.4755128,70.515807 L48.751149,83.6239601 L58.2304551,83.6239601 L58.2304551,83.5806988 Z" id="Shape"></path>
                <path d="M39.6006656,86.5224626 C36.9202712,86.5224626 34.2831089,85.8302829 31.9485719,84.4891847 L7.65209367,70.4725458 C2.9397874,67.7470882 0,62.6855241 0,57.234609 L0,29.2878536 C0,23.8369384 2.9397874,18.7753744 7.65209367,16.0499168 L31.9485719,2.03327787 C34.2831089,0.6921797 36.9202712,0 39.6006656,0 C42.28106,0 44.9182222,0.6921797 47.2527592,2.03327787 L71.5492374,16.0499168 C76.2615437,18.7753744 79.2013311,23.8369384 79.2013311,29.2878536 L79.2013311,57.2778702 C79.2013311,62.7287854 76.2615437,67.7903494 71.5492374,70.515807 L47.2527592,84.5324459 C44.9182222,85.8302829 42.28106,86.5224626 39.6006656,86.5224626 C39.6006656,86.5224626 39.6006656,86.5224626 39.6006656,86.5224626 Z M8.9490587,18.6888519 C5.23109228,20.8951747 2.9397874,24.9617304 2.9397874,29.2878536 L2.9397874,57.2778702 C2.9397874,61.6905158 5.31755662,65.7570715 9.12198737,67.9633943 L33.4184656,81.9800333 C35.2774488,83.0615641 37.4390572,83.6239601 39.6006656,83.6239601 C41.7622739,83.6239601 43.8806502,83.0615641 45.7828655,81.9800333 L70.0793437,67.9633943 C73.8837745,65.7570715 76.2615437,61.6905158 76.2615437,57.2778702 L76.2615437,29.2878536 C76.2615437,24.875208 73.8837745,20.8086522 70.0793437,18.6023295 L45.7828655,4.58569052 C43.9238823,3.50415973 41.7622739,2.94176373 39.6006656,2.94176373 C37.4390572,2.94176373 35.320681,3.50415973 33.4184656,4.58569052 L8.9490587,18.6888519 Z" id="Shape"></path>
                <path d="M39.4342762,71.8801997 C39.1743646,71.8801997 38.9144529,71.7936272 38.6978599,71.6637684 L15.0459005,57.9853127 C14.6127144,57.7255952 14.3094842,57.2494464 14.3094842,56.7300114 L14.3094842,29.4596725 C14.3094842,28.9402374 14.5693958,28.4640887 15.0459005,28.2043712 L38.6978599,14.5259155 C38.9144529,14.3960567 39.1743646,14.3094842 39.4342762,14.3094842 C39.6941878,14.3094842 39.9540995,14.3960567 40.1706925,14.5259155 L63.8226519,28.2043712 C64.255838,28.4640887 64.5590682,28.9402374 64.5590682,29.4596725 L64.5590682,56.7732976 C64.5590682,57.2927327 64.2991566,57.7688814 63.8226519,58.028599 L40.1706925,71.7070547 C39.9107809,71.8369134 39.6941878,71.8801997 39.4342762,71.8801997 Z M39.4342762,68.7203033 L61.6134029,55.9075726 L61.6134029,30.2821113 L39.4342762,17.4693806 L17.2551495,30.2821113 L17.2551495,55.9075726 L39.4342762,68.7203033 Z" id="Shape"></path>
                <path d="M57.2157515,11.3144759 C56.3913086,11.3144759 55.7404326,10.6299025 55.7404326,9.81697171 C55.7404326,9.00404088 56.3913086,8.31946755 57.2157515,8.31946755 L76.3948974,8.31946755 C77.2193403,8.31946755 77.8702163,9.00404088 77.8702163,9.81697171 C77.8702163,10.6299025 77.2193403,11.3144759 76.3948974,11.3144759 L57.2157515,11.3144759 Z" id="Path"></path>
                <path d="M74.5179418,22.4625624 C73.6947854,22.4625624 73.0449251,21.7779891 73.0449251,20.9650582 C73.0449251,20.1521274 73.6947854,19.4675541 74.5179418,19.4675541 L94.5336389,19.4675541 C95.3567953,19.4675541 96.0066556,20.1521274 96.0066556,20.9650582 C96.0066556,21.7779891 95.3567953,22.4625624 94.5336389,22.4625624 L74.5179418,22.4625624 Z" id="Path"></path>
                <path d="M77.6772047,33.7770383 C76.8552413,33.7770383 76.2063228,33.0924649 76.2063228,32.2795341 C76.2063228,31.4666033 76.8552413,30.78203 77.6772047,30.78203 L98.5291181,30.78203 C99.3510815,30.78203 100,31.4666033 100,32.2795341 C100,33.0924649 99.3510815,33.7770383 98.5291181,33.7770383 L77.6772047,33.7770383 Z" id="Path"></path>
                <path d="M77.6772047,44.5923461 C76.8552413,44.5923461 76.2063228,43.9077728 76.2063228,43.0948419 C76.2063228,42.2819111 76.8552413,41.5973378 77.6772047,41.5973378 L98.5291181,41.5973378 C99.3510815,41.5973378 100,42.2819111 100,43.0948419 C100,43.9077728 99.3510815,44.5923461 98.5291181,44.5923461 L77.6772047,44.5923461 Z" id="Path"></path>
                <path d="M77.6772047,55.7404326 C76.8552413,55.7404326 76.2063228,55.0558593 76.2063228,54.2429285 C76.2063228,53.4299976 76.8552413,52.7454243 77.6772047,52.7454243 L98.5291181,52.7454243 C99.3510815,52.7454243 100,53.4299976 100,54.2429285 C100,55.0558593 99.3510815,55.7404326 98.5291181,55.7404326 L77.6772047,55.7404326 Z" id="Path"></path>
                <path d="M74.5179418,67.0549085 C73.6947854,67.0549085 73.0449251,66.3703352 73.0449251,65.5574043 C73.0449251,64.7444735 73.6947854,64.0599002 74.5179418,64.0599002 L94.5336389,64.0599002 C95.3567953,64.0599002 96.0066556,64.7444735 96.0066556,65.5574043 C96.0066556,66.3703352 95.3567953,67.0549085 94.5336389,67.0549085 L74.5179418,67.0549085 Z" id="Path"></path>
                <path d="M57.2157515,78.3693844 C56.3913086,78.3693844 55.7404326,77.684811 55.7404326,76.8718802 C55.7404326,76.0589494 56.3913086,75.374376 57.2157515,75.374376 L76.3948974,75.374376 C77.2193403,75.374376 77.8702163,76.0589494 77.8702163,76.8718802 C77.8702163,77.684811 77.2193403,78.3693844 76.3948974,78.3693844 L57.2157515,78.3693844 Z" id="Path"></path>
            </g>
            <g id="Group-17" transform="translate(28.100000, 27.000000)" stroke="#4CFFCB">
                <g id="Group-15" stroke-width="3">
                    <g id="Group-12">
                        <path d="M11,0 C16.2467051,0 20.5,4.4771525 20.5,10 C20.5,10.3443666 20.4834636,10.6846676 20.451181,11.0200712 L20.4512154,15.3686859 C21.4348245,17.0159587 22,18.9419775 22,21 C22,27.0751322 17.0751322,32 11,32 C4.92486775,32 7.43989126e-16,27.0751322 0,21 C-2.52137317e-16,18.9411426 0.565634186,17.0143961 1.54998188,15.3666812 L1.54988147,11.0310499 C1.5168993,10.6920943 1.5,10.3481246 1.5,10 C1.5,4.4771525 5.75329488,0 11,0 Z" id="Combined-Shape"></path>
                        <rect id="Rectangle" x="0" y="10" width="22" height="22" rx="11"></rect>
                    </g>
                </g>
                <g id="Group-16" transform="translate(6.900000, 15.000000)" stroke-width="2.04">
                    <path d="M4,0 C6.209139,0 8,1.790861 8,4 C8,5.4801068 7.19610023,6.77245275 6.00110922,7.46422933 L6,9.33333333 C6,10.4379028 5.1045695,11.3333333 4,11.3333333 C2.8954305,11.3333333 2,10.4379028 2,9.33333333 L1.99987956,7.46480154 C0.804343237,6.77316556 0,5.48051499 0,4 C0,1.790861 1.790861,0 4,0 Z" id="Combined-Shape"></path>
                    <rect id="Rectangle" x="2" y="4" width="4" height="8" rx="2"></rect>
                </g>
            </g>
        </g>
    </g>
</svg>
