<?xml version="1.0" encoding="UTF-8"?>
<svg width="100px" height="82px" viewBox="0 0 100 82" version="1.1" xmlns="http://www.w3.org/2000/svg" xmlns:xlink="http://www.w3.org/1999/xlink">
    <title>netswap</title>
    <g id="Page-1" stroke="none" stroke-width="1" fill="none" fill-rule="evenodd">
        <g id="netswap" fill-rule="nonzero">
            <path d="M98.4563007,0.660681115 L73.1702131,42.5812634 L54.0944258,27.8482405 L94.3783059,0.566724538 L94.4720076,0.472767961 C95.8082419,-0.232222187 97.3310922,-0.138186654 98.4563007,0.684209737 L98.4563007,0.660681115 Z" id="Path" fill="#FFFFFF"></path>
            <path d="M22.0814972,4.1384167 L31.3619079,39.7144035 L1.36553546,81.3300611 C1.06080791,81.1184614 0.756080359,80.7189486 0.54505456,80.4133923 C0.0300886189,79.5914697 -0.158102299,78.4632012 0.146625254,77.5473219 L19.8318677,6.58223516 L19.8318677,6.48819963 C20.230297,5.36032593 21.0507779,4.53785059 22.0814972,4.1384167 Z" id="Path" fill="#FFFFFF"></path>
            <path d="M24.3075044,4.02085255 C24.8232577,4.11488808 25.221687,4.32632985 25.6437386,4.63180716 L73.26234,42.4873068 L31.3619079,39.73809 L22.0814972,4.16186637 C22.784654,3.85638906 23.5106458,3.85638906 24.3311267,4.06790979 L24.3075044,4.02085255 Z" id="Path" fill="#FFFFFF"></path>
            <path d="M31.3634827,39.715193 L50.43927,53.4146936 L5.56164174,81.4477042 C4.22619489,82.2704164 2.49153133,82.1527733 1.39073257,81.2361045 L31.3634827,39.715193 Z" id="Path" fill="#FFFFFF"></path>
            <path d="M98.4539385,0.66076007 C98.7578786,0.872280801 99.0626062,1.27171469 99.3673337,1.57719199 C99.8830871,2.39966734 100.070491,3.31609926 99.9767888,4.23253119 L88.3530469,72.330758 L87.8380809,75.0799749 C87.6270551,76.3014104 86.8065742,77.3357223 85.7049881,77.8291917 L73.1678509,42.4407233 L98.4539385,0.66076007 Z" id="Path" fill="#FFFFFF"></path>
            <path d="M31.3611204,39.715193 L73.26234,42.4644098 L85.7994772,77.8528782 C85.1900221,78.1576449 84.4640304,78.2516015 83.6671718,78.1576449 C83.1514184,78.0636883 82.5419633,77.8528782 82.143534,77.5473219 L31.3611204,39.715193 Z" id="Path" fill="#FFFFFF"></path>
            <path d="M98.4563007,0.660681115 L73.1702131,42.5812634 L54.0944258,27.8482405 L94.3783059,0.566724538 L94.4720076,0.472767961 C95.8082419,-0.232222187 97.3310922,-0.138186654 98.4563007,0.684209737 L98.4563007,0.660681115 Z" id="Path" fill="#008CFF"></path>
            <path d="M22.0814972,4.1384167 L31.3619079,39.7144035 L1.36553546,81.3300611 C1.06080791,81.1184614 0.756080359,80.7189486 0.54505456,80.4133923 C0.0300886189,79.5914697 -0.158102299,78.4632012 0.146625254,77.5473219 L19.8318677,6.58223516 L19.8318677,6.48819963 C20.230297,5.36032593 21.0507779,4.53785059 22.0814972,4.1384167 Z" id="Path" fill="#0031D3"></path>
            <path d="M24.3075044,4.02085255 C24.8232577,4.11488808 25.221687,4.32632985 25.6437386,4.63180716 L73.26234,42.4873068 L31.3619079,39.73809 L22.0814972,4.16186637 C22.784654,3.85638906 23.5106458,3.85638906 24.3311267,4.06790979 L24.3075044,4.02085255 Z" id="Path" fill="#0051FB"></path>
            <path d="M31.3634827,39.715193 L50.43927,53.4146936 L5.56164174,81.4477042 C4.22619489,82.2704164 2.49153133,82.1527733 1.39073257,81.2361045 L31.3634827,39.715193 Z" id="Path" fill="#001284"></path>
            <path d="M98.4539385,0.66076007 C98.7578786,0.872280801 99.0626062,1.27171469 99.3673337,1.57719199 C99.8830871,2.39966734 100.070491,3.31609926 99.9767888,4.23253119 L88.3530469,72.330758 L87.8380809,75.0799749 C87.6270551,76.3014104 86.8065742,77.3357223 85.7049881,77.8291917 L73.1678509,42.4407233 L98.4539385,0.66076007 Z" id="Path" fill="#007CFF"></path>
            <path d="M31.3611204,39.715193 L73.26234,42.4644098 L85.7994772,77.8528782 C85.1900221,78.1576449 84.4640304,78.2516015 83.6671718,78.1576449 C83.1514184,78.0636883 82.5419633,77.8528782 82.143534,77.5473219 L31.3611204,39.715193 Z" id="Path" fill="#0064FF"></path>
        </g>
    </g>
</svg>