<?xml version="1.0" encoding="UTF-8"?>
<svg width="100px" height="104px" viewBox="0 0 100 104" version="1.1" xmlns="http://www.w3.org/2000/svg" xmlns:xlink="http://www.w3.org/1999/xlink">
    <title>bunny-color</title>
    <g id="Page-1" stroke="none" stroke-width="1" fill="none" fill-rule="evenodd">
        <g id="bunny-color">
            <path d="M49.9613076,103.845711 C34.541495,103.834208 22.120553,100.171501 13.4418986,93.5927467 C4.65919311,86.9350386 0,77.4867714 0,66.7956414 C0,56.4945726 4.64899713,49.0667287 9.90928199,44.0458139 C14.0316964,40.1110577 18.5808776,37.5910317 21.7485307,36.1414783 C21.0321984,33.9653442 20.1385084,31.1164328 19.338935,28.1739276 C18.2690377,24.2364524 17.2194278,19.616736 17.2194278,16.231412 C17.2194278,12.2244473 18.1019806,8.20033255 20.4815636,5.07344237 C22.9956811,1.76979064 26.7804781,0 31.3337377,0 C34.8922887,0 37.9134859,1.30666869 40.2787422,3.56080459 C42.5396336,5.7154435 44.0443499,8.57685148 45.0832932,11.5597223 C46.9089474,16.8011315 47.6197896,23.3861084 47.8191601,29.9575952 L52.1803694,29.9575952 C52.3801058,23.3861084 53.0906866,16.8011315 54.9165499,11.5597223 C55.9554933,8.57685148 57.4603141,5.7154435 59.7212055,3.56080459 C62.0861481,1.30666869 65.107293,0 68.6659486,0 C73.2191036,0 77.004162,1.76979064 79.5181227,5.07344237 C81.8977056,8.20033255 82.7803108,12.2244473 82.7803108,16.231412 C82.7803108,19.616736 81.73091,24.2364524 80.6605944,28.1739276 C79.8611256,31.1164328 78.9675402,33.9653442 78.2512078,36.1414783 C81.4187564,37.5910317 85.9682513,40.1110577 90.0905611,44.0458139 C95.3506369,49.0667287 100,56.4945726 100,66.7956414 C100,77.4867714 95.3407023,86.9350386 86.5580491,93.5927467 C77.8789241,100.171501 65.458139,103.834208 50.0384833,103.845711 L49.9613076,103.845711 Z" id="Path" fill="#633001"></path>
            <path d="M31.3336331,3.81085165 C24.664631,3.81085165 21.5947546,8.78615648 21.5947546,15.6668688 C21.5947546,21.1360404 25.1616715,32.0893376 26.6251856,36.3532408 C26.9543848,37.3122895 26.4371614,38.3630498 25.4937988,38.7349675 C20.1488612,40.842501 4.37532679,48.5589693 4.37532679,66.2314642 C4.37532679,84.8472173 20.4048062,98.8836718 49.9644971,98.9061552 C49.9762617,98.9061552 49.9880263,98.9061552 49.9997909,98.9061552 C50.0115554,98.9061552 50.02332,98.9061552 50.0350846,98.9061552 C79.5949846,98.8836718 95.624098,84.8472173 95.624098,66.2314642 C95.624098,48.5589693 79.8506682,40.842501 74.5058875,38.7349675 C73.5626294,38.3630498 73.0449878,37.3122895 73.3743961,36.3532408 C74.8379102,32.0893376 78.4049317,21.1360404 78.4049317,15.6668688 C78.4049317,8.78615648 75.3351599,3.81085165 68.6659486,3.81085165 C59.066049,3.81085165 56.6733943,17.4092297 56.5024157,32.0035869 C56.4909125,32.9779035 55.7034698,33.7684312 54.7288394,33.7684312 L45.2704808,33.7684312 C44.2961119,33.7684312 43.50846,32.9779035 43.4970615,32.0035869 C43.3263966,17.4092297 40.9334281,3.81085165 31.3336331,3.81085165 Z" id="Path" fill="#D1884F" fill-rule="nonzero"></path>
            <path d="M50.0350846,92.9428189 C28.316096,92.9428189 4.41286889,81.3167967 4.37532679,66.2670194 C4.37532679,66.2900257 4.37532679,66.3135549 4.37532679,66.3370841 C4.37532679,84.9680003 20.4303223,99.011775 50.0350846,99.011775 C79.6399515,99.011775 95.6946855,84.9680003 95.6946855,66.3370841 C95.6946855,66.3135549 95.6946855,66.2900257 95.6946855,66.2670194 C95.6570389,81.3167967 71.7540209,92.9428189 50.0350846,92.9428189 Z" id="Path" fill="#FEDC90" fill-rule="nonzero"></path>
            <path d="M37.9674461,61.6443227 C37.9674461,66.7255767 35.566164,69.3718236 32.6039989,69.3718236 C29.6418861,69.3718236 27.2405517,66.7255767 27.2405517,61.6443227 C27.2405517,56.5630686 29.6418861,53.9168218 32.6039989,53.9168218 C35.566164,53.9168218 37.9674461,56.5630686 37.9674461,61.6443227 Z" id="Path" fill="#633001" fill-rule="nonzero"></path>
            <path d="M72.8295652,61.6443227 C72.8295652,66.7255767 70.4285445,69.3718236 67.466484,69.3718236 C64.5039006,69.3718236 62.10288,66.7255767 62.10288,61.6443227 C62.10288,56.5630686 64.5039006,53.9168218 67.466484,53.9168218 C70.4285445,53.9168218 72.8295652,56.5630686 72.8295652,61.6443227 Z" id="Path" fill="#633001" fill-rule="nonzero"></path>
        </g>
    </g>
</svg>