<?xml version="1.0" encoding="UTF-8"?>
<svg width="100px" height="106px" viewBox="0 0 100 106" version="1.1" xmlns="http://www.w3.org/2000/svg" xmlns:xlink="http://www.w3.org/1999/xlink">
    <title>quickswap</title>
    <defs>
        <linearGradient x1="50.4955095%" y1="94.1950094%" x2="49.4716854%" y2="6.16904961%" id="linearGradient-1">
            <stop stop-color="#5591CD" offset="0%"></stop>
            <stop stop-color="#5DA0D3" offset="100%"></stop>
        </linearGradient>
    </defs>
    <g id="Page-1" stroke="none" stroke-width="1" fill="none" fill-rule="evenodd">
        <g id="quickswap" fill-rule="nonzero">
            <g>
                <path d="M52.8827959,55.0603469 C50.763631,53.8067839 48.4518148,53.0835744 46.0436729,52.5050069 C42.9130884,51.7817974 39.6861783,51.4442996 36.507431,51.6371555 C34.2437776,51.7335834 31.9801243,52.0710812 29.9091223,53.0835744 C29.6683081,53.1800023 29.4274939,53.3246442 29.1866797,53.5175001 C27.5009804,54.6264213 27.2120033,56.1692681 28.4642371,57.8085429 C28.7050513,58.1460406 28.9940283,58.4835384 29.3311682,58.8692501 C28.2234229,58.8692501 27.2601662,58.6763943 26.2969094,58.4835384 C23.6961162,57.9531848 21.2879743,57.0853334 19.1688094,55.3978447 C18.1573898,54.5782073 17.4831101,53.9996397 16.8088304,52.8907186 C17.0978074,52.4567929 17.4831101,52.0710812 17.9165756,51.8300114 C18.7353439,51.4925136 19.3132979,50.8657321 20.1320662,50.4800204 C23.7924419,48.7925316 27.6936317,47.7800384 31.6911472,47.3943267 C33.2805209,47.2496848 34.8698945,47.1050429 36.507431,47.1532568 C41.2273891,47.3461127 45.9473472,48.1657501 50.4264911,49.612169 C51.5823992,49.9496668 52.7383073,50.3835924 53.9423783,50.7693041 C53.9423783,50.4318064 53.7497269,50.2389505 53.6052384,49.9978807 C53.1236101,49.1782433 52.545656,48.4068199 51.9195391,47.6353965 C51.6787249,47.3461127 51.3897479,47.1532568 51.3897479,46.7193312 C52.0158648,46.8639731 52.6901445,47.0086149 53.3162614,47.1532568 C53.5089128,47.2014708 53.7015641,47.2978987 53.7978898,47.1532568 C53.9423783,46.960401 53.7497269,46.8157591 53.6052384,46.6711172 C52.6419817,45.2729122 51.4860736,44.0675631 50.2338398,42.958642 C50.9081195,42.5729303 51.5823992,42.910428 52.256679,42.958642 C58.9031506,43.8264933 64.9716681,46.1889776 70.2695803,50.3353785 C77.3013546,55.8317704 81.8286614,62.9674371 83.707012,71.6941645 C84.3331289,74.6352164 84.5257803,77.6244821 84.2849661,80.5655339 C83.8996634,85.7244281 82.2621269,90.4976105 79.2278681,94.7404394 C79.0352168,95.0297231 78.7462397,95.222579 78.6017512,95.5600767 C77.9274715,96.57257 76.8678891,97.2957795 75.9527952,98.0672029 C70.8956972,102.16539 64.9716681,104.335018 58.6141736,105.347511 C53.6534013,106.118935 48.6444661,106.215363 43.635531,105.588581 C35.7849885,104.624302 28.3197486,101.779678 21.8177655,97.3439934 C20.2283919,96.2832862 18.6871811,95.1261511 17.2904588,93.824374 C17.2422959,93.7761601 17.2422959,93.7279461 17.2904588,93.6797322 L17.2904588,93.6797322 C17.5794358,93.5833042 17.7720871,93.7761601 17.9647385,93.920802 C21.2879743,96.4279281 25.0928385,98.2600587 29.090354,99.3207659 C30.4389135,99.6582637 31.7874729,99.9475475 33.1841952,100.140403 C33.4731722,100.236831 33.8584749,100.188617 34.147452,100.236831 C34.1956148,100.236831 34.2919405,100.236831 34.3401033,100.285045 C37.4706878,100.670757 40.6012722,100.429687 43.6836939,99.8993335 C50.474654,98.6939844 56.4950087,95.8493605 61.6484323,91.2690339 C65.1643195,88.1833402 67.9577641,84.470865 69.4026492,79.9387524 C70.8956972,75.4066398 70.654883,71.019169 68.583881,66.6316983 C68.1504154,68.6084708 67.1389958,70.1995317 65.8385992,71.6941645 C64.5382026,73.1405835 63.0451546,74.3941465 61.3594553,75.3102118 C61.166804,75.4066398 60.9259898,75.6477096 60.7333384,75.4548537 C60.5406871,75.3102118 60.6370127,75.0209281 60.7333384,74.8762862 C61.166804,73.5262952 61.4076181,72.1280902 61.5521067,70.7298853 C62.1300607,64.7995677 59.8664073,60.1710271 55.1464492,56.6996217 C54.3758438,56.1210542 53.5570756,55.5907006 52.6901445,55.1567749 L52.8827959,55.0603469 Z" id="Path" fill="#262F71"></path>
                <path d="M33.3286837,100.092189 C31.5948216,99.8993335 29.8609594,99.5618358 28.2234229,99.0314822 C25.0928385,98.0672029 22.1067425,96.6689979 19.3132979,94.8850813 C18.6390182,94.4511556 18.109227,93.872588 17.3867844,93.5350903 C16.9533189,93.4868763 16.8088304,93.0529506 16.4716905,92.9083087 C9.53624188,86.7369213 4.81628378,79.167329 2.11916486,70.3441736 C0.818768242,66.0531307 0.0963256755,61.6174461 0,57.0853334 C0,56.7478357 0.0481628378,56.4103379 0.0481628378,55.8799843 C0.385302702,56.6514078 0.626116891,57.2299753 0.915093917,57.8085429 C3.41956148,63.3049348 6.59830877,68.2709731 10.981127,72.417374 C15.6529223,76.8048447 21.0953229,79.7941105 27.4528175,80.8066037 C34.9662202,82.0119529 41.9498317,80.7101758 48.403652,76.6602028 C51.6305621,74.6352164 54.2313553,72.0316623 55.7725661,68.5120429 C57.602754,64.2210001 56.9284742,60.2192411 54.0868668,56.5067659 C53.8460526,56.1692681 53.5570756,55.8799843 53.3162614,55.5424866 C53.6534013,55.2532028 53.8460526,55.5907006 54.038704,55.7353424 C55.7244033,57.1335474 57.0247999,58.8692501 57.891731,60.8460226 C58.7586621,62.7745812 59.1921276,64.7995677 59.2402904,66.8727681 C59.2884533,68.9941826 58.8068249,71.115597 57.891731,73.0441555 C58.0843823,73.0441555 58.2770337,72.9959416 58.4215222,72.8512997 C59.3366161,72.3209461 60.1553844,71.7423785 60.9259898,71.067383 C61.166804,70.8745272 61.4076181,70.5370294 61.7929208,70.5852434 C61.6002695,72.1763042 61.2149668,73.815579 60.7333384,75.3584258 C61.744758,74.7798582 62.7561776,74.1048627 63.7194344,73.3816533 C64.4418769,72.8030857 65.0679938,72.0798763 65.7904364,71.4530947 C66.0794134,71.5977366 66.0794134,71.8870204 66.1757391,72.1763042 C67.37981,76.467347 66.5128789,80.469106 64.3937141,84.2297952 C61.8410837,88.8101218 58.0362195,92.2333132 53.6534013,94.9815092 C50.0893513,97.1993515 46.2363243,98.7904123 42.0943202,99.7064777 C39.5416898,100.285045 36.8927337,100.429687 34.2437776,100.188617 L34.2437776,100.188617 C33.9066378,99.9957614 33.5213351,100.188617 33.2323581,100.043975 L33.3286837,100.092189 Z" id="Path" fill="#161F42"></path>
                <path d="M98.1558634,68.3191871 C97.9150492,63.4013627 96.7109782,58.6281803 94.5918134,54.1924956 C93.1950911,51.2996578 91.4612289,48.5996758 89.3902269,46.1889776 C87.5118762,43.9711352 85.3927114,42.0907906 83.129058,40.3068739 C83.3217093,40.1140181 83.6106864,40.1140181 83.8515005,40.1622321 C86.982085,40.4997298 90.1126695,41.2711532 93.0506026,42.3800744 C93.7730451,42.6693582 94.4954877,42.958642 95.1697674,43.3925676 C95.4105816,43.4889956 95.6513958,43.6336375 95.89221,43.8264933 C95.9403728,43.8747073 95.9885357,43.9229213 96.0848613,43.9229213 C96.0366985,43.8747073 96.0366985,43.7782794 96.0366985,43.6818514 C94.0138593,41.0300834 91.5575546,38.8122411 88.9567613,36.7390406 C85.8743397,34.2319145 82.5511039,32.1105001 78.9870539,30.4230113 C74.0262816,27.9640991 68.7765323,26.3730383 63.2859688,25.6980428 C62.8043404,25.6498289 62.2745492,25.6980428 61.8410837,25.505187 C61.7929208,25.1676892 62.0818979,25.0712613 62.2745492,24.9266194 C65.5014594,22.2266374 68.0540898,19.0927298 69.8842776,15.3320406 C70.4140688,14.2231194 70.8956972,13.0177703 71.2809999,11.8124212 C71.3773256,11.4749234 71.4736512,11.0892117 71.8107911,10.8963559 C77.5421688,13.6445518 82.6955924,17.501669 86.982085,22.2266374 C98.3485147,34.7622681 102.635007,52.1675091 98.3966775,68.5602569 C98.3003519,68.6084708 98.252189,68.5120429 98.2040262,68.415615 L98.1558634,68.3191871 Z" id="Path" fill="#4189C9"></path>
                <path d="M78.6980769,95.4636488 C78.6980769,94.9815092 79.0833796,94.6922254 79.3723566,94.3065137 C81.7323357,90.9797502 83.129058,87.2672749 83.8996634,83.217302 C84.3812918,80.7101758 84.3812918,78.2030497 84.2368032,75.7441375 C83.9959891,71.9352344 82.9845695,68.2227591 81.4433587,64.7031398 C80.3356134,62.0995857 78.8907283,59.6406735 77.2050289,57.3746172 C75.4230039,55.012133 73.3038391,52.7942906 70.9920229,50.913946 C67.4279729,47.9728942 63.3341317,45.7550519 58.9031506,44.3568469 C56.5431715,43.5854235 54.1350296,43.1032839 51.6787249,42.862214 C51.2452594,42.8140001 50.8117938,42.7175721 50.3301655,42.7657861 C48.7889547,41.608651 47.199581,40.4997298 45.3693932,39.6800924 L45.3693932,39.4872366 C45.9955101,39.4872366 46.6697898,39.4872366 47.2959067,39.4872366 C56.2541945,39.3425947 64.5863654,41.512223 71.8107911,47.0086149 C79.3241938,52.6978627 83.9959891,60.1710271 85.7298512,69.4281082 C87.2228992,77.3351983 86.0669911,84.8083628 81.6841728,91.6065317 C80.8172418,93.0047367 79.9021478,94.3065137 78.6499141,95.3672209 L78.6980769,95.4636488 Z" id="Path" fill="#161F42"></path>
                <path d="M71.8107911,10.7999279 C70.8956972,13.5481239 69.7879519,16.1998919 68.1504154,18.6105901 C66.5128789,21.0695023 64.5382026,23.2391307 62.2745492,25.0712613 C62.1300607,25.1676892 62.033735,25.3123311 61.8892465,25.4087591 C61.1186411,25.7944708 60.4443614,26.4212523 59.7219188,26.9033919 C57.0729627,28.6390946 54.2313553,30.1337275 51.2452594,31.2908627 C51.1970965,31.2908627 51.1007709,31.3390766 51.0044452,31.3390766 C50.8599567,31.1462208 51.0044452,31.0980068 51.1007709,31.0015789 C52.7864702,29.4105181 53.8460526,27.4337455 54.5203323,25.2159032 C54.5684952,24.9266194 54.8093094,24.6855496 55.0501236,24.5891217 C60.2998729,22.5159212 64.4418769,19.0927298 67.8614384,14.6570451 C68.1504154,14.2713334 68.4875553,13.8374077 68.872858,13.355268 C67.8132756,13.355268 66.9945073,13.8856216 66.1275762,14.0302635 C65.9349249,14.0302635 65.7422735,14.1749054 65.6941107,13.8374077 C68.9210208,10.0285045 71.3773256,5.64103379 72.8703735,0.867851353 C72.9666992,0.578567569 72.8703735,0.144641892 73.3038391,1.422594e-14 C73.3520019,1.422594e-14 73.3520019,0.0482139641 73.3520019,0.0964279281 C73.3520019,0.144641892 73.3520019,0.144641892 73.3520019,0.144641892 C73.3038391,3.51961938 72.8222107,6.94281082 71.9071168,10.2213604 C71.8589539,10.4142162 71.8107911,10.6070721 71.8107911,10.8481419 L71.8107911,10.7999279 Z" id="Path" fill="#161F42"></path>
                <path d="M51.4860736,46.6229032 C52.545656,47.7800384 53.4607499,49.0818154 54.2313553,50.4800204 C54.2795182,50.6246623 54.4721695,50.7693041 54.327681,50.913946 C54.1831925,51.010374 54.038704,50.8657321 53.8942155,50.8175181 C50.4264911,49.5157411 46.8142783,48.5514618 43.1539026,47.8764663 C41.3237148,47.5389686 39.4453641,47.3943267 37.5670135,47.2978987 C35.8813141,47.2014708 34.1956148,47.2014708 32.5099155,47.3461127 C28.6568885,47.6353965 24.94835,48.4550339 21.3843,50.0460947 C20.2765547,50.5282343 19.1688094,51.1068019 18.1573898,51.7817974 C18.0610642,51.8300114 18.0129013,51.9746532 17.8684128,51.8300114 C20.9508344,49.660383 24.2740702,47.8282523 27.9344459,46.7675451 C32.943381,45.2729122 38.0486418,44.9354145 43.2020655,45.3211262 C45.8510215,45.5139821 48.4518148,45.9479077 51.052608,46.5264753 C51.2452594,46.5264753 51.3415851,46.5746893 51.4860736,46.6229032 Z" id="Path" fill="#161F42"></path>
                <path d="M95.3142559,43.4889956 C92.2799972,42.0425767 89.1012499,41.1265113 85.7780141,40.5961577 C84.8629201,40.4515158 83.9959891,40.25866 83.129058,40.25866 C81.9731499,39.5354505 80.8654046,38.7640271 79.6613337,38.0890316 C75.8564695,35.8711893 71.6663026,34.3765564 67.2834844,33.6533469 C67.1871587,33.6051329 67.090833,33.6051329 66.9945073,33.556919 C68.2949039,33.3158492 72.7740479,33.9908447 75.8564695,34.858696 C78.7462397,35.6301194 81.4915215,36.7390406 84.1886404,38.1372456 C83.8996634,37.3176082 83.418035,36.7390406 83.0808951,36.0640451 C83.0327323,35.8711893 82.7919181,35.7265474 82.9845695,35.5336915 C83.129058,35.3408356 83.3217093,35.5336915 83.5143607,35.6301194 C83.9478262,35.8229753 84.3812918,36.0640451 84.8147573,36.3051149 C88.5714586,38.2336735 92.0873458,40.5961577 95.3624188,43.2479258 C95.5550701,43.4889956 95.5550701,43.4889956 95.3142559,43.5372095 L95.3142559,43.4889956 Z" id="Path" fill="#161F42"></path>
                <path d="M45.417556,26.2766104 C46.7661155,25.6016149 48.2110006,25.0230473 49.3669087,24.0587681 C49.6077229,24.0587681 49.6077229,24.20341 49.5113972,24.3480518 C48.403652,28.8801645 44.9840905,31.8694302 40.360458,32.3033559 C39.4453641,32.3997838 38.578433,32.4962118 37.6633391,32.3997838 C37.7596648,32.0622861 38.0968047,32.1105001 38.3376189,32.0140721 C39.3490385,31.7247883 40.360458,31.4355046 41.275552,30.9533649 C43.0094141,30.0372996 44.3098107,28.6873086 45.0322533,26.855178 C45.0804161,26.6141082 45.2249047,26.3730383 45.3693932,26.2283964 L45.417556,26.2766104 Z" id="Path" fill="#161F42"></path>
                <path d="M45.417556,26.2766104 C44.839602,28.4462388 43.4910425,29.9408717 41.564529,31.0015789 C40.360458,31.6765744 39.0118986,32.0140721 37.6633391,32.3997838 C37.3261993,31.4355046 37.711502,30.6158672 38.2412932,29.8926577 C38.9155729,29.0248064 39.8306668,28.4944528 40.7939236,28.0605271 C42.2869716,27.3855316 43.8281824,26.806964 45.3693932,26.2766104 L45.417556,26.2766104 Z" id="Path" fill="#418AC9"></path>
                <path d="M21.9140912,43.3925676 C22.0104169,43.6818514 21.673277,43.8264933 21.7214398,44.0675631 C21.5287885,43.2961397 21.1434858,43.0068559 20.3247175,43.1514978 C19.5059493,43.3443537 18.7353439,43.7782794 18.1573898,44.4050609 C18.0129013,44.5979167 17.82025,44.7425586 17.6275986,44.8872005 C17.4831101,44.6943447 17.6275986,44.5497028 17.6757615,44.4050609 C18.0129013,43.2961397 18.7835067,42.5247163 19.6986006,41.8497208 C19.891252,41.7050789 20.1320662,41.608651 20.4210432,41.512223 C21.5287885,41.2711532 22.1067425,41.8015068 21.962254,42.910428 C21.962254,43.0550699 21.962254,43.1997118 21.8659283,43.3443537 L21.9140912,43.3925676 Z" id="Path" fill="#428AC9"></path>
                <path d="M21.9140912,43.3925676 C21.9140912,43.1997118 21.9140912,43.0550699 21.9140912,42.862214 C21.9140912,41.7532929 21.2879743,41.3193672 20.2283919,41.8015068 C19.0243209,42.3318604 18.2537155,43.3443537 17.7239243,44.5014888 C17.6275986,44.5014888 17.5312729,44.5014888 17.5794358,44.3568469 C17.9647385,42.958642 18.6871811,41.8015068 19.891252,40.9818694 C20.180229,40.7890136 20.5655317,40.6443717 20.9026716,40.5961577 C21.4806256,40.4997298 22.0104169,40.8372276 22.1549054,41.3675812 C22.3475567,42.0425767 22.251231,42.7657861 21.8659283,43.3925676 L21.9140912,43.3925676 Z" id="Path" fill="#182144"></path>
                <path d="M84.7665945,36.256901 C84.2849661,36.208687 83.9478262,35.8711893 83.5143607,35.7265474 C83.3217093,35.6783334 83.1772208,35.4372636 83.0327323,35.5819055 C82.8882438,35.6783334 83.129058,35.8711893 83.0808951,36.0640451 C82.840081,35.8229753 82.7437553,35.4854775 82.5992668,35.1479798 C83.3698722,35.4372636 84.1404776,35.7747613 84.8147573,36.256901 L84.7665945,36.256901 Z" id="Path" fill="#63657D"></path>
                <path d="M95.3142559,43.4889956 C95.4587444,43.3925676 95.3142559,43.2961397 95.3142559,43.1997118 L96.0366985,43.6336375 L96.4220012,44.1639911 C95.9403728,44.0193492 95.603233,43.7300654 95.2660931,43.5372095 L95.3142559,43.4889956 Z" id="Path" fill="#263154"></path>
                <path d="M16.5198534,92.9083087 C16.9051561,92.9565227 17.0978074,93.3904484 17.4349473,93.5350903 L17.4349473,93.6797322 C17.0978074,93.4868763 16.7606675,93.2458065 16.5198534,92.9083087 Z" id="Path" fill="#424A7F"></path>
                <path d="M98.1558634,68.3191871 L98.3966775,68.463829 C98.4448404,68.7048988 98.3003519,68.9459686 98.1558634,69.2352524 L98.1558634,68.3191871 Z" id="Path" fill="#8CB7DE"></path>
                <path d="M65.7422735,13.8856216 C65.8385992,14.0784775 66.0312506,13.9820496 66.1757391,14.0784775 L65.5014594,14.3677613 C65.4532965,14.0784775 65.597785,14.0302635 65.7422735,13.9338356 L65.7422735,13.8856216 Z" id="Path" fill="#5A5D76"></path>
                <path d="M17.6275986,44.3568469 L17.7720871,44.5014888 C17.7239243,44.5979167 17.6757615,44.7425586 17.6757615,44.8872005 L17.3867844,45.2246983 C17.4349473,44.7907726 17.4831101,44.5497028 17.6275986,44.308633 L17.6275986,44.3568469 Z" id="Path" fill="#4F668A"></path>
                <path d="M49.5595601,24.3480518 C49.5113972,24.2516239 49.5595601,24.106982 49.4150715,24.0587681 C49.4632344,23.9623401 49.5595601,23.8176982 49.6077229,23.8659122 C49.7522114,24.0105541 49.7040486,24.20341 49.5595601,24.3480518 Z" id="Path" fill="#555A73"></path>
                <path d="M61.8892465,70.6334573 C60.5888499,71.6941645 59.3366161,72.7548718 57.602754,73.5262952 C58.0843823,72.5138019 58.469685,71.5013087 58.7104992,70.3923875 C59.7219188,65.9084889 58.7586621,61.8585159 56.1578688,58.1942546 C55.4835891,57.2781893 54.616658,56.6031938 53.8460526,55.7835564 C53.7497269,55.6389145 53.6052384,55.4942726 53.3644242,55.5907006 C53.1236101,55.4942726 53.0272844,55.2532028 52.834633,55.0603469 C52.9309587,54.9157051 53.0754472,55.012133 53.1717729,55.0603469 C56.2541945,56.8442636 58.8549877,59.1103199 60.4443614,62.3888695 C61.2149668,63.9799303 61.6965952,65.763847 61.8410837,67.5477636 C61.9374094,68.5602569 61.9374094,69.6209641 61.7929208,70.6334573 L61.8892465,70.6334573 Z" id="Path" fill="#0E1F66"></path>
                <path d="M34.3401033,100.236831 C38.5302702,100.429687 42.7204371,99.7546916 46.6697898,98.3082727 C50.474654,96.9100677 54.038704,94.9332952 57.2174513,92.3779551 C60.2998729,89.870829 62.9969918,86.9779911 64.7790168,83.3619438 C65.7422735,81.4333853 66.3202276,79.3119709 66.5128789,77.1905564 C66.7055303,75.2619979 66.3683904,73.4298672 65.8385992,71.5977366 C65.8867621,71.1638109 66.3202276,70.9227411 66.5610418,70.6334573 C67.4761357,69.4281082 68.1504154,68.1263312 68.4393925,66.5834844 C68.4875553,66.3906285 68.5357181,66.1977726 68.6320438,66.0049168 C69.2099979,67.1620519 69.6916262,68.367401 69.9806033,69.6209641 C70.4140688,71.4048808 70.7030458,73.1887974 70.5585573,75.0209281 C70.3177431,78.1548357 69.3544864,81.2405294 67.8132756,83.9887254 C66.2239019,86.7851353 64.2010627,89.1476195 61.8892465,91.2690339 C59.8182445,93.1011646 57.5545911,94.6922254 55.1464492,95.9940024 C52.2085161,97.5850632 49.0779317,98.7904123 45.8510215,99.5618358 C43.8281824,100.043975 41.7571803,100.333259 39.6861783,100.477901 C38.6747587,100.526115 37.6633391,100.622543 36.7000824,100.574329 C35.9776398,100.526115 35.1588716,100.574329 34.3882662,100.333259 L34.3401033,100.236831 Z" id="Path" fill="#0E1F66"></path>
                <path d="M32.5580783,30.4230113 L32.5099155,30.4712253 L32.5580783,30.4712253 C32.5580783,33.0747793 33.9548006,33.9908447 36.507431,34.6658402 C33.2805209,35.6783334 32.4135898,33.508705 32.0764499,33.9426307 C30.7278905,35.4372636 25.6226297,40.1140181 22.7810223,38.908669 C20.7581831,38.5229573 21.5769513,35.6301194 21.8659283,34.3283424 L21.8659283,34.2801284 L21.8659283,34.2801284 C21.0471601,34.3765564 20.6136946,35.0515519 19.9875777,35.5336915 C13.7745716,39.9693762 12.474175,46.8157591 14.0635486,54.1442816 C14.2080371,54.8192771 14.4006885,54.6746352 14.7859912,54.3853514 C15.4602709,53.8549978 16.0863878,53.2282163 16.8088304,52.7942906 C17.0014817,52.8425046 17.1459702,52.9871465 17.2422959,53.1317884 C19.2169723,55.6871285 21.8177655,57.2781893 24.9001871,58.0978267 C26.2969094,58.4835384 27.4046547,58.4353244 28.8495398,58.6281803 C28.3679114,58.0978267 28.3679114,57.8567569 28.0789344,57.1817614 C27.597306,56.0728402 27.5009804,54.8192771 28.3197486,53.9514258 C29.3311682,52.8907186 30.9205418,52.5050069 32.2691013,52.1675091 C35.1107087,51.4442996 38.000479,51.2996578 40.8902493,51.4925136 C43.2502283,51.6371555 45.5138817,52.263937 47.8256979,52.9389325 C49.7040486,53.4692861 51.5342364,54.0960677 53.2199357,55.1567749 C53.4607499,55.3496307 53.6052384,55.5907006 53.8460526,55.7835564 C56.0133803,58.0978267 57.2656141,60.7978087 57.3137769,63.9799303 C57.3619398,66.1495587 56.7839857,68.2227591 55.6762405,70.1513177 C53.7015641,73.5745091 50.8599567,76.1298492 47.4403952,78.0101938 C43.9726709,79.9387524 40.1196439,81.1441015 36.1702912,81.5780272 C29.090354,82.3494506 22.4920452,80.8066037 16.4716905,77.0459146 C11.4627554,73.9120069 7.56156553,69.6209641 4.43098107,64.6549258 C2.98609594,62.2924416 0.385302702,57.5192591 0.0481628378,55.8799843 C0.0481628378,55.0603469 0.144488513,55.3496307 0.240814189,53.4692861 C0.43346554,49.9496668 0.963256755,46.4300474 1.87835067,43.0550699 C6.02035472,27.7230293 17.1459702,15.2356126 31.8837986,9.35350903 C36.3147797,7.56959236 40.9865749,6.46067118 45.706533,6.02674551 C53.2199357,5.35175001 60.4443614,6.31602929 67.5724614,8.82315542 C66.4647161,10.8481419 60.3480357,16.3445338 55.5799148,19.5266554 C54.8574722,15.7177523 54.616658,16.2481059 53.3644242,13.5481239 C53.3644242,13.8374077 50.2820026,18.1284505 46.4289756,20.5391487 C42.5277857,22.9980609 32.365427,24.5891217 32.5099155,30.3265834 L32.5580783,30.4230113 Z" id="Path" fill="#5591CD"></path>
                <path d="M32.7988925,32.8819235 L32.7988925,32.8819235 C32.7988925,32.8819235 32.7988925,32.8819235 32.8470554,32.8819235 C32.8470554,33.508705 32.943381,33.9908447 33.1360324,34.4247703 C32.5580783,34.0872726 32.2691013,33.7015609 32.1246128,33.8944167 C30.9205418,35.1961938 26.8748635,38.956883 23.9369304,39.0533109 C23.5516277,38.1854595 23.9369304,36.7872546 24.1295817,36.0158311 C24.1295817,36.0158311 24.1295817,36.0158311 24.1295817,35.9676172 L24.1295817,35.9676172 C23.455302,36.0640451 23.0699993,36.5943987 22.5883709,36.9801104 C22.251231,37.2211802 21.9140912,37.4622501 21.6251142,37.7515339 L21.6251142,37.7515339 C21.2879743,36.6908266 21.7214398,35.0997658 21.9140912,34.2319145 L21.9140912,34.1837005 L21.9140912,34.1837005 C21.0953229,34.2801284 20.6618574,34.9551239 20.0357405,35.4372636 C13.8227344,39.8729483 12.5223378,46.7193312 14.1117115,54.0478537 C13.2929432,61.0388785 5.92402904,67.5477636 4.86444661,65.1852794 C4.76812094,64.9442096 6.59830877,54.1442816 6.5019831,53.9514258 C6.55014594,54.1924956 6.69463445,54.4817794 6.45382026,54.7228492 C6.35749458,53.662142 6.45382026,52.6496487 6.5019831,51.5889415 C6.64647161,48.6961037 7.07993715,45.8514798 7.85054256,43.1032839 C11.2219412,30.6158672 20.2765547,20.4427208 32.3172641,15.6213244 C35.929477,14.1749054 39.7343412,13.2588401 43.5873682,12.9213424 C49.6558857,12.3427748 55.5317519,13.1624122 61.3112925,15.1873987 C59.4811046,16.7302455 57.4582655,18.2730924 55.6280776,19.4784415 C54.905635,15.6695383 54.6648209,16.1998919 53.4125871,13.4999099 C53.4125871,13.7891937 50.3301655,18.0802365 46.4771384,20.4909347 C42.5759486,22.9498469 32.4135898,24.5409077 32.5580783,30.2783694 L32.5099155,30.3265834 L32.5580783,30.3265834 C32.5580783,31.0015789 32.654404,31.5801465 32.8470554,32.0622861 L32.8470554,32.0622861 C32.7988925,32.3033559 32.7988925,32.5444257 32.7988925,32.7854956 L32.7988925,32.8819235 Z M17.5312729,51.1550159 C17.5312729,51.2032298 17.5312729,51.2514438 17.6312729,51.2996578 C17.6312729,51.2514438 17.6312729,51.2032298 17.5312729,51.1550159 Z M17.6757615,51.9746532 C17.6757615,52.0710812 17.7757615,52.1675091 17.7757615,52.263937 C17.7757615,52.1675091 17.6757615,52.0710812 17.6757615,51.9746532 Z" id="Shape" fill="url(#linearGradient-1)"></path>
            </g>
        </g>
    </g>
</svg>