<?xml version="1.0" encoding="UTF-8"?>
<svg width="100px" height="101px" viewBox="0 0 100 101" version="1.1" xmlns="http://www.w3.org/2000/svg" xmlns:xlink="http://www.w3.org/1999/xlink">
    <title>safemoonswap</title>
    <defs>
        <linearGradient x1="50.0484027%" y1="100%" x2="50.0484027%" y2="0%" id="linearGradient-1">
            <stop stop-color="#B5E0DA" offset="0%"></stop>
            <stop stop-color="#3CBAB2" offset="63%"></stop>
            <stop stop-color="#00A89E" offset="97%"></stop>
            <stop stop-color="#00A69C" offset="100%"></stop>
        </linearGradient>
        <linearGradient x1="50%" y1="100.186104%" x2="50%" y2="0.186104218%" id="linearGradient-2">
            <stop stop-color="#B5E0DA" offset="0%"></stop>
            <stop stop-color="#3CBAB2" offset="63%"></stop>
            <stop stop-color="#00A89E" offset="97%"></stop>
            <stop stop-color="#00A69C" offset="100%"></stop>
        </linearGradient>
        <linearGradient x1="50.2686929%" y1="100%" x2="50.2686929%" y2="0%" id="linearGradient-3">
            <stop stop-color="#B5E0DA" offset="0%"></stop>
            <stop stop-color="#3CBAB2" offset="63%"></stop>
            <stop stop-color="#00A89E" offset="97%"></stop>
            <stop stop-color="#00A69C" offset="100%"></stop>
        </linearGradient>
    </defs>
    <g id="Page-1" stroke="none" stroke-width="1" fill="none" fill-rule="evenodd">
        <g id="safemoonswap" fill-rule="nonzero">
            <polygon id="Path" fill="url(#linearGradient-1)" points="47.2662767 59.5463 47.9108961 62.7319046 49.1014092 61.1391023 50.2686929 67.1194038 51.4301692 61.1391023 52.6206823 62.7319046 53.2653017 59.5463"></polygon>
            <path d="M53.4279083,54.4820057 L53.4279083,45.5086361 C53.4279083,43.758304 50.2919224,39.3299636 50.2919224,39.3299636 C50.2919224,39.3299636 47.1268996,43.758304 47.1268996,45.5086361 L47.1268996,54.4820057 C45.0702907,55.1528488 43.2787931,56.4623841 42.0105966,58.221882 L58.5209818,58.221882 C57.2588367,56.4663497 55.4760067,55.1572063 53.4279083,54.4820057 Z" id="Path" fill="#FFFFFF"></path>
            <path d="M88.3186554,63.5954018 C88.3186554,60.9982501 86.2230126,58.8928427 83.6379061,58.8928427 C81.0527996,58.8928427 78.9571567,60.9982501 78.9571567,63.5954018 C78.9571567,66.1925534 81.0527996,68.2979608 83.6379061,68.2979608 C86.221686,68.2947462 88.3154557,66.1912207 88.3186554,63.5954018 L88.3186554,63.5954018 Z M80.8968159,63.5954018 C80.8944721,62.4810431 81.5608238,61.4750981 82.5849084,61.0470146 C83.608993,60.6189311 84.7889334,60.853097 85.5740825,61.6402332 C86.3592316,62.4273695 86.5948135,63.6123084 86.1708883,64.6420704 C85.7469631,65.6718323 84.747099,66.3434233 83.6379061,66.3434233 C82.1276306,66.340229 80.9032047,65.1127041 80.8968159,63.5954018 L80.8968159,63.5954018 Z" id="Shape" fill="url(#linearGradient-2)"></path>
            <path d="M50.2686929,0 C22.5215912,0.0321451251 0.0352017601,22.6206988 0,50.4970828 C0,69.7507365 11.771562,85.2353417 27.3876104,86.5364219 C36.8884863,87.3240714 46.0757636,83.9225926 52.1270549,80.9236901 C55.7397462,79.4305969 59.1011996,77.385828 62.0925213,74.8617064 L62.742948,74.3191035 L62.742948,74.3191035 C63.230768,73.8931893 63.6837438,73.4847785 64.1192974,73.0705332 C69.7873016,67.6736757 76.5412861,57.9651667 76.5412861,42.3463694 L76.5412861,40.6252094 L50.483566,22.6668015 L24.4200385,40.6252094 L24.4200385,42.3405349 C24.4200385,57.9593322 31.174023,67.6678413 36.8420272,73.0646987 C37.5040687,73.6948183 38.2009545,74.313269 38.9210697,74.908382 C41.3020961,74.0448848 43.6715077,73.1580498 45.9886528,72.1253538 C40.0709312,68.2629542 31.493429,59.9138698 30.9243056,44.0325227 L50.483566,30.5491306 L70.037019,44.0325227 C69.5782358,56.8682918 63.8289283,64.750621 58.7997361,69.2022991 L58.1725389,69.6865577 C58.021547,69.8032465 42.9281629,81.3087632 27.9218895,80.0543585 C18.5429686,79.2725435 10.9352991,71.6119231 7.903846,60.9407313 C9.54717553,59.7683493 10.3949695,57.7674074 10.0968872,55.7647709 C9.79880487,53.7621343 8.4054665,52.0978895 6.49265234,51.4597655 C6.49265234,51.1388712 6.49265234,50.8238114 6.49265234,50.4970828 C6.48799522,44.3143333 7.79048517,38.2010964 10.3139093,32.5620126 C11.8482879,33.1900535 13.4888199,33.5149343 15.1456505,33.5188608 C19.6037856,33.5094571 23.731232,31.1545168 26.0230054,27.3127183 C28.3147789,23.4709197 28.4359293,18.7037542 26.3422818,14.7494657 C26.1970972,14.4810814 26.0402979,14.2302005 25.8834986,13.9734851 C35.6395752,7.3873235 47.6239827,5.02424316 59.1341606,7.41713385 C70.6443384,9.81002453 80.7110766,16.7573939 87.0642611,26.6925654 C84.1437372,29.1740648 83.0767355,33.2239282 84.3928471,36.8320634 C85.7089588,40.4401986 89.1279871,42.8384432 92.9529457,42.8364624 C93.0923229,42.8364624 93.2375074,42.8364624 93.3768846,42.8364624 C93.8337178,45.3644347 94.0688508,47.9278078 94.0795777,50.4970828 C94.0795777,73.3097452 76.0128144,91.3381665 50.1757748,94.5062677 C29.513112,97.0559182 16.2606678,88.4384495 16.2606678,88.4384495 C23.9902923,97.0092427 34.797829,101 50.2745003,101 C77.824758,100.700893 100.001592,78.1773568 100,50.497114 C99.9984084,22.8168712 77.8189849,0.295909149 50.2686929,0 Z M8.13033388,57.294206 C8.00798565,57.8619936 7.74195922,58.3884875 7.35795216,58.8228294 C6.99012089,57.126523 6.7359614,55.4073384 6.5971852,53.6768529 C7.81758746,54.4361389 8.43127988,55.8841017 8.13033388,57.294206 L8.13033388,57.294206 Z M24.6232969,15.6654728 C26.7467176,19.6732474 26.1530417,24.5867107 23.1368653,27.967686 C20.1206889,31.3486614 15.3239655,32.4775526 11.1269426,30.7941771 C14.2325411,24.6013478 18.7419815,19.2275564 24.2922761,15.1053665 C24.3910016,15.2862342 24.5245714,15.4729363 24.6291043,15.6654728 L24.6232969,15.6654728 Z M92.9529457,40.8877619 C89.9947634,40.890311 87.3385019,39.0679172 86.2642733,36.2988303 C85.1900448,33.5297435 85.9182597,30.3821255 88.0979749,28.3728843 C90.3596717,32.2651946 92.0109182,36.484374 92.9935974,40.8819248 L92.9529457,40.8877619 Z" id="Shape" fill="url(#linearGradient-3)"></path>
        </g>
    </g>
</svg>