<?xml version="1.0" encoding="UTF-8"?>
<svg width="100px" height="100px" viewBox="0 0 100 100" version="1.1" xmlns="http://www.w3.org/2000/svg" xmlns:xlink="http://www.w3.org/1999/xlink">
    <title>shibaswap</title>
    <g id="Page-1" stroke="none" stroke-width="1" fill="none" fill-rule="evenodd">
        <g id="shibaswap">
            <rect id="Rectangle" x="0" y="0.0231525331" width="100" height="99.9768475"></rect>
            <g id="Group" transform="translate(4.229139, 0.000000)" fill-rule="nonzero">
                <path d="M91.170861,58.7695481 C90.370861,52.8909095 88.570861,46.9322894 85.850861,41.0536507 C86.930861,38.2143083 89.170861,31.6158363 89.810861,24.1775589 L89.850861,23.857633 C90.770861,13.0201427 91.410861,5.18195786 86.810861,1.4228284 C84.290861,-0.65669003 80.690861,-0.456736335 76.170861,2.02268948 C73.490861,3.46235609 71.330861,5.26193934 71.250861,5.30193008 C71.170861,5.34192082 65.210861,10.220791 60.530861,15.6595315 C56.170861,14.3798278 51.010861,13.6999853 45.810861,13.6999853 C40.610861,13.6999853 35.450861,14.3798278 31.090861,15.6595315 C26.450861,10.2607817 20.650861,5.54187451 20.370861,5.30193008 C20.290861,5.2219486 18.130861,3.46235609 15.450861,2.02268948 C10.930861,-0.456736335 7.33086103,-0.65669003 4.81086103,1.4228284 C0.210861025,5.18195786 0.890861025,13.0201427 1.77086103,23.857633 L1.81086103,24.1375681 C2.45086103,31.6158363 4.65086103,38.1743175 5.77086103,41.01366 C3.05086103,46.8922986 1.25086103,52.8509187 0.450861025,58.7295574 C-0.229138975,63.5684368 0.0508610253,66.6477237 0.0908610253,67.0076403 C0.490861025,71.0866957 2.93086103,79.2448065 14.650861,87.6428617 C25.530861,95.4810465 36.850861,99.9600093 45.690861,99.9600093 C45.770861,99.9600093 45.810861,99.9600093 45.890861,99.9600093 C45.970861,99.9600093 46.010861,99.9600093 46.090861,99.9600093 C54.930861,99.9600093 66.250861,95.4810465 77.130861,87.6428617 C88.850861,79.2048157 91.250861,71.0866957 91.690861,67.0076403 C91.730861,66.6877144 92.010861,63.6084275 91.330861,58.7295574 L91.170861,58.7695481 Z" id="Path" fill="#FFFFFF"></path>
                <path d="M82.610861,41.173623 C83.170861,39.8539286 86.130861,32.4956326 86.850861,23.9376144 L86.890861,23.6576793 C87.690861,14.0998927 88.330861,6.54164299 84.930861,3.782282 C83.410861,2.54256909 80.970861,2.862495 77.570861,4.70206899 C75.170861,6.02176338 73.170861,7.62139294 73.090861,7.70137442 C73.010861,7.74136516 66.050861,13.4200501 61.490861,19.1787165 C57.050861,17.5790869 51.450861,16.7392814 45.770861,16.7392814 C40.050861,16.7392814 34.490861,17.6190777 30.050861,19.1787165 C25.490861,13.4200501 18.530861,7.74136516 18.450861,7.70137442 C18.370861,7.62139294 16.410861,6.02176338 13.970861,4.70206899 C10.610861,2.862495 8.13086103,2.58255983 6.61086103,3.782282 C3.25086103,6.54164299 3.85086103,14.0998927 4.65086103,23.6576793 L4.69086103,23.9376144 C5.41086103,32.4956326 8.37086103,39.8539286 8.93086103,41.173623 C1.93086103,55.5302982 2.93086103,66.287807 2.97086103,66.7277052 C3.33086103,70.3268717 5.53086103,77.5252047 16.290861,85.2434173 C26.690861,92.7216855 37.330861,97.0006946 45.570861,97.0006946 C45.650861,97.0006946 45.690861,97.0006946 45.770861,97.0006946 C45.850861,97.0006946 45.890861,97.0006946 45.970861,97.0006946 C54.210861,97.0006946 64.890861,92.7216855 75.250861,85.2434173 C86.010861,77.485214 88.210861,70.3268717 88.570861,66.7277052 C88.610861,66.287807 89.610861,55.5302982 82.610861,41.173623 Z" id="Path" fill="#000000"></path>
                <path d="M86.850861,64.6881775 L86.850861,64.6881775 C86.850861,63.1685294 86.730861,60.8090758 86.170861,57.6897982 C85.730861,55.2903538 85.130861,52.810928 84.370861,50.3714929 C83.450861,47.452169 82.290861,44.5728358 80.890861,41.773484 L80.610861,41.2136137 L80.850861,40.6537433 C80.850861,40.6537433 81.730861,38.6941971 82.650861,35.654901 C83.210861,33.8553177 83.650861,32.0557345 84.050861,30.2961419 C84.530861,28.0566606 84.850861,25.8971607 85.010861,23.7776515 L85.050861,23.4977163 C85.410861,18.9787628 85.770861,14.6997537 85.650861,11.4205131 C85.530861,8.14127255 84.890861,6.10174486 83.770861,5.14196712 C83.490861,4.90202269 83.130861,4.82204121 82.650861,4.82204121 C81.970861,4.82204121 81.130861,5.02199491 80.130861,5.4219023 C79.290861,5.78181895 78.330861,6.26170782 77.330861,6.8615689 C75.570861,7.94131885 74.250861,9.02106881 74.210861,9.02106881 L74.210861,9.02106881 C74.210861,9.02106881 72.410861,10.5007261 70.090861,12.6202353 C66.250861,16.1794111 63.930861,18.8587906 62.650861,20.4984109 L62.050861,21.2582349 L61.170861,20.938309 C59.050861,20.178485 56.690861,19.5386332 54.090861,19.1387258 C51.410861,18.6988276 48.570861,18.4588832 45.690861,18.4588832 C42.810861,18.4588832 39.970861,18.6988276 37.290861,19.1387258 C34.730861,19.5786239 32.330861,20.178485 30.210861,20.938309 L29.330861,21.2582349 L28.730861,20.4984109 C26.410861,17.5390962 23.410861,14.5797815 21.290861,12.6202353 C18.970861,10.5007261 17.210861,9.02106881 17.170861,9.02106881 L17.170861,9.02106881 C17.170861,9.02106881 15.810861,7.90132811 14.050861,6.8615689 C13.050861,6.26170782 12.090861,5.74182821 11.250861,5.4219023 C10.250861,5.02199491 9.41086103,4.82204121 8.73086103,4.82204121 C8.25086103,4.82204121 7.85086103,4.94201343 7.61086103,5.14196712 C6.49086103,6.06175412 5.85086103,8.10128181 5.73086103,11.4205131 C5.61086103,14.6997537 5.93086103,18.9787628 6.33086103,23.4977163 L6.37086103,23.7776515 C6.53086103,25.8571699 6.89086103,28.0566606 7.33086103,30.2961419 C7.69086103,32.0957252 8.17086103,33.8953085 8.73086103,35.654901 C9.65086103,38.6941971 10.530861,40.6537433 10.530861,40.6537433 L10.770861,41.2136137 L10.490861,41.773484 C9.09086103,44.5728358 7.93086103,47.4921597 7.01086103,50.3714929 C6.25086103,52.810928 5.61086103,55.2903538 5.21086103,57.6897982 C4.65086103,60.8090758 4.53086103,63.1685294 4.53086103,64.6881775 C4.53086103,65.2080571 4.53086103,65.6479552 4.57086103,65.9678811 C4.57086103,66.0078719 4.57086103,66.0478626 4.57086103,66.0878533 C4.57086103,66.1678348 4.57086103,66.2478163 4.57086103,66.3277978 C4.57086103,66.3677885 4.57086103,66.3677885 4.57086103,66.4077793 C4.57086103,66.4877607 4.57086103,66.5277515 4.57086103,66.5677422 C4.65086103,67.3275662 4.81086103,68.3673255 5.21086103,69.5670476 C5.21086103,69.6070384 5.25086103,69.6470291 5.25086103,69.6470291 C5.29086103,69.7270106 5.29086103,69.7670013 5.33086103,69.8469828 C5.33086103,69.8869735 5.37086103,69.9269643 5.37086103,70.0069458 C5.41086103,70.126918 5.45086103,70.2468902 5.53086103,70.3668624 C5.57086103,70.4468439 5.57086103,70.4868346 5.61086103,70.5668161 C5.65086103,70.6068068 5.65086103,70.6867883 5.69086103,70.7267791 C6.01086103,71.5265938 6.41086103,72.3663994 6.93086103,73.2461956 C9.09086103,76.9253436 12.530861,80.4845194 17.170861,83.8437414 C17.810861,84.3236303 18.450861,84.7635284 19.090861,85.2034266 C21.130861,86.6031024 23.170861,87.8428153 25.170861,88.962556 C27.210861,90.0822967 29.210861,91.0820652 31.170861,91.9218707 L31.170861,91.9218707 L31.170861,91.9218707 C31.690861,92.1218244 32.170861,92.3617689 32.690861,92.5217318 C35.050861,93.4415188 37.330861,94.1213614 39.490861,94.6012502 C41.570861,95.0411484 43.570861,95.2810928 45.370861,95.2810928 L45.410861,95.2810928 L45.570861,95.2810928 L45.730861,95.2810928 L45.770861,95.2810928 C47.610861,95.2810928 49.570861,95.0411484 51.650861,94.6012502 C53.810861,94.1213614 56.130861,93.4415188 58.450861,92.5217318 C58.930861,92.3217781 59.410861,92.1618152 59.890861,91.9218707 L59.890861,91.9218707 L59.890861,91.9218707 C61.890861,91.0820652 63.930861,90.0822967 65.970861,88.9225653 C67.450861,88.1227505 68.930861,87.2029635 70.410861,86.2431858 C70.490861,86.1632043 70.610861,86.1232136 70.690861,86.0432321 C70.850861,85.9632506 71.010861,85.8432784 71.130861,85.7632969 C72.090861,85.1234451 73.010861,84.4835933 73.970861,83.8037507 C76.090861,82.2841026 77.930861,80.7244638 79.530861,79.1248342 C79.570861,79.0848435 79.650861,79.004862 79.690861,78.9648713 C79.810861,78.8448991 79.890861,78.7649176 80.010861,78.6449454 C80.090861,78.5649639 80.170861,78.4849824 80.250861,78.3650102 C80.290861,78.3250195 80.330861,78.245038 80.410861,78.2050473 C80.490861,78.1250658 80.570861,78.0050936 80.650861,77.9251121 C80.770861,77.7651491 80.930861,77.6451769 81.050861,77.485214 C81.530861,76.9653343 81.970861,76.405464 82.370861,75.8855844 C82.490861,75.7656122 82.570861,75.6056492 82.690861,75.485677 C82.730861,75.4456863 82.730861,75.4456863 82.770861,75.4056955 C83.290861,74.6858622 83.770861,73.9660289 84.210861,73.2461956 C84.570861,72.6063438 84.890861,71.966492 85.170861,71.4066216 C86.090861,69.3670939 86.450861,67.7274736 86.530861,66.6077329 C86.570861,66.3677885 86.610861,65.7679274 86.610861,64.768159 L86.850861,64.6881775 Z" id="Path" fill="#FEA31C"></path>
                <path d="M86.810861,66.5677422 C86.650861,68.0473995 86.130861,70.3668624 84.450861,73.2461956 C82.290861,76.9253436 78.850861,80.4845194 74.210861,83.8437414 C71.530861,85.7632969 68.850861,87.4828987 66.210861,88.962556 C64.170861,90.0822967 62.130861,91.0820652 60.130861,91.9618615 C59.650861,92.1618152 59.170861,92.3617689 58.690861,92.5617225 C56.330861,93.4815095 54.050861,94.1613521 51.890861,94.641241 C49.810861,95.0811391 47.810861,95.3210835 46.010861,95.3210835 L45.970861,95.3210835 L45.810861,95.3210835 L45.650861,95.3210835 L45.610861,95.3210835 C43.770861,95.3210835 41.810861,95.0811391 39.730861,94.641241 C37.570861,94.1613521 35.250861,93.4815095 32.930861,92.5617225 C32.450861,92.3617689 31.930861,92.1618152 31.410861,91.9618615 C29.450861,91.1220559 27.410861,90.1222875 25.410861,89.0025468 C22.770861,87.5228894 20.050861,85.8032877 17.410861,83.8837322 C12.770861,80.5245101 9.33086103,76.9653343 7.17086103,73.2861864 C5.49086103,70.4068531 4.97086103,68.0873903 4.81086103,66.6077329 C4.77086103,66.3677885 4.73086103,65.7279367 4.73086103,64.7281682 C6.53086103,64.2882701 8.41086103,64.0483257 10.370861,64.0483257 C17.690861,64.0483257 24.210861,67.3275662 28.290861,72.3663994 C30.010861,63.9283534 37.170861,57.5698259 45.770861,57.5698259 C54.370861,57.5698259 61.570861,63.9283534 63.250861,72.3663994 C67.330861,67.3275662 73.850861,64.0483257 81.170861,64.0483257 C83.170861,64.0483257 85.090861,64.2882701 86.890861,64.7281682 C86.890861,65.7279367 86.850861,66.3677885 86.810861,66.5677422 Z" id="Path" fill="#FFFFFF"></path>
                <path d="M4.69086103,64.6881775 C4.69086103,65.6879459 4.73086103,66.3277978 4.77086103,66.5677422 C4.93086103,68.0473995 5.45086103,70.3668624 7.13086103,73.2461956 C9.29086103,76.9253436 12.730861,80.4845194 17.370861,83.8437414 C20.050861,85.7632969 22.730861,87.4828987 25.370861,88.962556 C27.410861,90.0822967 29.410861,91.0820652 31.370861,91.9218707 L4.69086103,64.7281682 L4.69086103,64.6881775 Z" id="Path" fill="#FFFFFF"></path>
                <path d="M86.850861,64.6881775 C86.850861,65.6879459 86.810861,66.3277978 86.770861,66.5277515 C86.610861,68.0074088 86.090861,70.3268717 84.410861,73.2062049 C82.250861,76.8853529 78.810861,80.4445286 74.170861,83.8037507 C71.490861,85.7233062 68.810861,87.442908 66.170861,88.9225653 C64.130861,90.042306 62.090861,91.0420745 60.090861,91.9218707 L86.850861,64.7281682 L86.850861,64.6881775 Z" id="Path" fill="#FFFFFF"></path>
                <path d="M22.690861,40.1738545 C22.690861,40.1738545 23.490861,36.8946139 26.370861,36.7746417 C29.250861,36.6546694 30.410861,38.254299 31.250861,39.334049 C32.050861,40.4137989 33.370861,43.4131043 30.690861,43.8130117 C28.010861,44.2529099 23.690861,44.5728358 23.050861,43.9329839 C21.970861,42.8932247 22.690861,40.1738545 22.690861,40.1738545 Z" id="Path" fill="#FFFFF2"></path>
                <path d="M68.730861,40.1738545 C68.730861,40.1738545 67.930861,36.8946139 65.050861,36.7746417 C62.170861,36.6546694 61.010861,38.254299 60.170861,39.334049 C59.370861,40.4137989 58.050861,43.4131043 60.730861,43.8130117 C63.410861,44.2529099 67.730861,44.5728358 68.370861,43.9329839 C69.450861,42.8932247 68.730861,40.1738545 68.730861,40.1738545 Z" id="Path" fill="#FFFFF2"></path>
                <path d="M20.330861,48.8518448 C20.330861,48.8518448 20.250861,46.3324283 21.890861,46.7323357 C23.530861,47.1322431 32.410861,51.6112058 34.090861,53.4507798 C35.730861,55.2503631 37.130861,57.0499463 35.570861,57.1299278 C34.050861,57.2099093 27.730861,56.7700112 24.250861,54.6904927 C20.770861,52.6109743 20.330861,53.0908632 20.330861,48.8918356 L20.330861,48.8518448 Z" id="Path" fill="#151110"></path>
                <path d="M71.130861,48.8518448 C71.130861,48.8518448 71.210861,46.3324283 69.570861,46.7323357 C67.930861,47.1322431 59.050861,51.6112058 57.370861,53.4507798 C55.730861,55.2503631 54.330861,57.0499463 55.890861,57.1299278 C57.410861,57.2099093 63.730861,56.7700112 67.210861,54.6904927 C70.690861,52.6109743 71.130861,53.0908632 71.130861,48.8918356 L71.130861,48.8518448 Z" id="Path" fill="#151110"></path>
                <path d="M77.170861,16.8992444 C75.010861,19.2187072 72.330861,22.6979015 70.330861,25.7771884 C74.810861,29.7362716 77.690861,33.7353455 79.130861,36.1347898 C81.010861,31.2159289 83.370861,19.4986424 83.050861,14.7797352 C83.010861,14.2998464 82.970861,13.8599482 82.890861,13.4600408 C81.410861,13.739976 79.330861,14.6197723 77.170861,16.9392351 L77.170861,16.8992444 Z" id="Path" fill="#FF8000"></path>
                <path d="M14.290861,16.8992444 C16.450861,19.2187072 19.130861,22.6979015 21.130861,25.7771884 C16.650861,29.7362716 13.770861,33.7353455 12.330861,36.1347898 C10.450861,31.2159289 8.09086103,19.4986424 8.41086103,14.7797352 C8.45086103,14.2998464 8.49086103,13.8599482 8.57086103,13.4600408 C10.050861,13.739976 12.130861,14.6197723 14.290861,16.9392351 L14.290861,16.8992444 Z" id="Path" fill="#FF8000"></path>
                <path d="M75.650861,13.3800594 C72.890861,15.2996148 69.690861,18.0189851 65.810861,22.2580034 C67.450861,23.3777441 68.930861,24.5774663 70.290861,25.7771884 C72.330861,22.7378923 75.010861,19.258698 77.130861,16.8992444 C79.290861,14.5797815 81.330861,13.6999853 82.850861,13.4200501 C82.090861,9.46096693 79.330861,10.7806613 75.610861,13.3800594 L75.650861,13.3800594 Z" id="Path" fill="#FF8E06"></path>
                <path d="M15.810861,13.3800594 C18.570861,15.2996148 21.770861,18.0189851 25.650861,22.2580034 C24.010861,23.3777441 22.530861,24.5774663 21.170861,25.7771884 C19.130861,22.7378923 16.450861,19.258698 14.330861,16.8992444 C12.170861,14.5797815 10.130861,13.6999853 8.61086103,13.4200501 C9.37086103,9.46096693 12.130861,10.7806613 15.850861,13.3800594 L15.810861,13.3800594 Z" id="Path" fill="#FF8E06"></path>
                <path d="M48.650861,81.0843805 L45.970861,81.0843805 L45.450861,81.0843805 L42.770861,81.0843805 C42.770861,81.0843805 42.130861,80.9244175 42.130861,81.4043064 C42.130861,81.8841952 42.810861,82.2841026 43.090861,82.2841026 C43.370861,82.2841026 43.850861,81.6842415 44.210861,81.6842415 C44.570861,81.6842415 45.250861,83.1239081 45.730861,83.1239081 L45.730861,83.1239081 L45.730861,83.1239081 C46.210861,83.1239081 46.890861,81.6842415 47.250861,81.6842415 C47.610861,81.6842415 48.090861,82.2841026 48.370861,82.2841026 C48.650861,82.2841026 49.330861,81.8841952 49.330861,81.4043064 C49.330861,80.9244175 48.690861,81.0843805 48.690861,81.0843805 L48.650861,81.0843805 Z" id="Path" fill="#151110"></path>
                <path d="M56.730861,77.5651954 C53.570861,77.5252047 53.370861,77.7651491 53.010861,77.9251121 C52.610861,78.085075 50.330861,78.0050936 49.010861,78.0450843 C47.690861,78.085075 48.050861,77.4052325 47.570861,76.8853529 C47.170861,76.4854455 46.650861,76.565427 46.610861,76.2055103 L46.610861,74.56589 C46.610861,74.56589 46.650861,74.1259919 47.450861,73.8860474 L47.450861,73.8860474 C49.890861,73.1262234 51.170861,70.9667235 51.170861,70.9667235 C52.690861,67.7274736 51.970861,64.608196 51.090861,63.8083812 C50.210861,63.0085664 48.330861,63.1685294 48.330861,63.1685294 L43.130861,63.1685294 C43.130861,63.1685294 41.250861,63.0085664 40.370861,63.8083812 C39.490861,64.608196 38.770861,67.7274736 40.290861,70.9667235 C40.290861,70.9667235 41.610861,73.1262234 44.010861,73.8860474 L43.970861,73.8860474 C44.770861,74.1259919 44.810861,74.56589 44.810861,74.56589 L44.810861,76.2055103 C44.770861,76.6054177 44.250861,76.4854455 43.850861,76.8853529 C43.370861,77.4052325 43.730861,78.0450843 42.410861,78.0450843 C41.090861,78.0050936 38.810861,78.1250658 38.410861,77.9251121 C38.050861,77.7651491 37.850861,77.5252047 34.690861,77.5651954 C34.530861,77.5651954 34.450861,77.7651491 34.530861,77.8851213 C34.730861,78.1250658 34.970861,78.4050009 35.130861,78.7249269 C35.410861,79.2847972 35.450861,80.5245101 35.570861,80.6444823 C35.690861,80.7644545 36.330861,80.6444823 36.490861,80.8044453 C36.610861,80.9644082 37.730861,84.3636211 38.210861,84.3636211 C38.690861,84.3636211 38.490861,79.2847972 38.490861,79.2847972 C38.490861,79.2847972 44.170861,79.6847046 45.690861,79.6847046 C47.210861,79.6847046 52.890861,79.2847972 52.890861,79.2847972 C52.890861,79.2847972 52.690861,84.3636211 53.170861,84.3636211 C53.650861,84.3636211 54.770861,80.9644082 54.890861,80.8044453 C55.010861,80.6444823 55.650861,80.7244638 55.810861,80.6444823 C55.930861,80.5245101 55.970861,79.2847972 56.250861,78.7249269 C56.410861,78.4050009 56.650861,78.085075 56.850861,77.8851213 C56.970861,77.7651491 56.850861,77.5651954 56.690861,77.5651954 L56.730861,77.5651954 Z" id="Path" fill="#151110"></path>
            </g>
        </g>
    </g>
</svg>