<?xml version="1.0" encoding="UTF-8"?>
<svg width="100px" height="92px" viewBox="0 0 100 92" version="1.1" xmlns="http://www.w3.org/2000/svg" xmlns:xlink="http://www.w3.org/1999/xlink">
    <title>sushiswap-sushi-logo</title>
    <defs>
        <linearGradient x1="35.5353448%" y1="8.13463325%" x2="51.4344828%" y2="54.0232517%" id="linearGradient-1">
            <stop stop-color="#03B8FF" offset="0%"></stop>
            <stop stop-color="#FA52A0" offset="100%"></stop>
        </linearGradient>
        <linearGradient x1="36.5085128%" y1="13.4447748%" x2="55.5162467%" y2="64.6614742%" id="linearGradient-2">
            <stop stop-color="#03B8FF" offset="0%"></stop>
            <stop stop-color="#FA52A0" offset="100%"></stop>
        </linearGradient>
        <linearGradient x1="28.7245071%" y1="-7.03539618%" x2="47.7931559%" y2="44.8485902%" id="linearGradient-3">
            <stop stop-color="#03B8FF" offset="0%"></stop>
            <stop stop-color="#FA52A0" offset="100%"></stop>
        </linearGradient>
    </defs>
    <g id="Page-1" stroke="none" stroke-width="1" fill="none" fill-rule="evenodd">
        <g id="sushiswap-sushi-logo" transform="translate(0.000000, 0.000000)">
            <polygon id="Path" fill="url(#linearGradient-1)" fill-rule="nonzero" points="20.6340569 5.27940849 98.316236 58.3204663 79.1045143 86.7204028 1.42233516 33.2616988"></polygon>
            <path d="M98.316236,58.3204663 C91.6338981,67.9263272 69.0810073,64.167512 47.781055,49.1322516 C26.0634565,34.5146372 14.369365,14.8852694 20.6340569,5.27940849 C27.3163949,-4.32645238 49.8692856,-0.567637255 71.169238,14.4676232 C92.8868364,28.6675915 104.580928,48.7146054 98.316236,58.3204663 Z" id="Path" fill="url(#linearGradient-2)" fill-rule="nonzero"></path>
            <path d="M79.1045143,86.3027566 C72.4221763,95.9086175 49.8692856,92.1498024 28.5693333,77.1145419 C7.26938091,62.0792814 -4.84235671,42.8675597 1.83998129,32.8440527 C8.52231928,23.2381918 31.07521,26.997007 52.3751624,42.0322674 C73.6751147,57.0675279 85.3692062,76.6968958 79.1045143,86.3027566 Z" id="Path" fill="url(#linearGradient-3)" fill-rule="nonzero"></path>
            <path d="M98.316236,58.3204663 C98.316236,58.3204663 98.316236,58.3204663 98.316236,58.3204663 L79.1045143,86.7204028 L79.1045143,86.7204028 C72.4221763,96.3262636 49.8692856,92.1498024 28.5693333,77.532188 C24.392872,74.6086652 20.6340569,71.6851423 16.8752418,68.3439733 C19.7987646,67.9263272 23.5575798,66.2557427 27.3163949,62.0792814 C33.9987329,54.9792973 37.3399019,53.3087128 40.2634247,53.7263589 C43.1869476,53.7263589 46.5281166,56.6498818 51.9575162,63.7498659 C57.3869158,70.84985 64.9045461,72.9380807 69.4986535,69.1792655 C69.9162996,68.7616194 70.3339457,68.7616194 70.7515918,68.3439733 C74.5104069,65.4204504 75.7633453,64.167512 82.8633294,50.8028361 C84.5339139,47.4616671 90.3809597,42.0322674 98.316236,44.5381442 C100.404467,49.9675438 100.404467,54.5616512 98.316236,58.3204663 Z" id="Path" fill="#0E0F23" fill-rule="nonzero"></path>
            <path d="M95.3927132,56.6498818 C89.5456674,65.0028043 69.0810073,60.826343 49.4516395,47.0440209 C29.4046255,33.2616988 17.710534,15.7205616 23.5575798,7.36763911 C29.4046255,-0.98528338 49.8692856,3.19117787 69.4986535,16.9735 C89.1280213,30.7558221 100.822113,48.2969593 95.3927132,56.6498818 Z M77.0162837,44.1204981 C74.0927608,48.2969593 64.0692538,46.2087287 54.0457468,39.5263907 C44.439886,32.8440527 38.5928402,24.0734841 41.5163631,19.8970228 C44.439886,15.7205616 54.463393,17.8087922 64.4869,24.4911302 C74.0927608,31.1734682 79.9398066,39.9440368 77.0162837,44.1204981 Z" id="Shape" fill="#FFFFFF"></path>
            <path d="M18.9634724,14.8852694 C18.9634724,14.4676232 18.5458263,14.0499771 18.1281801,14.4676232 C17.710534,14.8852694 17.2928879,14.8852694 17.2928879,15.3029155 C17.710534,16.5558538 18.1281801,17.3911461 18.1281801,18.2264383 C18.1281801,18.6440845 18.5458263,19.0617306 18.9634724,18.6440845 C19.3811185,18.6440845 19.7987646,18.2264383 19.3811185,17.8087922 C19.3811185,16.9735 19.3811185,16.1382077 18.9634724,14.8852694 Z" id="Path" fill="#FFFFFF" fill-rule="nonzero"></path>
            <path d="M21.051703,21.5676073 C21.051703,21.1499612 20.6340569,20.7323151 20.2164108,21.1499612 C19.7987646,21.5676073 19.7987646,21.5676073 19.7987646,21.9852535 C24.392872,32.4264066 33.9987329,43.7028519 46.5281166,52.0557744 C46.9457627,52.4734206 47.3634089,52.0557744 47.781055,52.0557744 C48.1987011,51.6381283 47.781055,51.2204822 47.781055,50.8028361 C34.8340251,42.4499136 25.6458104,31.5911143 21.051703,21.5676073 Z" id="Path" fill="#FFFFFF" fill-rule="nonzero"></path>
            <path d="M71.5868841,62.4969275 C71.169238,62.4969275 70.7515918,62.4969275 70.7515918,62.9145737 C70.7515918,63.3322198 70.7515918,63.7498659 71.169238,63.7498659 C72.4221763,64.167512 74.0927608,64.5851582 75.3456992,65.0028043 C75.7633453,65.0028043 76.1809914,65.0028043 76.1809914,64.5851582 C76.1809914,64.167512 76.1809914,63.7498659 75.7633453,63.7498659 C74.5104069,63.3322198 72.8398225,62.9145737 71.5868841,62.4969275 Z" id="Path" fill="#FFFFFF" fill-rule="nonzero"></path>
            <path d="M79.1045143,64.167512 C78.6868682,64.167512 78.2692221,64.5851582 78.2692221,65.0028043 C78.2692221,65.4204504 78.6868682,65.8380965 79.1045143,65.8380965 C82.4456833,66.2557427 86.2044984,66.6733888 89.1280213,66.2557427 C89.5456674,66.2557427 89.9633136,65.8380965 89.9633136,65.4204504 C89.9633136,65.0028043 89.5456674,64.5851582 89.1280213,64.5851582 C85.7868523,65.0028043 82.4456833,64.5851582 79.1045143,64.167512 Z" id="Path" fill="#FFFFFF" fill-rule="nonzero"></path>
        </g>
    </g>
</svg>