<?xml version="1.0" encoding="UTF-8"?>
<svg width="100px" height="103px" viewBox="0 0 100 103" version="1.1" xmlns="http://www.w3.org/2000/svg" xmlns:xlink="http://www.w3.org/1999/xlink">
    <title>ubeswap</title>
    <g id="Page-1" stroke="none" stroke-width="1" fill="none" fill-rule="evenodd">
        <g id="ubeswap">
            <path d="M60.6470543,16.0693741 C47.6480127,21.9167256 32.7808455,33.7673581 26.4759211,40.3163917 C26.2424054,40.5502858 26.0088897,40.7841799 25.775374,41.0180739 C17.9915168,48.8145426 19.1590954,62.6142922 28.2662083,72.8276662 L28.1105311,72.8276662 C13.7103953,72.8276662 1.87893237,77.5055474 0.322160928,83.4308636 C-0.144870505,84.834228 0.0108066395,88.6544976 0.0886452116,90.6815795 C0.0886452116,91.2273323 0.166483784,91.6171557 0.166483784,91.7730851 C0.166483784,97.2306132 12.854171,103 28.1883697,103 C43.5225684,103 55.8989014,98.0882247 55.8989014,92.0069792 C55.8989014,91.8510498 55.8989014,91.539191 55.8989014,91.0714029 C55.8989014,89.7460032 55.9767399,87.4070626 55.9767399,85.7698042 C56.1324171,84.9121926 56.0545785,84.0545811 55.8210628,83.1969695 C58.9346057,82.4952874 61.8146328,81.0139583 64.14979,78.8309471 L63.9941129,78.9868764 C63.4492429,79.5326292 62.8265343,80.0783821 62.2038257,80.5461702 C66.0957543,78.5190883 68.9757815,74.2310305 72.6341944,68.6955378 C84.0764644,49.0484367 94.9738645,28.6216887 96.9976674,14.4321157 C98.3987617,4.3746711 94.2733174,4.68652985 84.154303,7.18139983 C79.0947958,8.27290544 64.9281757,14.1982216 60.6470543,16.0693741 L60.6470543,16.0693741 Z M55.1205156,81.7936052 C52.1626499,76.9597946 42.2771513,73.2174896 30.2900112,72.8276662 C20.7158668,62.8481863 19.5482882,49.2823307 26.865114,42.0316149 C34.4154555,34.5470049 48.8934299,35.7944399 59.1681214,45.7739198 C69.5206515,55.8313644 70.9217458,69.9429728 63.4492429,77.4275827 L63.4492429,77.4275827 C61.1140857,79.6105939 58.3118971,81.091923 55.1205156,81.7936052 L55.1205156,81.7936052 Z M80.0288587,34.0012521 C80.0288587,31.5063821 75.6698987,23.1641606 72.4785172,21.6048669 C67.41901,19.1099969 67.41901,21.6048669 72.4785172,26.5166422 C74.5801587,28.6216887 76.2926072,30.7267353 77.5380244,32.2080643 C79.250473,34.3131109 80.0288587,35.4046165 80.0288587,34.0012521 L80.0288587,34.0012521 Z M75.3585444,52.8687063 C75.8255758,51.3094126 74.7358358,45.228167 73.0233872,43.6688733 C70.2990372,41.1740033 69.8320058,42.733297 72.0893244,46.7874608 C73.0233872,48.5026839 73.6460958,50.1399423 74.1131272,51.3094126 C74.7358358,52.946671 75.0471901,53.7263179 75.3585444,52.8687063 Z M52.7853585,88.4206036 C54.0307756,87.1731686 54.5756456,85.9257336 54.5756456,84.7562633 C54.5756456,83.586793 54.0307756,82.339358 52.7853585,81.091923 C51.5399413,79.844488 49.6718156,78.6750177 47.2588199,77.5835121 C42.4328284,75.4784655 35.6608726,74.2310305 28.0326926,74.2310305 C20.4823511,74.2310305 13.7103953,75.5564302 8.80656528,77.5835121 C6.39356955,78.597053 4.52544382,79.844488 3.28002667,81.091923 C2.03460951,82.339358 1.48973951,83.586793 1.48973951,84.7562633 C1.48973951,85.9257336 2.03460951,87.1731686 3.28002667,88.4206036 C4.52544382,89.6680385 6.39356955,90.8375088 8.80656528,91.9290145 C13.6325567,94.034061 20.4045125,95.281496 28.0326926,95.281496 C35.6608726,95.281496 42.3549898,93.9560963 47.2588199,91.9290145 C49.6718156,90.8375088 51.5399413,89.6680385 52.7853585,88.4206036 Z" id="Shape" fill="#8878C3"></path>
            <path d="M90.5654765,1.22129411 C94.5532648,3.16699738 100,13.5765098 100,16.6896351 C100,19.8027603 96.8875799,13.5765098 90.5654765,7.44754456 C84.3406362,1.22129411 84.3406362,-1.89183112 90.5654765,1.22129411 Z M91.2463184,28.7529953 C93.3861072,30.6986986 94.747791,38.2869413 94.1642123,40.2326446 C93.5806335,42.1783479 92.8025285,37.7032303 90.0791608,32.6444019 C87.2585301,27.5855734 87.8421089,25.6398701 91.2463184,28.7529953 Z" id="Shape" fill="#6D619A" fill-rule="nonzero"></path>
            <path d="M79.672006,71.2666117 C69.9456932,80.995128 51.4656986,79.2439951 38.4324394,66.5969238 C25.3991801,53.9498526 23.3566544,35.9520974 33.0829673,26.2235811 C42.8092802,16.4950605 61.2892747,18.2461977 74.322534,30.8932689 C87.3557932,43.5403401 89.3983189,61.6353805 79.672006,71.2666117 Z" id="Path" stroke="#6D619A" stroke-width="2.42807675" fill="#BFB7DE" fill-rule="nonzero"></path>
            <path d="M68.7785356,80.0222764 C68.7785356,81.6761242 68.0004306,83.3299719 66.3469574,84.9838197 C64.6934842,86.6376675 62.3591691,88.1942301 59.246749,89.4589372 C53.1191718,92.0856366 44.5600165,93.7394844 35.0282299,93.7394844 C25.4964432,93.7394844 16.9372879,92.0856366 10.8097107,89.4589372 C7.69729062,88.0969449 5.36297552,86.6376675 3.70950233,84.9838197 C2.05602914,83.3299719 1.2779241,81.6761242 1.2779241,80.0222764 C1.2779241,78.3684286 2.05602914,76.7145808 3.70950233,75.0607331 C5.36297552,73.4068853 7.69729062,71.8503227 10.8097107,70.5856155 C16.9372879,67.9589161 25.4964432,66.3050684 35.0282299,66.3050684 C44.5600165,66.3050684 53.1191718,67.9589161 59.246749,70.5856155 C62.3591691,71.9476078 64.6934842,73.4068853 66.3469574,75.0607331 C68.0004306,76.7145808 68.7785356,78.3684286 68.7785356,80.0222764 Z" id="Path" stroke="#6D619A" stroke-width="2.42807675" fill="#E3DFF3" fill-rule="nonzero"></path>
        </g>
    </g>
</svg>