<?xml version="1.0" encoding="UTF-8"?>
<svg width="100px" height="116px" viewBox="0 0 100 116" version="1.1" xmlns="http://www.w3.org/2000/svg" xmlns:xlink="http://www.w3.org/1999/xlink">
    <title>uniswap-uni-logo</title>
    <g id="Page-1" stroke="none" stroke-width="1" fill="none" fill-rule="evenodd">
        <g id="uniswap-uni-logo" fill="#FF007A">
            <path d="M39.2069393,26.1955985 C37.9595298,26.0173972 37.9001294,25.9579967 38.4941339,25.8985963 C39.6227424,25.7203949 42.2363622,25.9579967 44.0777762,26.3737999 C48.3546086,27.3836075 52.2156379,29.9972273 56.3142689,34.571062 L57.383477,35.8184715 L58.9278887,35.5808697 C65.5213387,34.5116615 72.29299,35.3432679 77.9360328,37.9568877 C79.4804445,38.6696931 81.9158629,40.0953039 82.2128652,40.4517066 C82.3316661,40.5705075 82.5098674,41.3427133 82.6286683,42.1149192 C83.0444715,44.9067403 82.8662702,46.9857561 81.9752634,48.5895682 C81.5000598,49.480575 81.5000598,49.7181768 81.797062,50.4903826 C82.0346638,51.0843871 82.7474693,51.5001903 83.4008742,51.5001903 C84.826485,51.5001903 86.3114963,49.2429732 87.0243017,46.0947493 L87.3213039,44.8473399 L87.855908,45.4413444 C90.8853309,48.82717 93.2613489,53.5198056 93.6177516,56.8462308 L93.7365525,57.7372376 L93.2019485,56.9650317 C92.3109417,55.5988214 91.4793354,54.7078146 90.3507269,53.9356088 C88.3311116,52.5693984 86.1926954,52.1535953 80.5496526,51.856593 C75.4412139,51.5595907 72.5305918,51.1437876 69.6793702,50.1933804 C64.8085333,48.5895682 62.3137144,46.5105525 56.5518707,38.8478944 C53.9976514,35.4620688 52.3938392,33.6206548 50.7900271,32.0762431 C47.2854005,28.6904174 43.7807739,26.9084039 39.2069393,26.1955985 Z" id="Path" fill-rule="nonzero"></path>
            <path d="M83.4602747,33.7394557 C83.5790756,31.4822386 83.8760778,29.9972273 84.5294828,28.631017 C84.7670846,28.0964129 85.0046864,27.6212093 85.0640868,27.6212093 C85.1234873,27.6212093 85.0046864,28.0370125 84.826485,28.5122161 C84.3512814,29.819026 84.291881,31.6604399 84.5888832,33.7394557 C85.0046864,36.412476 85.1828877,36.7688787 88.0341093,39.6795007 C89.3409192,41.0457111 90.8853309,42.7683241 91.4793354,43.4811295 L92.4891431,44.7879394 L91.4793354,43.8375322 C90.231926,42.6495232 87.3807044,40.3923061 86.7272994,40.0953039 C86.3114963,39.8577021 86.2520958,39.8577021 85.9550936,40.1547043 C85.7174918,40.3923061 85.6580913,40.7487088 85.6580913,42.4713219 C85.5986909,45.1443421 85.2422882,46.8075547 84.3512814,48.5301678 C83.8760778,49.4211745 83.8166774,49.2429732 84.2324805,48.2331655 C84.5294828,47.4609597 84.5888832,47.104557 84.5888832,44.5503376 C84.5888832,39.3824985 83.9948787,38.135089 80.3714512,36.0560733 C79.4804445,35.5214692 77.9360328,34.7492634 77.045026,34.3334602 C76.0946188,33.917657 75.3818134,33.5612543 75.4412139,33.5612543 C75.5600148,33.4424534 79.0646413,34.4522611 80.4308517,35.0462656 C82.5098674,35.8778719 82.8662702,35.9372724 83.103872,35.8778719 C83.2820733,35.6996706 83.4008742,35.224467 83.4602747,33.7394557 Z" id="Path" fill-rule="nonzero"></path>
            <path d="M41.6423577,42.5901228 C39.1475388,39.1448967 37.5437267,33.7988561 37.9001294,29.819026 L38.0189303,28.5716165 L38.6129348,28.6904174 C39.6821429,28.8686188 41.5235568,29.5814242 42.4145636,30.1160282 C44.7905816,31.541639 45.8597897,33.5018539 46.8695973,38.3726908 C47.1665996,39.7983016 47.5824027,41.4615142 47.7606041,41.9961183 C48.0576063,42.887125 49.1862149,44.9661408 50.1366221,46.2729507 C50.7900271,47.2233579 50.3742239,47.6985615 48.8892127,47.5797606 C46.6319955,47.3421588 43.6025726,45.263143 41.6423577,42.5901228 Z" id="Path" fill-rule="nonzero"></path>
            <path d="M80.4308517,68.4293186 C68.6695626,63.6772826 64.511531,59.5786515 64.511531,52.6287989 C64.511531,51.6189912 64.5709315,50.7873849 64.5709315,50.7873849 C64.6303319,50.7873849 65.0461351,51.1437876 65.5807392,51.5595907 C67.9567572,53.4604052 70.6297774,54.2920115 78.0548337,55.3612196 C82.3910665,56.0146245 84.8858855,56.4898281 87.1431026,57.262034 C94.330557,59.638052 98.7855908,64.5088889 99.8547989,71.1023389 C100.151801,73.0031533 99.9735998,76.6265807 99.4983962,78.5273951 C99.082593,80.0124064 97.894584,82.7448271 97.5975818,82.8042275 C97.5381813,82.8042275 97.4193804,82.5072253 97.4193804,82.0320217 C97.3005795,79.5372028 96.0531701,77.1611848 93.9741543,75.3197708 C91.4793354,73.1813546 88.2717111,71.5775425 80.4308517,68.4293186 Z" id="Path" fill-rule="nonzero"></path>
            <path d="M72.1147887,70.3895335 C71.9959878,69.4985267 71.6989855,68.3699181 71.5207842,67.8947145 L71.2237819,67.0037078 L71.758386,67.6571127 C72.5305918,68.5481195 73.1245963,69.6173276 73.6592004,71.1023389 C74.0750035,72.2309474 74.0750035,72.5873501 74.0750035,74.4287641 C74.0750035,76.2107776 74.0156031,76.6265807 73.6592004,77.6363884 C73.0651959,79.2402005 72.3523905,80.3688091 71.1643815,81.6162185 C69.0259653,83.8140352 66.2341441,85.0020442 62.2543139,85.5366482 C61.5415085,85.5960487 59.5218932,85.77425 57.7398797,85.8930509 C53.284846,86.1306527 50.3148235,86.6058564 47.6418032,87.5562636 C47.2854005,87.6750645 46.9289978,87.7938654 46.8695973,87.7344649 C46.7507964,87.615664 48.5922104,86.5464559 50.0772217,85.8336505 C52.1562374,84.8238428 54.2946536,84.2892388 58.9872892,83.4576325 C61.3039067,83.1012298 63.6799247,82.6260262 64.2739292,82.3884244 C70.1545738,80.5470104 73.0651959,75.9731758 72.1147887,70.3895335 Z" id="Path" fill-rule="nonzero"></path>
            <path d="M77.5202296,79.9530059 C75.9758179,76.5671803 75.6194152,73.359556 76.4510215,70.330133 C76.5698224,70.0331308 76.6886233,69.7361285 76.8074242,69.7361285 C76.9262251,69.7361285 77.2826278,69.9143299 77.6390305,70.1519317 C78.3518359,70.6271353 79.8368472,71.4587416 83.638476,73.5377573 C88.4499125,76.1513771 91.1823332,78.1709924 93.0831476,80.48761 C94.7463602,82.5072253 95.7561678,84.8238428 96.2313714,87.6750645 C96.5283737,89.2788766 96.3501723,93.1399059 95.9343692,94.743718 C94.6275593,99.7927563 91.6575368,103.831987 87.3213039,106.148604 C86.667899,106.505007 86.1332949,106.742609 86.0738945,106.742609 C86.014494,106.742609 86.2520958,106.148604 86.6084985,105.435799 C88.0341093,102.406376 88.2123107,99.495754 87.1431026,96.2287293 C86.4896976,94.209114 85.1234873,91.7736955 82.3910665,87.6750645 C79.1240418,82.9230284 78.3518359,81.675619 77.5202296,79.9530059 Z" id="Path" fill-rule="nonzero"></path>
            <path d="M33.2668943,98.1295437 C37.6625276,94.4467158 43.0679685,91.833096 48.0576063,91.0014897 C50.1960226,90.645087 53.7600496,90.7638879 55.7202644,91.2984919 C58.8684883,92.1300982 61.7197099,93.9121117 63.2047211,96.1099284 C64.6303319,98.2483446 65.2837369,100.089759 65.9371419,104.18839 C66.1747437,105.792202 66.4717459,107.455414 66.5311464,107.811817 C67.00635,109.950233 67.9567572,111.613446 69.1447662,112.504453 C70.9861801,113.870663 74.1938044,113.930063 77.3420283,112.742054 C77.8766323,112.563853 78.3518359,112.385652 78.3518359,112.445052 C78.4706368,112.563853 76.8668247,113.633061 75.7976166,114.167665 C74.3126053,114.939871 73.1245963,115.177473 71.5207842,115.177473 C68.6695626,115.177473 66.2341441,113.692462 64.2739292,110.722439 C63.8581261,110.128435 63.0265198,108.405822 62.3137144,106.802009 C60.2346986,101.990573 59.1654905,100.564962 56.7300721,98.96115 C54.5916559,97.5949396 51.8592352,97.2979374 49.7802194,98.307745 C47.0477987,99.6145549 46.3349933,103.119181 48.2358077,105.257598 C49.0080136,106.148604 50.4336244,106.86141 51.6216334,107.039611 C53.81945,107.336613 55.7202644,105.614 55.7202644,103.416184 C55.7202644,101.990573 55.1856604,101.158967 53.7600496,100.505562 C51.8592352,99.6739554 49.7802194,100.624363 49.8396199,102.465777 C49.8396199,103.237982 50.1960226,103.713186 50.9682284,104.069589 C51.443432,104.307191 51.443432,104.307191 51.0870293,104.24779 C49.3644163,103.891387 48.9486131,101.752971 50.3148235,100.386761 C51.9780361,98.7235482 55.4826626,99.4363536 56.6706716,101.752971 C57.1458752,102.703378 57.2052757,104.604193 56.7894725,105.792202 C55.7796649,108.405822 52.9284433,109.772032 50.0178212,108.999826 C48.0576063,108.465222 47.226,107.930618 44.849982,105.4952 C40.6919505,101.218367 39.0881384,100.386761 33.1480934,99.495754 L32.0194848,99.3175527 L33.2668943,98.1295437 Z" id="Path" fill-rule="nonzero"></path>
            <path d="M2.02225747,2.55421936 C15.8625624,19.3645468 37.187324,45.5007448 38.2565321,46.9263556 C39.1475388,48.1143646 38.7911361,49.2429732 37.3061249,50.0745795 C36.4745186,50.5497831 34.7519055,51.0249867 33.9202992,51.0249867 C32.969892,51.0249867 31.8412835,50.5497831 31.0690776,49.7775772 C30.5344735,49.2429732 28.217856,45.8571475 22.9906164,37.7192859 C19.0107862,31.4822386 15.6249606,26.3143994 15.5655601,26.254999 C15.3279583,26.1361981 15.3279583,26.1361981 22.5748132,39.0854962 C27.1486479,47.2233579 28.6336591,50.1339799 28.6336591,50.4903826 C28.6336591,51.2625885 28.3960573,51.6783916 27.4456501,52.7475998 C25.841838,54.5296133 25.1290326,56.5492286 24.5944285,60.7666605 C24.000424,65.4592961 22.3966119,68.7857213 17.8227772,74.4287641 C15.149757,77.7551893 14.7339538,78.3491938 14.0805489,79.7154041 C13.2489425,81.3786167 13.0113407,82.3290239 12.8925398,84.4674401 C12.7737389,86.7246573 13.0113407,88.1502681 13.6647457,90.2886843 C14.2587502,92.1894987 14.9121552,93.4369081 16.5159673,95.8723266 C17.8821777,98.0107428 18.713784,99.6145549 18.713784,100.208559 C18.713784,100.683763 18.8325849,100.683763 20.9710011,100.208559 C26.0794398,99.0205504 30.2968717,97.0009351 32.6134893,94.5061162 C34.0391001,92.9617045 34.3955028,92.1300982 34.3955028,89.991682 C34.3955028,88.6254717 34.3361024,88.3284694 33.9796997,87.4968631 C33.3856952,86.1900532 32.2570866,85.1208451 29.8216681,83.4576325 C26.6140438,81.2598158 25.2478335,79.4778023 24.8914308,77.1017843 C24.5944285,75.082169 24.9508312,73.7159587 26.7328447,69.9737303 C28.5742587,66.112701 29.0494623,64.5088889 29.3464645,60.5884592 C29.5246659,58.0936403 29.8216681,57.0838326 30.5344735,56.3116268 C31.3066794,55.4800205 31.9600844,55.1830182 33.8014983,54.9454164 C36.8309213,54.5296133 38.7911361,53.7574074 40.3355478,52.2723962 C41.7017582,51.0249867 42.2957627,49.7775772 42.3551631,47.9361633 L42.4145636,46.5699529 L41.6423577,45.7383466 C38.8505366,42.5307223 0.180843511,0 0.00264216035,0 C-0.0567582898,0 0.893648913,1.12860855 2.02225747,2.55421936 Z M20.2581957,87.0216595 C20.9116006,85.8930509 20.5551979,84.4674401 19.4859898,83.7546347 C18.4761822,83.1012298 16.9317705,83.398232 16.9317705,84.2892388 C16.9317705,84.5268406 17.0505714,84.7644424 17.4069741,84.8832433 C17.9415781,85.1802455 18.0009786,85.4772478 17.5851754,86.1306527 C17.1693723,86.7840577 17.1693723,87.3780622 17.7039763,87.7938654 C18.5355826,88.4472703 19.6641912,88.0908676 20.2581957,87.0216595 Z" id="Shape"></path>
            <path d="M44.315378,55.7770227 C42.8897672,56.1928259 41.5235568,57.7372376 41.1077537,59.2816493 C40.8701519,60.2320565 40.9889528,61.9546695 41.4047559,62.4892736 C42.0581609,63.3208799 42.6521654,63.5584817 44.315378,63.5584817 C47.5824027,63.5584817 50.3742239,62.1328709 50.6712262,60.4102578 C50.9682284,58.984647 49.720819,57.0244322 47.9982059,56.1334254 C47.1071991,55.6582218 45.2657852,55.4800205 44.315378,55.7770227 Z M48.1170068,58.7470452 C48.5922104,58.0342398 48.4140091,57.262034 47.5230023,56.7274299 C45.9191901,55.7176223 43.4837717,56.5492286 43.4837717,58.0936403 C43.4837717,58.8658461 44.7311811,59.6974524 45.9191901,59.6974524 C46.691396,59.6974524 47.7606041,59.2222488 48.1170068,58.7470452 Z" id="Shape"></path>
        </g>
    </g>
</svg>