<?xml version="1.0" encoding="UTF-8"?>
<svg width="80px" height="80px" viewBox="0 0 80 80" version="1.1" xmlns="http://www.w3.org/2000/svg" xmlns:xlink="http://www.w3.org/1999/xlink">
    <title>usd-coin-usdc-logo</title>
    <g id="页面-1" stroke="none" stroke-width="1" fill="none" fill-rule="evenodd">
        <g id="usd-coin-usdc-logo">
            <circle id="Oval" fill="#FFFFFF" cx="40" cy="40" r="33.7248"></circle>
            <path d="M40,0 C62.0896,0 80,17.9072 80,40 C80,62.0896 62.0896,80 40,80 C17.9072,80 0,62.0896 0,40 C0,17.9072 17.9072,0 40,0 Z M49.1392,11.8336 C48.2368,11.5456 47.5008,12.08 47.5008,13.0272 L47.5008,13.0272 L47.5008,15.3568 C47.5008,15.9936 47.9808,16.7136 48.576,16.9312 C58.1504,20.4384 65.0016,29.6416 65.0016,40.416 C65.0016,51.1904 58.1504,60.3936 48.576,63.8976 C47.9232,64.1376 47.5008,64.7776 47.5008,65.472 L47.5008,65.472 L47.5008,67.8016 C47.5008,68.7488 48.24,69.2832 49.1392,68.9952 C61.2384,65.1296 70,53.7952 70,40.4128 C70,27.0304 61.2384,15.6992 49.1392,11.8336 L49.1392,11.8336 Z M32.4992,13.0272 C32.4992,12.08 31.7632,11.5456 30.8608,11.8336 C18.7616,15.6992 10,27.0336 10,40.416 C10,53.7984 18.7616,65.1328 30.8608,68.9984 C31.7632,69.2864 32.4992,68.752 32.4992,67.8048 L32.4992,67.8048 L32.4992,65.4752 C32.4992,64.8416 32.0192,64.1184 31.424,63.9008 C21.8496,60.3936 14.9984,51.1904 14.9984,40.4192 C14.9984,29.648 21.8496,20.4416 31.424,16.9344 C32.0192,16.7168 32.4992,15.9936 32.4992,15.36 L32.4992,15.36 L32.4992,13.0272 L32.4992,13.0272 Z M41.2512,20.416 L38.752,20.416 C38.0608,20.416 37.5008,20.976 37.5008,21.6672 L37.5008,21.6672 L37.5008,25.5392 C32.544,26.2432 29.3408,29.5424 29.3408,33.7728 C29.3408,39.2512 32.6528,41.376 39.6416,42.3168 C44.384,43.0944 45.7312,44.1152 45.7312,46.8128 C45.7312,49.5104 43.44,51.3088 40.2144,51.3088 C35.8496,51.3088 34.4128,49.3984 33.8848,46.928 C33.76,46.3424 33.2576,45.9136 32.6592,45.9136 L32.6592,45.9136 L29.808,45.9136 C29.088,45.9136 28.528,46.56 28.6528,47.2672 C29.3792,51.4272 32.0512,54.48 37.504,55.2192 L37.504,55.2192 L37.504,59.168 C37.504,59.8592 38.064,60.4192 38.7552,60.4192 L38.7552,60.4192 L41.2544,60.4192 C41.9456,60.4192 42.5056,59.8592 42.5056,59.168 L42.5056,59.168 L42.5056,55.2192 C47.6672,54.4 50.9664,50.8064 50.9664,46.3616 C50.9664,40.5184 47.4112,38.5568 40.544,37.616 C35.4752,36.88 34.496,35.696 34.496,33.3248 C34.496,31.0784 36.2112,29.4848 39.5232,29.4848 C42.5184,29.4848 44.24,30.5312 44.9504,32.9408 C45.1104,33.4784 45.5904,33.8592 46.1504,33.8592 L46.1504,33.8592 L48.7808,33.8592 C49.5136,33.8592 50.0832,33.184 49.9264,32.4704 C49.0944,28.6624 46.528,26.3744 42.5024,25.6544 L42.5024,25.6544 L42.5024,21.6672 C42.4992,20.976 41.9392,20.416 41.2512,20.416 L41.2512,20.416 L41.2512,20.416 Z" id="Logo" fill="#2775CA"></path>
        </g>
    </g>
</svg>