<?xml version="1.0" encoding="UTF-8"?>
<svg width="81px" height="68px" viewBox="0 0 81 68" version="1.1" xmlns="http://www.w3.org/2000/svg" xmlns:xlink="http://www.w3.org/1999/xlink">
    <title>tether-logo</title>
    <g id="页面-1" stroke="none" stroke-width="1" fill="none" fill-rule="evenodd">
        <g id="tether-logo" transform="translate(0.056777, 0.700000)" fill="#009393">
            <path d="M17.2983683,0 L63.5314013,0 C64.6898673,0 65.6851239,0.662437726 66.1811522,1.49128493 L79.6027166,24.8558156 C80.2651543,26.0142815 80.0987448,27.6719759 79.1066883,28.6672326 L42.1541838,65.4565278 C40.9957179,66.6149938 39.0052045,66.6149938 37.8467385,65.4565278 L0.894234054,28.8336421 C-0.101022626,27.8383854 -0.264231921,26.1838912 0.398205805,25.022225 L14.8150269,1.49128493 C15.3110551,0.499228431 16.3031116,0 17.2983683,0 L17.2983683,0 Z M57.5662616,10.4421947 L57.5662616,17.0697721 L44.474316,17.0697721 L44.474316,21.5436269 C53.7548445,22.0396552 60.7120407,24.0301685 60.7120407,26.3503007 L60.7120407,31.3201837 C60.7120407,33.6403158 53.7516443,35.7940385 44.474316,36.1268575 L44.474316,47.3946992 L35.6930159,47.3946992 L35.6930159,36.4564762 C26.4124873,35.960448 19.4520909,33.9699346 19.4520909,31.6498025 L19.4520909,26.6799194 C19.4520909,24.3597873 26.4124873,22.2060647 35.6930159,21.8732457 L35.6930159,17.2329814 L22.6010703,17.2329814 L22.6010703,10.605404 L57.5662616,10.605404 L57.5662616,10.4421947 L57.5662616,10.4421947 Z M40.1668707,32.9778781 C50.1098369,32.9778781 58.2286993,31.3201837 60.3824219,29.0000516 C58.7247275,27.0127384 52.4267689,25.5214535 44.6407254,25.1886345 L44.6407254,29.9953083 C43.1494405,29.9953083 41.8245651,30.1617177 40.3332801,30.1617177 C38.8419952,30.1617177 37.3507103,30.1617177 36.0258348,29.9953083 L36.0258348,25.1886345 C28.2365912,25.5214535 21.9418327,27.1759477 20.2841383,29.0000516 C21.9386325,31.3201837 30.2239044,32.9778781 40.1668707,32.9778781 L40.1668707,32.9778781 Z" id="Shape"></path>
        </g>
    </g>
</svg>