<?xml version="1.0" encoding="UTF-8"?>
<svg width="100px" height="100px" viewBox="0 0 100 100" version="1.1" xmlns="http://www.w3.org/2000/svg" xmlns:xlink="http://www.w3.org/1999/xlink">
    <title>velodrome</title>
    <defs>
        <linearGradient x1="53.6947258%" y1="47.0194038%" x2="54.6253727%" y2="51.5721794%" id="linearGradient-1">
            <stop stop-color="#191919" offset="16%"></stop>
            <stop stop-color="#191919" stop-opacity="0" offset="97%"></stop>
        </linearGradient>
    </defs>
    <g id="Page-1" stroke="none" stroke-width="1" fill="none" fill-rule="evenodd">
        <g id="velodrome" fill-rule="nonzero">
            <path d="M55.9013067,76.4538377 C39.0261286,76.6685878 25.8936846,74.3333367 16.1479511,71.1740851 C14.2370843,70.5250848 10.066752,68.6258339 8.67238299,66.2225827 C7.90076128,64.8925821 7.89161132,61.4790804 8.15971017,57.9658287 C8.23533485,58.2100788 8.32343448,58.4225789 8.42523404,58.598329 C9.81690311,61.0023302 14.0128102,62.8953311 15.936802,63.5413314 C25.7504352,66.6843329 38.9868788,68.9948341 56.0158062,68.7435839 C74.9507255,68.4638338 86.5734259,66.2323327 93.3996468,63.5878314 C93.3956468,63.6488315 93.3916469,63.7098315 93.3876469,63.7708315 C93.1043981,68.1395836 92.8291493,72.3793357 81.635947,74.3703367 C75.1587246,75.5223372 66.7415105,76.3158376 55.9013067,76.4538377 Z" id="Path" fill="#FF1100"></path>
            <path d="M55.9013067,82.6125907 C39.0261286,82.8273408 25.8936846,80.4920897 16.1479511,77.3328381 C14.2370843,76.6835878 10.066752,74.7845869 8.67238299,72.3813357 C7.90076128,71.0513351 7.89161132,67.6378334 8.15971017,64.1245817 C8.23533485,64.3688318 8.32343448,64.5810819 8.42523404,64.757082 C9.81690311,67.1608332 14.0128102,69.0538341 15.936802,69.6998344 C25.7504352,72.8428359 38.9868788,75.1535871 56.0158062,74.9020869 C74.9507255,74.6225868 86.5734259,72.3910857 93.3996468,69.7465844 C93.3956468,69.8075845 93.3916469,69.8685845 93.3876469,69.9293345 C93.1043981,74.2980866 92.8291493,78.5380887 81.635947,80.5288397 C75.1587246,81.6808402 66.7415105,82.4745906 55.9013067,82.6125907 Z" id="Path" fill="#FDBF41"></path>
            <path d="M97.4178797,76.3310876 C97.574629,80.2825895 88.6911669,88.3028434 51.9010737,88.7713437 C35.0258957,88.9860938 21.8935016,86.6505926 12.1476682,83.4915911 C10.2368013,82.8423408 6.0664691,80.9433399 4.67210004,78.5400887 C3.90045333,77.2100881 3.89132837,73.7965864 4.15942723,70.2833347 C4.2350269,70.5275848 4.32315153,70.7398349 4.42495109,70.915585 C5.81662016,73.3195862 10.0125273,75.2125871 11.9365191,75.8585874 C21.7502522,79.0015889 34.9863958,81.3123401 52.0153232,81.0608399 C81.3364482,80.6278397 93.123398,75.5148372 96.7176327,71.4345852 L97.4178797,76.3310876 Z" id="Path" fill="#F1ECE2"></path>
            <path d="M53.1985682,4.20627756 C59.9865393,6.63450374 70.0349964,20.0591103 55.9258066,54.3318269 C49.4540842,70.0520846 40.1591238,80.6563397 30.8344135,87.5973431 C28.9556715,88.9390938 24.0343675,91.552845 19.3797623,91.2753449 C17.5577451,91.1668448 14.1161348,90.0268443 10.1804016,88.4718435 C11.0929477,88.7123436 11.8697944,88.8618437 12.4705668,88.8980937 C17.125172,89.1783439 22.046476,86.5370926 23.925293,85.1813419 C33.2499032,78.1670885 42.5448636,67.4508333 49.016586,51.5645756 C60.6655364,22.9697867 55.8473069,8.73602976 49.9923319,3.2603771 L53.1985682,4.20627756 Z" id="Path" fill="#FF1100"></path>
            <path d="M59.0170434,4.59630275 C65.8050145,7.09447897 75.8537216,20.9057857 61.7442818,56.1655778 C55.2725593,72.3388357 45.977599,83.248591 36.6531387,90.3895945 C34.7741467,91.7698451 29.8529177,94.4588464 25.1981875,94.1733463 C23.3762203,94.0615962 19.934485,92.8890957 15.9985768,91.2890949 C16.9112979,91.536595 17.6882696,91.6903451 18.289092,91.7275951 C22.9437222,92.0160953 27.8649262,89.2985939 29.7439182,87.9038433 C39.0683784,80.6875897 48.3633388,69.6625844 54.8350612,53.3185764 C66.4840116,23.9003871 61.6657821,9.25660502 55.8110571,3.62320228 L59.0170434,4.59630275 Z" id="Path" fill="#FDBF41"></path>
            <path d="M64.1082717,7.85677934 C70.8962427,10.3549306 80.9449499,24.1662373 66.8355101,59.4260794 C60.3637876,75.5993373 51.0688273,86.5090926 41.744367,93.650096 C39.865375,95.0303467 34.944146,97.719348 30.2894158,97.4338479 C28.4674236,97.3220978 25.0256883,96.1493473 21.0898051,94.5495965 C22.0025262,94.7968466 22.7794979,94.9508467 23.3803203,94.9880967 C28.0349255,95.2765968 32.9561545,92.5590955 34.8351465,91.1643448 C44.1596067,83.9478413 53.4545671,72.923086 59.9262895,56.579078 C71.5752399,27.1608137 66.7570104,12.5170816 60.9022854,6.88365386 L64.1082717,7.85677934 Z" id="Path" fill="#F1ECE2"></path>
            <path d="M71.5027402,61.0093302 C85.61218,24.4436874 75.5634729,10.1210054 68.7755018,7.53030418 L65.5695155,6.52122869 C65.6310152,6.58250372 65.6922649,6.64482875 65.7535147,6.70815378 C60.8300357,5.90210339 54.0845644,9.24525501 47.7218415,15.6455331 C46.8125954,16.5512586 50.7970784,15.0596828 52.0855729,13.7760572 C55.1765598,11.240056 59.80079,9.97075536 64.1467715,11.7938313 C73.9534797,15.9073583 74.1567289,37.5718188 64.6010196,60.1828298 C55.0453103,82.7938408 40.4401226,97.4265979 30.6334144,93.3130959 C29.32242,92.7630956 27.9514258,91.7343451 26.8124307,90.9428447 C24.1805919,88.5930936 22.9941469,85.4548421 22.9941469,77.3570881 L22.9941469,87.347843 C22.3037499,86.3210925 21.7212774,85.1700919 21.2675293,83.8783413 C21.1758297,81.7045902 19.7213359,78.0818385 19.2733378,81.8858403 C19.6115114,90.1853444 23.210896,95.0093467 28.0699253,97.8893481 L28.0474254,97.8878481 C27.8654262,97.8760981 27.7249268,97.8720981 27.6036773,97.8685981 C27.1394293,97.8553481 26.9516801,97.8498481 25.7584352,97.4543479 C29.5686689,99.1253487 31.65441,99.9028491 33.9404003,99.9903491 C39.2948775,100.195599 45.5163509,97.0743477 47.3953429,95.643097 C56.7198032,88.2375934 65.0310178,77.7813383 71.5027402,61.0093302 Z" id="Path" fill="#007FFF"></path>
            <path d="M52.0990729,42.4800712 C68.9740009,42.2653211 82.106445,44.6008222 91.8524034,47.7598237 C93.7631453,48.4090741 97.9336275,50.308075 99.3278716,52.7113261 C100.099618,54.0413268 100.108618,57.4550785 99.8406194,60.9680802 C99.7651197,60.72383 99.6768701,60.5115799 99.5751205,60.3358299 C98.1833764,57.9318287 93.9873943,56.0388278 92.0634025,55.3928274 C82.2496944,52.2498259 69.0135008,49.9390748 51.9845734,50.1905749 C33.0494041,50.4700751 21.4267786,52.7015761 14.6006577,55.3463274 C14.6046577,55.2853274 14.6086077,55.2243274 14.6125577,55.1633273 C14.8960065,50.7945752 15.1711053,46.5545732 26.3644326,44.5638222 C32.841405,43.4118216 41.2588691,42.6180712 52.0990729,42.4800712 Z" id="Path" fill="#FF1100"></path>
            <path d="M52.0990729,49.4263245 C68.9740009,49.2115744 82.106445,51.5470756 91.8524034,54.7060771 C93.7631453,55.3553274 97.9336275,57.2543284 99.3278716,59.6575795 C100.099618,60.9875802 100.108618,64.4010818 99.8406194,67.9143335 C99.7651197,67.6700834 99.6768701,67.4578333 99.5751205,67.2820832 C98.1833764,64.8780821 93.9873943,62.9850811 92.0634025,62.3390808 C82.2496944,59.1960793 69.0135008,56.8853282 51.9845734,57.1368283 C33.0494041,57.4163284 21.4267786,59.6478295 14.6006577,62.2925808 C14.6046577,62.2315808 14.6086077,62.1705807 14.6125577,62.1095807 C14.8960065,57.7408286 15.1711053,53.5008265 26.3644326,51.5100756 C32.841405,50.358075 41.2588691,49.5643246 52.0990729,49.4263245 Z" id="Path" fill="#FDBF41"></path>
            <path d="M97.3326301,78.6295887 C97.4981294,78.4970887 97.4981294,78.4833387 97.3326301,78.3508386 C96.9486317,78.0348385 96.5378834,77.7595883 96.1173852,77.4978382 C94.7136412,76.6245878 93.2136476,75.9585874 91.6774042,75.3808372 C91.3264057,75.2483371 90.9854071,75.088587 90.6111587,75.020587 C90.5086591,74.9015869 90.3561598,74.8913369 90.2239104,74.8473369 C88.7901665,74.3578367 87.3299227,73.9568365 85.8664289,73.5728363 C85.7439295,73.5628363 85.62468,73.5355863 85.5186804,73.4743362 C84.8334333,73.3213362 84.1479363,73.1650861 83.4659392,73.012336 C82.1976946,72.7300859 80.92295,72.4855858 79.6449555,72.2645857 C78.6979595,72.1015856 77.7477135,71.9485855 76.7974676,71.8023354 C76.0557208,71.6903354 75.3139739,71.5748353 74.5657271,71.5203353 C74.4432276,71.5000853 74.3207282,71.4760853 74.1949787,71.4590853 C71.5757399,71.1295851 68.953501,70.881585 66.3212623,70.6945849 C64.6027696,70.5755848 62.8842769,70.4805848 61.1625342,70.4125848 C58.9142938,70.3240847 56.6628034,70.2833347 54.411313,70.2833347 C51.6200749,70.2833347 48.8320868,70.3548347 46.0473487,70.4940848 C42.8291124,70.6538349 39.6173761,70.905335 36.4153897,71.2723352 C35.892392,71.3335852 35.3626442,71.3673352 34.8461464,71.4830853 C34.7401469,71.4523353 34.6373973,71.4830853 34.5313978,71.4930853 C32.2501575,71.7820854 29.9786672,72.1388356 27.7206768,72.5773358 C26.3864325,72.8355859 25.0586881,73.1208361 23.7407688,73.4438362 L23.7142939,73.4880862 C23.7142939,73.4880862 23.3732453,78.5240887 24.1281671,83.4415911 C25.4294366,83.7575912 26.737181,84.0395914 28.0484254,84.2910915 C29.2206704,84.5153416 30.3959154,84.7293417 31.5779104,84.9028418 C33.2336533,85.1473419 34.8923962,85.395592 36.5578891,85.5720921 C38.1768822,85.7455922 39.7928753,85.9255923 41.4151184,86.0478424 C42.3753643,86.1193424 43.3323602,86.2043424 44.2926062,86.2620925 C45.7131001,86.3470925 47.136844,86.4183425 48.557338,86.4693426 C49.8550824,86.5168426 51.1530769,86.5543426 52.4510714,86.5713426 C54.5270625,86.5983426 56.6065537,86.5883426 58.6825448,86.5440926 C60.6822863,86.4998426 62.6822778,86.4218425 64.6787693,86.3060925 C67.0595091,86.1703424 69.436749,85.9765923 71.8109889,85.7250922 C75.4299734,85.341092 79.0289581,84.8245918 82.5951929,84.0938414 C85.7106796,83.4550911 88.7901665,82.6733407 91.7766537,81.5453402 C93.0778982,81.0558399 94.3526428,80.4950897 95.5646376,79.8018393 C96.180385,79.4518391 96.7763824,79.071339 97.3326301,78.6260887 L97.3326301,78.6295887 Z" id="Path" fill="url(#linearGradient-1)" opacity="0.48"></path>
            <path d="M6.5824919,68.3878338 C6.42554257,64.4360818 15.3091797,56.4158279 52.0993229,55.9475777 C68.9742509,55.7325776 82.106695,58.0680787 91.8526534,61.2273303 C93.7633953,61.8763306 97.9338775,63.7753315 99.3281216,66.1785827 C100.099868,67.5085833 100.108868,70.922335 99.8408694,74.4353367 C99.7653697,74.1910866 99.6771201,73.9788365 99.5753705,73.8030864 C98.1836264,71.3990852 93.9876443,69.5060843 92.0636525,68.860084 C82.2499444,65.7170825 69.0137508,63.4063313 51.9848234,63.6578315 C22.6639483,64.0908317 10.8769736,69.2040842 7.28261391,73.2840861 L6.5824919,68.3878338 Z" id="Path" fill="#F1ECE2"></path>
            <path d="M6.5824919,75.6335873 C6.42554257,71.6818354 15.3091797,63.6615815 52.0993229,63.1933312 C68.9742509,62.9783311 82.106695,65.3138323 91.8526534,68.4730838 C93.7633953,69.1220841 97.9338775,71.021085 99.3281216,73.4245862 C100.023369,74.6225868 100.099618,77.5120882 99.9118691,80.6418397 C98.4208754,78.3185886 93.9488945,76.7383378 92.0646525,76.1055875 C82.2509443,72.962586 69.0147508,70.6520849 51.9858234,70.903335 C22.6627234,71.3363352 10.8761736,76.4503377 7.28271391,80.5305897 L6.5824919,75.6335873 Z" id="Path" fill="#007FFF"></path>
            <path d="M9.85582794,90.3013444 C3.06783188,87.7835932 -6.98080029,73.8638364 7.12851457,38.3273192 C13.600262,22.0271362 22.8951724,11.0317809 32.2199076,3.83475238 C34.0986496,2.4436767 39.0198786,-0.266528363 43.6746088,0.0212172764 C46.3060976,0.183893106 52.315822,2.57675177 58.3132964,5.27607808 C57.696299,5.34015311 57.1005516,5.40575314 56.532054,5.46837817 C54.4700628,5.69552829 52.76357,5.88350338 51.6745747,5.81740334 C47.0200945,5.53485321 42.0988655,8.1960295 40.2198735,9.56193017 C30.8954133,16.6287086 21.6004029,27.4250639 15.1286305,43.4303216 C3.40748043,72.4175857 8.35838433,86.7565927 14.2618342,92.1975953 L9.85582794,90.3013444 Z" id="Path" fill="#FF1100"></path>
            <path d="M15.6742531,93.0930958 C8.88625708,90.5480945 -1.16239259,76.4773377 12.9469148,40.5548202 C19.4186872,24.0776622 28.7136726,12.9629068 38.0381328,5.68775328 C39.9171248,4.2815776 44.8383538,1.54193627 49.492834,1.83280641 C51.5248253,1.95977647 55.5708081,3.43082718 60.0700389,5.35072812 C58.3900461,4.78732784 56.992302,4.42900267 56.0385561,4.36895264 C51.3838259,4.0760025 46.4625969,6.83525384 44.5838549,8.25150453 C35.2591447,15.5787831 25.9641843,26.7730635 19.4924869,43.3683216 C5.38317201,79.5478392 15.7580028,93.2610959 22.5459989,95.8245971 L28.364174,97.8170981 L15.6742531,93.0930958 Z" id="Path" fill="#FDBF41"></path>
            <path d="M21.1282799,95.522597 C14.3403088,92.9503457 4.29165166,78.7283388 18.4009665,42.4200711 C24.8727389,25.765813 34.1676493,14.5317326 43.4923596,7.17842901 C45.3711016,5.75712832 50.2923306,2.98807697 54.9470607,3.28207711 C57.0500518,3.41490218 61.3107836,5.00307795 65.9985136,7.04335394 C64.4135204,6.53742869 63.094276,6.21755354 62.1822799,6.15872851 C57.5277997,5.85850336 52.6438206,8.34620457 50.7650786,9.79770528 C41.4403683,17.3072839 32.1456579,28.7800645 25.6739355,45.7883228 C13.6264369,77.4493382 21.9757513,92.9718457 27.9999256,98.1793483 L21.1282799,95.522597 Z" id="Path" fill="#F1ECE2"></path>
            <path d="M24.2194167,44.4250721 C10.1100769,80.9905899 20.158734,95.3130969 26.9466801,97.9038481 L30.1524164,98.9128486 C30.0911667,98.8515986 30.0299169,98.7893485 29.9686672,98.7260985 C34.8921462,99.5320989 41.6376175,96.1888473 48.0003403,89.7885942 C48.9093365,88.8828437 44.9251035,90.3745945 43.6366089,91.6580951 C40.5456221,94.1940963 35.9213918,95.4633469 31.5751604,93.640346 C21.7686772,89.526844 21.565303,67.8623335 31.1209123,45.2513225 C40.6766216,22.6403865 55.2820593,8.00755441 65.0887675,12.1210814 C66.3995119,12.6709817 67.7707561,13.6997572 68.9097512,14.4912826 C71.54149,16.8411587 72.7279849,19.9792602 72.7279849,28.0770642 L72.7279849,18.0863343 C73.418482,19.1130598 74.0009795,20.2640354 74.4547276,21.555786 C74.5462272,23.7294871 76.000721,27.3523138 76.4487191,23.548337 C76.1107205,15.2489079 72.5112359,10.4247806 67.6522566,7.54492918 L67.6747565,7.54635419 C67.8567557,7.55805419 67.9972551,7.56210419 68.1185046,7.56557919 C68.5825026,7.5789542 68.7705018,7.5843542 69.9634967,7.9797794 C66.153513,6.30885358 64.0677719,5.53142821 61.7815316,5.44380316 C56.4270544,5.23855306 50.2055809,8.35975458 48.326839,9.79113028 C39.0021287,17.1965089 30.6911641,27.652814 24.2194167,44.4250721 Z" id="Path" fill="#007FFF"></path>
            <path d="M55.0378103,86.3518425 C83.494439,85.5363421 95.3656384,80.5398397 99.2703718,76.4703377 L99.6421202,79.8800894 L99.8201195,79.7028393 C99.936869,80.0903395 99.9786188,80.9658399 99.8011195,81.7730903 C99.3041217,85.247592 88.9639157,94.2548463 48.9103365,94.2548463 C47.4478427,94.2548463 46.0545986,94.2380963 44.7283543,94.2053463 C47.7125916,91.547595 50.2575807,88.9358438 52.4395714,86.4065925 C53.2958178,86.3950925 54.1618141,86.3768425 55.0378103,86.3518425 Z" id="Path" fill="#007FFF"></path>
        </g>
    </g>
</svg>