<?xml version="1.0" encoding="UTF-8"?>
<svg width="80px" height="80px" viewBox="0 0 80 80" version="1.1" xmlns="http://www.w3.org/2000/svg" xmlns:xlink="http://www.w3.org/1999/xlink">
    <title>check-circle 2</title>
    <g id="页面-1" stroke="none" stroke-width="1" fill="none" fill-rule="evenodd">
        <g id="Group-20" fill="#41FFC8" fill-rule="nonzero">
            <g id="check-circle">
                <path d="M40,0 C18,0 0,18 0,40 C0,62 18,80 40,80 C62,80 80,62 80,40 C80,18 62,0 40,0 M33.2717062,53.9782069 L20.9986154,41.6108888 C20.4458642,41.0538938 20.4458642,40.1553192 20.9986154,39.5983243 L23.0159766,37.5654746 C23.571731,37.0054534 24.4762458,37.0019945 25.036267,37.5577488 C25.0383807,37.5598464 25.0404878,37.5619506 25.0425883,37.5640614 L33.2716974,45.8332515 C33.8282323,46.392497 34.732751,46.3946945 35.2919965,45.8381596 C35.2941073,45.8360591 35.2962115,45.833952 35.2983091,45.8318383 L54.9538312,26.02541 C55.5095855,25.4653889 56.4141003,25.4619299 56.9741215,26.0176843 C56.9779009,26.0214349 56.9816593,26.0252066 56.9853965,26.0289992 L59.0084563,28.0820492 C59.557855,28.6395923 59.5562724,29.5354261 59.004907,30.0910246 L35.2997223,53.9782069 C34.743968,54.538228 33.8394532,54.541687 33.279432,53.9859326 C33.2768469,53.9833672 33.2742716,53.980792 33.2717062,53.9782069 Z" id="Shape"></path>
            </g>
        </g>
    </g>
</svg>