<?xml version="1.0" encoding="UTF-8"?>
<svg width="20px" height="20px" viewBox="0 0 20 20" version="1.1" xmlns="http://www.w3.org/2000/svg" xmlns:xlink="http://www.w3.org/1999/xlink">
    <title>Group 22</title>
    <g id="页面-1" stroke="none" stroke-width="1" fill="none" fill-rule="evenodd">
        <g id="Group-22" fill="#F9F9F9" fill-rule="nonzero">
            <g id="noun-copy-5772175">
                <path d="M2.275,20 L14.4,20 C15.65,20 16.675,18.975 16.675,17.725 L16.675,5.6 C16.675,4.35 15.65,3.325 14.4,3.325 L2.275,3.325 C1.025,3.325 0,4.35 0,5.6 L0,17.725 C0,18.975 1.025,20 2.275,20 Z M0.95,5.6 C0.95,4.875 1.55,4.275 2.275,4.275 L14.4,4.275 C15.125,4.275 15.725,4.875 15.725,5.6 L15.725,17.725 C15.725,18.45 15.125,19.05 14.4,19.05 L2.275,19.05 C1.55,19.05 0.95,18.45 0.95,17.725 L0.95,5.6 Z" id="Shape"></path>
                <path d="M17.725,0 L5.6,0 C4.35,0 3.325,1.025 3.325,2.275 L3.325,2.4 C3.325,2.675 3.55,2.875 3.8,2.875 C4.075,2.875 4.275,2.65 4.275,2.4 L4.275,2.275 C4.275,1.55 4.875,0.95 5.6,0.95 L17.725,0.95 C18.45,0.95 19.05,1.55 19.05,2.275 L19.05,14.4 C19.05,15.125 18.45,15.725 17.725,15.725 L17.6,15.725 C17.325,15.725 17.125,15.95 17.125,16.2 C17.125,16.45 17.35,16.675 17.6,16.675 L17.725,16.675 C18.975,16.675 20,15.65 20,14.4 L20,2.275 C20,1.025 18.975,0 17.725,0 Z" id="Path"></path>
            </g>
            <g id="Group" transform="translate(4.000000, 7.000000)">
                <path d="M3.93587877,7.03388947 L3.14776478,7.82221064 C2.60359084,8.36652763 1.72165376,8.36652763 1.17747982,7.82221064 C0.63330588,7.27789364 0.63330588,6.39572471 1.17747982,5.85140772 L3.54182178,3.48644421 C4.367465,2.73566215 5.23063746,3.20490094 5.51210674,3.48644421 C5.79357602,3.76798749 5.92492835,4.12460897 5.92492835,4.5 L6.60045462,3.82429614 C6.50663153,3.50521376 6.31898534,3.20490094 6.05628068,2.94212722 C5.79357602,2.67935349 4.42375885,1.64702815 2.97888322,2.94212722 L0.63330588,5.28832117 C-0.21110196,6.13295099 -0.21110196,7.52189781 0.63330588,8.36652763 C1.47771372,9.21115746 2.8662955,9.21115746 3.71070334,8.36652763 L5.06175589,7.01511992 C4.68646351,7.10896767 4.31117114,7.10896767 3.93587877,7.03388947 Z" id="Path"></path>
                <path d="M8.36432878,0.633472367 C7.51992094,-0.211157456 6.13133915,-0.211157456 5.28693131,0.633472367 L3.93587877,1.98488008 C4.29240652,1.90980188 4.68646351,1.89103233 5.04299127,1.96611053 L5.83110525,1.17778936 C6.3752792,0.633472367 7.25721627,0.633472367 7.80139022,1.17778936 C8.34556416,1.72210636 8.34556416,2.60427529 7.80139022,3.14859228 L5.45581288,5.51355579 C4.6676989,6.26433785 3.7669972,5.79509906 3.48552792,5.51355579 C3.20405864,5.23201251 3.07270631,4.87539103 3.07270631,4.5 L2.39718004,5.17570386 C2.49100313,5.49478624 2.67864932,5.79509906 2.94135398,6.05787278 C3.20405864,6.32064651 4.51758195,7.33420229 6.01875144,6.05787278 L8.38309339,3.69290928 C9.20873662,2.84827946 9.20873662,1.47810219 8.36432878,0.633472367 Z" id="Path"></path>
            </g>
        </g>
    </g>
</svg>