<?xml version="1.0" encoding="UTF-8"?>
<svg width="100px" height="115px" viewBox="0 0 100 115" version="1.1" xmlns="http://www.w3.org/2000/svg" xmlns:xlink="http://www.w3.org/1999/xlink">
    <title>dextools</title>
    <g id="页面-1" stroke="none" stroke-width="1" fill="none" fill-rule="evenodd">
        <g id="dextools" transform="translate(0.000000, -0.000000)" fill="#FFFFFF">
            <path d="M37.1876733,6.50207837 C30.337672,10.0703815 24.7334268,13.0898781 24.7346202,13.2126898 C24.7376708,13.529666 41.1748094,21.8540709 41.7582313,21.8337791 C42.023616,21.8248932 43.9488153,20.9386861 46.0362163,19.8646806 L49.8321056,17.9122929 L53.9777298,20.0431952 L58.1230887,22.1744954 L64.9119495,19.1239642 C75.1413946,14.5272789 76.2038617,14.0235653 76.0372834,13.8543345 C75.8163284,13.6297987 72.1472295,11.6587107 62.1927182,6.41799347 C57.3818419,3.88510171 52.7124776,1.40167946 51.8160583,0.89915946 C50.9197716,0.396639464 50.0640685,-0.00760465045 49.914599,0.000108571782 C49.7651295,0.00804522011 44.0378074,2.93390788 37.1876733,6.50207837 L37.1876733,6.50207837 Z M7.14363541,22.0599065 L0.0128647241,25.7431963 L0.0128647241,41.9084516 C0.0128647241,50.7994349 0.106498695,58.0735743 0.22135283,58.0735743 C0.335809087,58.0735743 3.84416524,56.5527517 8.01750826,54.693998 L15.6054408,51.3144217 L15.6054408,34.2751609 L19.3133992,36.2953205 C22.1706986,37.8506085 25.0297195,39.4027318 27.8904566,40.9516875 L32.7594231,43.5878949 L34.9260018,42.6081865 C36.2847949,41.9927781 37.640865,41.371375 38.9941724,40.7439952 C40.0399286,40.2569924 42.6070378,39.1007587 44.6986828,38.1741007 C46.7903278,37.2470448 48.7265351,36.3148165 49.001071,36.1023496 C49.3657925,35.8201215 44.9185768,33.3625613 32.5521286,27.0121621 C23.2305087,22.2252911 15.304645,18.3239641 14.9391277,18.3425974 C14.5736104,18.3613646 11.0656521,20.0339114 7.14363541,22.0599065 L7.14363541,22.0599065 Z M77.3224295,23.0942568 C72.4659299,25.2866976 68.489006,27.1681303 68.4844967,27.2754248 C68.4802527,27.3825866 71.1272028,28.9564596 74.3669913,30.7723751 C77.6065145,32.5886885 80.2571781,34.1718453 80.2571781,34.2910761 C80.2571781,34.4100416 77.3904667,35.7990339 73.8871503,37.3783446 C70.3833034,38.9572574 61.5272008,42.9567277 54.2063771,46.2661448 L29.6766639,57.3539455 C23.5062382,60.143336 17.9443007,62.6575275 17.316847,62.941745 C4.71339618,68.6471839 1.2492045,70.2303407 0.773474958,70.5020914 C0.295092898,70.7756989 0.186737439,72.3652217 0.101591533,80.3430748 L0,89.8581961 L6.37665912,93.1072684 L12.7531856,96.3562081 L21.5952299,92.3657563 C26.4584934,90.1711935 30.4372741,88.2605831 30.4372741,88.1198669 C30.4372741,87.9795485 29.5386002,87.3940046 28.440722,86.8181425 C27.3423133,86.2422803 25.0749388,84.9674789 23.4015963,83.9847201 C21.7283864,83.0018287 20.059951,82.1001044 19.693638,81.9804757 C19.3274575,81.8612449 19.0331604,81.6526242 19.0391285,81.5165499 C19.0452293,81.3808734 22.9388641,79.5314036 27.6911197,77.4063368 C36.9214929,73.2794129 43.9852875,70.098643 59.1502773,63.2406841 C65.93153,60.1747128 72.7136272,57.1106095 79.4965679,54.0483745 C85.4578423,51.3576578 92.3888782,48.2150842 94.8989583,47.0649513 L99.4626197,44.9738369 L99.5640786,35.3503601 L99.666068,25.7272812 L93.1985601,22.4076519 C89.6412649,20.5820547 86.6006807,19.0927971 86.4412643,19.0982199 C86.2819804,19.1032746 82.1785313,20.9012855 77.3224295,23.0942568 L77.3224295,23.0942568 Z M97.7298607,57.8120358 C96.7768101,58.2775531 94.8943164,59.1491713 93.5465708,59.7487736 C92.1988251,60.3483758 89.6412649,61.5023548 87.8632805,62.3136282 L84.6306538,63.7880317 L84.5569138,72.2365745 C84.5161976,76.8831272 84.34511,80.664295 84.1766749,80.6397592 C83.7940489,80.5828627 77.735427,77.4757002 71.64524,74.2123043 C67.2496158,71.8572641 66.9734884,71.7636301 65.940597,72.2751687 C65.3435146,72.5710573 61.7744157,74.1717208 58.0094282,75.8328617 C54.2443081,77.4937374 51.0411244,78.9611117 50.8904613,79.094003 C50.740196,79.226629 58.3177837,83.333659 67.7299873,88.2211931 L84.8425902,97.1075345 L92.1528039,93.3259687 C96.1729639,91.2463927 99.5915322,89.3494427 99.7489593,89.1108485 C100.103336,88.5743762 100.072965,56.892009 99.71819,56.9348038 C99.5778717,56.9516908 98.6829113,57.3465184 97.7298607,57.8120358 L97.7298607,57.8120358 Z M57.248818,94.9991786 C55.9807937,95.5443203 54.7131097,96.0902533 53.4457668,96.6369773 C49.6187104,98.2926806 50.3687105,98.3475878 45.8156592,96.0810091 C42.7831652,94.5714597 41.4760031,94.1056771 40.908629,94.3318045 C40.4830321,94.5013005 36.8202993,96.1491788 32.7685743,97.9936089 C28.7171146,99.838039 25.2616762,101.347058 25.0897929,101.347058 C23.3899252,101.347058 26.2159205,103.03552 37.1208298,108.536317 L49.9096918,114.986848 L55.2905948,112.330349 C58.2501445,110.869208 64.2193765,107.943346 68.5559821,105.828491 C72.8921899,103.713106 76.3864877,101.927562 76.3211031,101.860188 C76.2551879,101.793079 72.6217654,99.9272963 68.246433,97.7140333 L60.2912589,93.690425 L57.248818,94.9991786 Z" id="Shape"></path>
        </g>
    </g>
</svg>