<?xml version="1.0" encoding="UTF-8"?>
<svg width="100px" height="101px" viewBox="0 0 100 101" version="1.1" xmlns="http://www.w3.org/2000/svg" xmlns:xlink="http://www.w3.org/1999/xlink">
    <title>etherscan-logo</title>
    <g id="页面-1" stroke="none" stroke-width="1" fill="none" fill-rule="evenodd">
        <g id="etherscan-logo" transform="translate(0.000000, 0.000000)" fill="#FFFFFF" fill-rule="nonzero">
            <path d="M20.8197082,47.5585778 C20.8197082,45.2503361 22.7159068,43.3541376 25.0201481,43.3541376 L25.0201481,43.3541376 L32.10489,43.3541376 C34.4131317,43.3541376 36.3893387,45.2503361 36.3893387,47.6425866 L36.3893387,47.6425866 L36.3893387,74.3613846 C37.213425,74.1133587 38.2015284,73.8653327 39.3576495,73.6173067 C40.9218133,73.2052636 42.0779344,71.805117 42.0779344,70.1529439 L42.0779344,37.0014723 C42.0779344,34.6932306 43.9741329,32.7130232 46.362383,32.7130232 L53.447125,32.7130232 C55.7553667,32.7130232 57.7315736,34.6092218 57.7315736,37.0014723 L57.7315736,67.7646938 C57.7315736,67.7646938 59.463755,67.0206159 61.191936,66.2805384 C62.5120742,65.7044781 63.3361605,64.4683486 63.3361605,62.9801928 L63.3361605,26.28435 C63.3361605,23.9761083 65.2323591,21.9959009 67.5406008,21.9959009 L74.6253428,21.9959009 C76.9335845,21.9959009 78.829783,23.8920995 78.829783,26.28435 L78.829783,56.5515196 C84.9264215,52.0990533 91.1910775,46.738492 96.1355953,40.3058183 C97.6197507,38.4096198 98.0317939,35.9333604 97.2077076,33.6251187 C88.1427583,7.56638984 59.635773,-6.29106132 33.5970462,2.78188881 C7.55831946,11.8548389 -6.28313002,40.3858267 2.77781884,66.448556 C3.76592232,69.4168669 5.08606056,72.2211605 6.65022436,74.9414454 C7.88635381,77.0856699 10.1945955,78.3217994 12.6668544,78.0737734 C13.9869927,77.9897646 15.6351653,77.8257474 17.6913806,77.5777215 C19.5035704,77.4137043 20.8237086,75.8455401 20.8237086,74.0293499 L20.8197082,47.5585778 L20.8197082,47.5585778 Z" id="Path_1"></path>
            <path d="M20.6516906,90.4430687 C42.982029,106.68877 74.2132996,101.740252 90.4429992,79.3939117 C96.6236464,70.8170135 100,60.5079339 100,49.9548288 C100,48.7987077 99.9159912,47.6465871 99.8359828,46.490466 C81.6300763,73.7853243 47.9265468,86.5666628 20.6516906,90.4430687 L20.6516906,90.4430687 Z" id="Path_2"></path>
        </g>
    </g>
</svg>