<?xml version="1.0" encoding="UTF-8"?>
<svg width="20px" height="22px" viewBox="0 0 20 22" version="1.1" xmlns="http://www.w3.org/2000/svg" xmlns:xlink="http://www.w3.org/1999/xlink">
    <title>calendar-edit-outline</title>
    <g id="é¡µé¢-1" stroke="none" stroke-width="1" fill="none" fill-rule="evenodd">
        <g id="calendar-edit-outline" fill="#FFFFFF" fill-rule="nonzero">
            <path d="M19.8487462,13.1086639 L18.7873159,14.1700942 L16.6113838,12.0472336 L17.6728141,10.9858034 C17.8851002,10.762903 18.2459865,10.7522887 18.4901154,10.9858034 L19.8487462,12.3444341 C20.0504179,12.5567202 20.0504179,12.8963779 19.8487462,13.1086639 M9.5528725,19.0420592 L9.5528725,21.2286055 L11.7394189,21.2286055 L18.1716863,14.7326522 L15.9957543,12.6097917 L9.5528725,19.0420592 M2.12286055,19.105745 L7.43001194,19.105745 L7.43001194,21.2286055 L2.12286055,21.2286055 C0.95528725,21.2286055 0,20.2839326 0,19.105745 L0,4.24572111 C0,3.0781478 0.95528725,2.12286055 2.12286055,2.12286055 L3.18429083,2.12286055 L3.18429083,0 L5.30715139,0 L5.30715139,2.12286055 L13.7985936,2.12286055 L13.7985936,0 L15.9214542,0 L15.9214542,2.12286055 L16.9828844,2.12286055 C18.161072,2.12286055 19.105745,3.0781478 19.105745,4.24572111 L19.105745,8.49144222 L2.12286055,8.49144222 L2.12286055,19.105745 M2.12286055,4.24572111 L2.12286055,6.36858166 L16.9828844,6.36858166 L16.9828844,4.24572111 L2.12286055,4.24572111 Z" id="Shape"></path>
        </g>
    </g>
</svg>