<?xml version="1.0" encoding="UTF-8"?>
<svg width="20px" height="20px" viewBox="0 0 20 20" version="1.1" xmlns="http://www.w3.org/2000/svg" xmlns:xlink="http://www.w3.org/1999/xlink">
    <title>view-grid</title>
    <g id="页面-1" stroke="none" stroke-width="1" fill="none" fill-rule="evenodd">
        <g id="view-grid" fill="#FFFFFF" fill-rule="nonzero">
            <path d="M0,5.73476703 L5.73476703,5.73476703 L5.73476703,0 L0,0 M0,12.9032258 L5.73476703,12.9032258 L5.73476703,7.16845878 L0,7.16845878 M7.16845878,12.9032258 L12.9032258,12.9032258 L12.9032258,7.16845878 L7.16845878,7.16845878 M7.16845878,0 L7.16845878,5.73476703 L12.9032258,5.73476703 L12.9032258,0 M14.265233,0 L14.265233,5.73476703 L20,5.73476703 L20,0 M14.265233,7.09677419 L14.265233,12.8315412 L20,12.8315412 L20,7.09677419 M0,20 L5.73476703,20 L5.73476703,14.265233 L0,14.265233 M7.16845878,20 L12.9032258,20 L12.9032258,14.265233 L7.16845878,14.265233 M14.265233,14.1935484 L14.265233,19.9283154 L20,19.9283154 L20,14.1935484" id="Shape"></path>
        </g>
    </g>
</svg>